<?xml version="1.0" encoding="utf-8" standalone="no"?>
<!DOCTYPE svg PUBLIC "-//W3C//DTD SVG 1.1//EN"
  "http://www.w3.org/Graphics/SVG/1.1/DTD/svg11.dtd">
<!-- Created with matplotlib (https://matplotlib.org/) -->
<svg height="345.6pt" version="1.1" viewBox="0 0 629.28 345.6" width="629.28pt" xmlns="http://www.w3.org/2000/svg" xmlns:xlink="http://www.w3.org/1999/xlink">
 <metadata>
  <rdf:RDF xmlns:cc="http://creativecommons.org/ns#" xmlns:dc="http://purl.org/dc/elements/1.1/" xmlns:rdf="http://www.w3.org/1999/02/22-rdf-syntax-ns#">
   <cc:Work>
    <dc:type rdf:resource="http://purl.org/dc/dcmitype/StillImage"/>
    <dc:date>2023-03-07T16:46:18.792210</dc:date>
    <dc:format>image/svg+xml</dc:format>
    <dc:creator>
     <cc:Agent>
      <dc:title>Matplotlib v3.3.1, https://matplotlib.org/</dc:title>
     </cc:Agent>
    </dc:creator>
   </cc:Work>
  </rdf:RDF>
 </metadata>
 <defs>
  <style type="text/css">*{stroke-linecap:butt;stroke-linejoin:round;}</style>
 </defs>
 <g id="figure_1">
  <g id="patch_1">
   <path d="M 0 345.6 
L 629.28 345.6 
L 629.28 0 
L 0 0 
z
" style="fill:#ffffff;"/>
  </g>
  <g id="axes_1">
   <g id="patch_2">
    <path d="M 78.66 307.584 
L 566.352 307.584 
L 566.352 41.472 
L 78.66 41.472 
z
" style="fill:#ffffff;"/>
   </g>
   <g id="matplotlib.axis_1">
    <g id="xtick_1">
     <g id="line2d_1">
      <defs>
       <path d="M 0 0 
L 0 3.5 
" id="mfad36e634d" style="stroke:#000000;stroke-width:0.8;"/>
      </defs>
      <g>
       <use style="stroke:#000000;stroke-width:0.8;" x="100.827818" xlink:href="#mfad36e634d" y="307.584"/>
      </g>
     </g>
     <g id="text_1">
      <!-- 100 -->
      <g transform="translate(91.284068 322.182437)scale(0.1 -0.1)">
       <defs>
        <path d="M 12.40625 8.296875 
L 28.515625 8.296875 
L 28.515625 63.921875 
L 10.984375 60.40625 
L 10.984375 69.390625 
L 28.421875 72.90625 
L 38.28125 72.90625 
L 38.28125 8.296875 
L 54.390625 8.296875 
L 54.390625 0 
L 12.40625 0 
z
" id="DejaVuSans-49"/>
        <path d="M 31.78125 66.40625 
Q 24.171875 66.40625 20.328125 58.90625 
Q 16.5 51.421875 16.5 36.375 
Q 16.5 21.390625 20.328125 13.890625 
Q 24.171875 6.390625 31.78125 6.390625 
Q 39.453125 6.390625 43.28125 13.890625 
Q 47.125 21.390625 47.125 36.375 
Q 47.125 51.421875 43.28125 58.90625 
Q 39.453125 66.40625 31.78125 66.40625 
z
M 31.78125 74.21875 
Q 44.046875 74.21875 50.515625 64.515625 
Q 56.984375 54.828125 56.984375 36.375 
Q 56.984375 17.96875 50.515625 8.265625 
Q 44.046875 -1.421875 31.78125 -1.421875 
Q 19.53125 -1.421875 13.0625 8.265625 
Q 6.59375 17.96875 6.59375 36.375 
Q 6.59375 54.828125 13.0625 64.515625 
Q 19.53125 74.21875 31.78125 74.21875 
z
" id="DejaVuSans-48"/>
       </defs>
       <use xlink:href="#DejaVuSans-49"/>
       <use x="63.623047" xlink:href="#DejaVuSans-48"/>
       <use x="127.246094" xlink:href="#DejaVuSans-48"/>
      </g>
     </g>
    </g>
    <g id="xtick_2">
     <g id="line2d_2">
      <g>
       <use style="stroke:#000000;stroke-width:0.8;" x="163.09697" xlink:href="#mfad36e634d" y="307.584"/>
      </g>
     </g>
     <g id="text_2">
      <!-- 600 -->
      <g transform="translate(153.55322 322.182437)scale(0.1 -0.1)">
       <defs>
        <path d="M 33.015625 40.375 
Q 26.375 40.375 22.484375 35.828125 
Q 18.609375 31.296875 18.609375 23.390625 
Q 18.609375 15.53125 22.484375 10.953125 
Q 26.375 6.390625 33.015625 6.390625 
Q 39.65625 6.390625 43.53125 10.953125 
Q 47.40625 15.53125 47.40625 23.390625 
Q 47.40625 31.296875 43.53125 35.828125 
Q 39.65625 40.375 33.015625 40.375 
z
M 52.59375 71.296875 
L 52.59375 62.3125 
Q 48.875 64.0625 45.09375 64.984375 
Q 41.3125 65.921875 37.59375 65.921875 
Q 27.828125 65.921875 22.671875 59.328125 
Q 17.53125 52.734375 16.796875 39.40625 
Q 19.671875 43.65625 24.015625 45.921875 
Q 28.375 48.1875 33.59375 48.1875 
Q 44.578125 48.1875 50.953125 41.515625 
Q 57.328125 34.859375 57.328125 23.390625 
Q 57.328125 12.15625 50.6875 5.359375 
Q 44.046875 -1.421875 33.015625 -1.421875 
Q 20.359375 -1.421875 13.671875 8.265625 
Q 6.984375 17.96875 6.984375 36.375 
Q 6.984375 53.65625 15.1875 63.9375 
Q 23.390625 74.21875 37.203125 74.21875 
Q 40.921875 74.21875 44.703125 73.484375 
Q 48.484375 72.75 52.59375 71.296875 
z
" id="DejaVuSans-54"/>
       </defs>
       <use xlink:href="#DejaVuSans-54"/>
       <use x="63.623047" xlink:href="#DejaVuSans-48"/>
       <use x="127.246094" xlink:href="#DejaVuSans-48"/>
      </g>
     </g>
    </g>
    <g id="xtick_3">
     <g id="line2d_3">
      <g>
       <use style="stroke:#000000;stroke-width:0.8;" x="225.366123" xlink:href="#mfad36e634d" y="307.584"/>
      </g>
     </g>
     <g id="text_3">
      <!-- 1100 -->
      <g transform="translate(212.641123 322.182437)scale(0.1 -0.1)">
       <use xlink:href="#DejaVuSans-49"/>
       <use x="63.623047" xlink:href="#DejaVuSans-49"/>
       <use x="127.246094" xlink:href="#DejaVuSans-48"/>
       <use x="190.869141" xlink:href="#DejaVuSans-48"/>
      </g>
     </g>
    </g>
    <g id="xtick_4">
     <g id="line2d_4">
      <g>
       <use style="stroke:#000000;stroke-width:0.8;" x="287.635275" xlink:href="#mfad36e634d" y="307.584"/>
      </g>
     </g>
     <g id="text_4">
      <!-- 1600 -->
      <g transform="translate(274.910275 322.182437)scale(0.1 -0.1)">
       <use xlink:href="#DejaVuSans-49"/>
       <use x="63.623047" xlink:href="#DejaVuSans-54"/>
       <use x="127.246094" xlink:href="#DejaVuSans-48"/>
       <use x="190.869141" xlink:href="#DejaVuSans-48"/>
      </g>
     </g>
    </g>
    <g id="xtick_5">
     <g id="line2d_5">
      <g>
       <use style="stroke:#000000;stroke-width:0.8;" x="349.904427" xlink:href="#mfad36e634d" y="307.584"/>
      </g>
     </g>
     <g id="text_5">
      <!-- 2100 -->
      <g transform="translate(337.179427 322.182437)scale(0.1 -0.1)">
       <defs>
        <path d="M 19.1875 8.296875 
L 53.609375 8.296875 
L 53.609375 0 
L 7.328125 0 
L 7.328125 8.296875 
Q 12.9375 14.109375 22.625 23.890625 
Q 32.328125 33.6875 34.8125 36.53125 
Q 39.546875 41.84375 41.421875 45.53125 
Q 43.3125 49.21875 43.3125 52.78125 
Q 43.3125 58.59375 39.234375 62.25 
Q 35.15625 65.921875 28.609375 65.921875 
Q 23.96875 65.921875 18.8125 64.3125 
Q 13.671875 62.703125 7.8125 59.421875 
L 7.8125 69.390625 
Q 13.765625 71.78125 18.9375 73 
Q 24.125 74.21875 28.421875 74.21875 
Q 39.75 74.21875 46.484375 68.546875 
Q 53.21875 62.890625 53.21875 53.421875 
Q 53.21875 48.921875 51.53125 44.890625 
Q 49.859375 40.875 45.40625 35.40625 
Q 44.1875 33.984375 37.640625 27.21875 
Q 31.109375 20.453125 19.1875 8.296875 
z
" id="DejaVuSans-50"/>
       </defs>
       <use xlink:href="#DejaVuSans-50"/>
       <use x="63.623047" xlink:href="#DejaVuSans-49"/>
       <use x="127.246094" xlink:href="#DejaVuSans-48"/>
       <use x="190.869141" xlink:href="#DejaVuSans-48"/>
      </g>
     </g>
    </g>
    <g id="xtick_6">
     <g id="line2d_6">
      <g>
       <use style="stroke:#000000;stroke-width:0.8;" x="412.173579" xlink:href="#mfad36e634d" y="307.584"/>
      </g>
     </g>
     <g id="text_6">
      <!-- 2600 -->
      <g transform="translate(399.448579 322.182437)scale(0.1 -0.1)">
       <use xlink:href="#DejaVuSans-50"/>
       <use x="63.623047" xlink:href="#DejaVuSans-54"/>
       <use x="127.246094" xlink:href="#DejaVuSans-48"/>
       <use x="190.869141" xlink:href="#DejaVuSans-48"/>
      </g>
     </g>
    </g>
    <g id="xtick_7">
     <g id="line2d_7">
      <g>
       <use style="stroke:#000000;stroke-width:0.8;" x="474.442731" xlink:href="#mfad36e634d" y="307.584"/>
      </g>
     </g>
     <g id="text_7">
      <!-- 3100 -->
      <g transform="translate(461.717731 322.182437)scale(0.1 -0.1)">
       <defs>
        <path d="M 40.578125 39.3125 
Q 47.65625 37.796875 51.625 33 
Q 55.609375 28.21875 55.609375 21.1875 
Q 55.609375 10.40625 48.1875 4.484375 
Q 40.765625 -1.421875 27.09375 -1.421875 
Q 22.515625 -1.421875 17.65625 -0.515625 
Q 12.796875 0.390625 7.625 2.203125 
L 7.625 11.71875 
Q 11.71875 9.328125 16.59375 8.109375 
Q 21.484375 6.890625 26.8125 6.890625 
Q 36.078125 6.890625 40.9375 10.546875 
Q 45.796875 14.203125 45.796875 21.1875 
Q 45.796875 27.640625 41.28125 31.265625 
Q 36.765625 34.90625 28.71875 34.90625 
L 20.21875 34.90625 
L 20.21875 43.015625 
L 29.109375 43.015625 
Q 36.375 43.015625 40.234375 45.921875 
Q 44.09375 48.828125 44.09375 54.296875 
Q 44.09375 59.90625 40.109375 62.90625 
Q 36.140625 65.921875 28.71875 65.921875 
Q 24.65625 65.921875 20.015625 65.03125 
Q 15.375 64.15625 9.8125 62.3125 
L 9.8125 71.09375 
Q 15.4375 72.65625 20.34375 73.4375 
Q 25.25 74.21875 29.59375 74.21875 
Q 40.828125 74.21875 47.359375 69.109375 
Q 53.90625 64.015625 53.90625 55.328125 
Q 53.90625 49.265625 50.4375 45.09375 
Q 46.96875 40.921875 40.578125 39.3125 
z
" id="DejaVuSans-51"/>
       </defs>
       <use xlink:href="#DejaVuSans-51"/>
       <use x="63.623047" xlink:href="#DejaVuSans-49"/>
       <use x="127.246094" xlink:href="#DejaVuSans-48"/>
       <use x="190.869141" xlink:href="#DejaVuSans-48"/>
      </g>
     </g>
    </g>
    <g id="xtick_8">
     <g id="line2d_8">
      <g>
       <use style="stroke:#000000;stroke-width:0.8;" x="536.711884" xlink:href="#mfad36e634d" y="307.584"/>
      </g>
     </g>
     <g id="text_8">
      <!-- 3600 -->
      <g transform="translate(523.986884 322.182437)scale(0.1 -0.1)">
       <use xlink:href="#DejaVuSans-51"/>
       <use x="63.623047" xlink:href="#DejaVuSans-54"/>
       <use x="127.246094" xlink:href="#DejaVuSans-48"/>
       <use x="190.869141" xlink:href="#DejaVuSans-48"/>
      </g>
     </g>
    </g>
    <g id="text_9">
     <!-- Position -->
     <g transform="translate(303.041937 335.860562)scale(0.1 -0.1)">
      <defs>
       <path d="M 19.671875 64.796875 
L 19.671875 37.40625 
L 32.078125 37.40625 
Q 38.96875 37.40625 42.71875 40.96875 
Q 46.484375 44.53125 46.484375 51.125 
Q 46.484375 57.671875 42.71875 61.234375 
Q 38.96875 64.796875 32.078125 64.796875 
z
M 9.8125 72.90625 
L 32.078125 72.90625 
Q 44.34375 72.90625 50.609375 67.359375 
Q 56.890625 61.8125 56.890625 51.125 
Q 56.890625 40.328125 50.609375 34.8125 
Q 44.34375 29.296875 32.078125 29.296875 
L 19.671875 29.296875 
L 19.671875 0 
L 9.8125 0 
z
" id="DejaVuSans-80"/>
       <path d="M 30.609375 48.390625 
Q 23.390625 48.390625 19.1875 42.75 
Q 14.984375 37.109375 14.984375 27.296875 
Q 14.984375 17.484375 19.15625 11.84375 
Q 23.34375 6.203125 30.609375 6.203125 
Q 37.796875 6.203125 41.984375 11.859375 
Q 46.1875 17.53125 46.1875 27.296875 
Q 46.1875 37.015625 41.984375 42.703125 
Q 37.796875 48.390625 30.609375 48.390625 
z
M 30.609375 56 
Q 42.328125 56 49.015625 48.375 
Q 55.71875 40.765625 55.71875 27.296875 
Q 55.71875 13.875 49.015625 6.21875 
Q 42.328125 -1.421875 30.609375 -1.421875 
Q 18.84375 -1.421875 12.171875 6.21875 
Q 5.515625 13.875 5.515625 27.296875 
Q 5.515625 40.765625 12.171875 48.375 
Q 18.84375 56 30.609375 56 
z
" id="DejaVuSans-111"/>
       <path d="M 44.28125 53.078125 
L 44.28125 44.578125 
Q 40.484375 46.53125 36.375 47.5 
Q 32.28125 48.484375 27.875 48.484375 
Q 21.1875 48.484375 17.84375 46.4375 
Q 14.5 44.390625 14.5 40.28125 
Q 14.5 37.15625 16.890625 35.375 
Q 19.28125 33.59375 26.515625 31.984375 
L 29.59375 31.296875 
Q 39.15625 29.25 43.1875 25.515625 
Q 47.21875 21.78125 47.21875 15.09375 
Q 47.21875 7.46875 41.1875 3.015625 
Q 35.15625 -1.421875 24.609375 -1.421875 
Q 20.21875 -1.421875 15.453125 -0.5625 
Q 10.6875 0.296875 5.421875 2 
L 5.421875 11.28125 
Q 10.40625 8.6875 15.234375 7.390625 
Q 20.0625 6.109375 24.8125 6.109375 
Q 31.15625 6.109375 34.5625 8.28125 
Q 37.984375 10.453125 37.984375 14.40625 
Q 37.984375 18.0625 35.515625 20.015625 
Q 33.0625 21.96875 24.703125 23.78125 
L 21.578125 24.515625 
Q 13.234375 26.265625 9.515625 29.90625 
Q 5.8125 33.546875 5.8125 39.890625 
Q 5.8125 47.609375 11.28125 51.796875 
Q 16.75 56 26.8125 56 
Q 31.78125 56 36.171875 55.265625 
Q 40.578125 54.546875 44.28125 53.078125 
z
" id="DejaVuSans-115"/>
       <path d="M 9.421875 54.6875 
L 18.40625 54.6875 
L 18.40625 0 
L 9.421875 0 
z
M 9.421875 75.984375 
L 18.40625 75.984375 
L 18.40625 64.59375 
L 9.421875 64.59375 
z
" id="DejaVuSans-105"/>
       <path d="M 18.3125 70.21875 
L 18.3125 54.6875 
L 36.8125 54.6875 
L 36.8125 47.703125 
L 18.3125 47.703125 
L 18.3125 18.015625 
Q 18.3125 11.328125 20.140625 9.421875 
Q 21.96875 7.515625 27.59375 7.515625 
L 36.8125 7.515625 
L 36.8125 0 
L 27.59375 0 
Q 17.1875 0 13.234375 3.875 
Q 9.28125 7.765625 9.28125 18.015625 
L 9.28125 47.703125 
L 2.6875 47.703125 
L 2.6875 54.6875 
L 9.28125 54.6875 
L 9.28125 70.21875 
z
" id="DejaVuSans-116"/>
       <path d="M 54.890625 33.015625 
L 54.890625 0 
L 45.90625 0 
L 45.90625 32.71875 
Q 45.90625 40.484375 42.875 44.328125 
Q 39.84375 48.1875 33.796875 48.1875 
Q 26.515625 48.1875 22.3125 43.546875 
Q 18.109375 38.921875 18.109375 30.90625 
L 18.109375 0 
L 9.078125 0 
L 9.078125 54.6875 
L 18.109375 54.6875 
L 18.109375 46.1875 
Q 21.34375 51.125 25.703125 53.5625 
Q 30.078125 56 35.796875 56 
Q 45.21875 56 50.046875 50.171875 
Q 54.890625 44.34375 54.890625 33.015625 
z
" id="DejaVuSans-110"/>
      </defs>
      <use xlink:href="#DejaVuSans-80"/>
      <use x="56.677734" xlink:href="#DejaVuSans-111"/>
      <use x="117.859375" xlink:href="#DejaVuSans-115"/>
      <use x="169.958984" xlink:href="#DejaVuSans-105"/>
      <use x="197.742188" xlink:href="#DejaVuSans-116"/>
      <use x="236.951172" xlink:href="#DejaVuSans-105"/>
      <use x="264.734375" xlink:href="#DejaVuSans-111"/>
      <use x="325.916016" xlink:href="#DejaVuSans-110"/>
     </g>
    </g>
   </g>
   <g id="matplotlib.axis_2">
    <g id="ytick_1">
     <g id="line2d_9">
      <defs>
       <path d="M 0 0 
L -3.5 0 
" id="m4b51e8b48a" style="stroke:#000000;stroke-width:0.8;"/>
      </defs>
      <g>
       <use style="stroke:#000000;stroke-width:0.8;" x="78.66" xlink:href="#m4b51e8b48a" y="301.689191"/>
      </g>
     </g>
     <g id="text_10">
      <!-- 0.2 -->
      <g transform="translate(55.756875 305.48841)scale(0.1 -0.1)">
       <defs>
        <path d="M 10.6875 12.40625 
L 21 12.40625 
L 21 0 
L 10.6875 0 
z
" id="DejaVuSans-46"/>
       </defs>
       <use xlink:href="#DejaVuSans-48"/>
       <use x="63.623047" xlink:href="#DejaVuSans-46"/>
       <use x="95.410156" xlink:href="#DejaVuSans-50"/>
      </g>
     </g>
    </g>
    <g id="ytick_2">
     <g id="line2d_10">
      <g>
       <use style="stroke:#000000;stroke-width:0.8;" x="78.66" xlink:href="#m4b51e8b48a" y="270.278771"/>
      </g>
     </g>
     <g id="text_11">
      <!-- 0.3 -->
      <g transform="translate(55.756875 274.07799)scale(0.1 -0.1)">
       <use xlink:href="#DejaVuSans-48"/>
       <use x="63.623047" xlink:href="#DejaVuSans-46"/>
       <use x="95.410156" xlink:href="#DejaVuSans-51"/>
      </g>
     </g>
    </g>
    <g id="ytick_3">
     <g id="line2d_11">
      <g>
       <use style="stroke:#000000;stroke-width:0.8;" x="78.66" xlink:href="#m4b51e8b48a" y="238.868351"/>
      </g>
     </g>
     <g id="text_12">
      <!-- 0.4 -->
      <g transform="translate(55.756875 242.667569)scale(0.1 -0.1)">
       <defs>
        <path d="M 37.796875 64.3125 
L 12.890625 25.390625 
L 37.796875 25.390625 
z
M 35.203125 72.90625 
L 47.609375 72.90625 
L 47.609375 25.390625 
L 58.015625 25.390625 
L 58.015625 17.1875 
L 47.609375 17.1875 
L 47.609375 0 
L 37.796875 0 
L 37.796875 17.1875 
L 4.890625 17.1875 
L 4.890625 26.703125 
z
" id="DejaVuSans-52"/>
       </defs>
       <use xlink:href="#DejaVuSans-48"/>
       <use x="63.623047" xlink:href="#DejaVuSans-46"/>
       <use x="95.410156" xlink:href="#DejaVuSans-52"/>
      </g>
     </g>
    </g>
    <g id="ytick_4">
     <g id="line2d_12">
      <g>
       <use style="stroke:#000000;stroke-width:0.8;" x="78.66" xlink:href="#m4b51e8b48a" y="207.457931"/>
      </g>
     </g>
     <g id="text_13">
      <!-- 0.5 -->
      <g transform="translate(55.756875 211.257149)scale(0.1 -0.1)">
       <defs>
        <path d="M 10.796875 72.90625 
L 49.515625 72.90625 
L 49.515625 64.59375 
L 19.828125 64.59375 
L 19.828125 46.734375 
Q 21.96875 47.46875 24.109375 47.828125 
Q 26.265625 48.1875 28.421875 48.1875 
Q 40.625 48.1875 47.75 41.5 
Q 54.890625 34.8125 54.890625 23.390625 
Q 54.890625 11.625 47.5625 5.09375 
Q 40.234375 -1.421875 26.90625 -1.421875 
Q 22.3125 -1.421875 17.546875 -0.640625 
Q 12.796875 0.140625 7.71875 1.703125 
L 7.71875 11.625 
Q 12.109375 9.234375 16.796875 8.0625 
Q 21.484375 6.890625 26.703125 6.890625 
Q 35.15625 6.890625 40.078125 11.328125 
Q 45.015625 15.765625 45.015625 23.390625 
Q 45.015625 31 40.078125 35.4375 
Q 35.15625 39.890625 26.703125 39.890625 
Q 22.75 39.890625 18.8125 39.015625 
Q 14.890625 38.140625 10.796875 36.28125 
z
" id="DejaVuSans-53"/>
       </defs>
       <use xlink:href="#DejaVuSans-48"/>
       <use x="63.623047" xlink:href="#DejaVuSans-46"/>
       <use x="95.410156" xlink:href="#DejaVuSans-53"/>
      </g>
     </g>
    </g>
    <g id="ytick_5">
     <g id="line2d_13">
      <g>
       <use style="stroke:#000000;stroke-width:0.8;" x="78.66" xlink:href="#m4b51e8b48a" y="176.04751"/>
      </g>
     </g>
     <g id="text_14">
      <!-- 0.6 -->
      <g transform="translate(55.756875 179.846729)scale(0.1 -0.1)">
       <use xlink:href="#DejaVuSans-48"/>
       <use x="63.623047" xlink:href="#DejaVuSans-46"/>
       <use x="95.410156" xlink:href="#DejaVuSans-54"/>
      </g>
     </g>
    </g>
    <g id="ytick_6">
     <g id="line2d_14">
      <g>
       <use style="stroke:#000000;stroke-width:0.8;" x="78.66" xlink:href="#m4b51e8b48a" y="144.63709"/>
      </g>
     </g>
     <g id="text_15">
      <!-- 0.7 -->
      <g transform="translate(55.756875 148.436309)scale(0.1 -0.1)">
       <defs>
        <path d="M 8.203125 72.90625 
L 55.078125 72.90625 
L 55.078125 68.703125 
L 28.609375 0 
L 18.3125 0 
L 43.21875 64.59375 
L 8.203125 64.59375 
z
" id="DejaVuSans-55"/>
       </defs>
       <use xlink:href="#DejaVuSans-48"/>
       <use x="63.623047" xlink:href="#DejaVuSans-46"/>
       <use x="95.410156" xlink:href="#DejaVuSans-55"/>
      </g>
     </g>
    </g>
    <g id="ytick_7">
     <g id="line2d_15">
      <g>
       <use style="stroke:#000000;stroke-width:0.8;" x="78.66" xlink:href="#m4b51e8b48a" y="113.22667"/>
      </g>
     </g>
     <g id="text_16">
      <!-- 0.8 -->
      <g transform="translate(55.756875 117.025889)scale(0.1 -0.1)">
       <defs>
        <path d="M 31.78125 34.625 
Q 24.75 34.625 20.71875 30.859375 
Q 16.703125 27.09375 16.703125 20.515625 
Q 16.703125 13.921875 20.71875 10.15625 
Q 24.75 6.390625 31.78125 6.390625 
Q 38.8125 6.390625 42.859375 10.171875 
Q 46.921875 13.96875 46.921875 20.515625 
Q 46.921875 27.09375 42.890625 30.859375 
Q 38.875 34.625 31.78125 34.625 
z
M 21.921875 38.8125 
Q 15.578125 40.375 12.03125 44.71875 
Q 8.5 49.078125 8.5 55.328125 
Q 8.5 64.0625 14.71875 69.140625 
Q 20.953125 74.21875 31.78125 74.21875 
Q 42.671875 74.21875 48.875 69.140625 
Q 55.078125 64.0625 55.078125 55.328125 
Q 55.078125 49.078125 51.53125 44.71875 
Q 48 40.375 41.703125 38.8125 
Q 48.828125 37.15625 52.796875 32.3125 
Q 56.78125 27.484375 56.78125 20.515625 
Q 56.78125 9.90625 50.3125 4.234375 
Q 43.84375 -1.421875 31.78125 -1.421875 
Q 19.734375 -1.421875 13.25 4.234375 
Q 6.78125 9.90625 6.78125 20.515625 
Q 6.78125 27.484375 10.78125 32.3125 
Q 14.796875 37.15625 21.921875 38.8125 
z
M 18.3125 54.390625 
Q 18.3125 48.734375 21.84375 45.5625 
Q 25.390625 42.390625 31.78125 42.390625 
Q 38.140625 42.390625 41.71875 45.5625 
Q 45.3125 48.734375 45.3125 54.390625 
Q 45.3125 60.0625 41.71875 63.234375 
Q 38.140625 66.40625 31.78125 66.40625 
Q 25.390625 66.40625 21.84375 63.234375 
Q 18.3125 60.0625 18.3125 54.390625 
z
" id="DejaVuSans-56"/>
       </defs>
       <use xlink:href="#DejaVuSans-48"/>
       <use x="63.623047" xlink:href="#DejaVuSans-46"/>
       <use x="95.410156" xlink:href="#DejaVuSans-56"/>
      </g>
     </g>
    </g>
    <g id="ytick_8">
     <g id="line2d_16">
      <g>
       <use style="stroke:#000000;stroke-width:0.8;" x="78.66" xlink:href="#m4b51e8b48a" y="81.81625"/>
      </g>
     </g>
     <g id="text_17">
      <!-- 0.9 -->
      <g transform="translate(55.756875 85.615469)scale(0.1 -0.1)">
       <defs>
        <path d="M 10.984375 1.515625 
L 10.984375 10.5 
Q 14.703125 8.734375 18.5 7.8125 
Q 22.3125 6.890625 25.984375 6.890625 
Q 35.75 6.890625 40.890625 13.453125 
Q 46.046875 20.015625 46.78125 33.40625 
Q 43.953125 29.203125 39.59375 26.953125 
Q 35.25 24.703125 29.984375 24.703125 
Q 19.046875 24.703125 12.671875 31.3125 
Q 6.296875 37.9375 6.296875 49.421875 
Q 6.296875 60.640625 12.9375 67.421875 
Q 19.578125 74.21875 30.609375 74.21875 
Q 43.265625 74.21875 49.921875 64.515625 
Q 56.59375 54.828125 56.59375 36.375 
Q 56.59375 19.140625 48.40625 8.859375 
Q 40.234375 -1.421875 26.421875 -1.421875 
Q 22.703125 -1.421875 18.890625 -0.6875 
Q 15.09375 0.046875 10.984375 1.515625 
z
M 30.609375 32.421875 
Q 37.25 32.421875 41.125 36.953125 
Q 45.015625 41.5 45.015625 49.421875 
Q 45.015625 57.28125 41.125 61.84375 
Q 37.25 66.40625 30.609375 66.40625 
Q 23.96875 66.40625 20.09375 61.84375 
Q 16.21875 57.28125 16.21875 49.421875 
Q 16.21875 41.5 20.09375 36.953125 
Q 23.96875 32.421875 30.609375 32.421875 
z
" id="DejaVuSans-57"/>
       </defs>
       <use xlink:href="#DejaVuSans-48"/>
       <use x="63.623047" xlink:href="#DejaVuSans-46"/>
       <use x="95.410156" xlink:href="#DejaVuSans-57"/>
      </g>
     </g>
    </g>
    <g id="ytick_9">
     <g id="line2d_17">
      <g>
       <use style="stroke:#000000;stroke-width:0.8;" x="78.66" xlink:href="#m4b51e8b48a" y="50.40583"/>
      </g>
     </g>
     <g id="text_18">
      <!-- 1.0 -->
      <g transform="translate(55.756875 54.205048)scale(0.1 -0.1)">
       <use xlink:href="#DejaVuSans-49"/>
       <use x="63.623047" xlink:href="#DejaVuSans-46"/>
       <use x="95.410156" xlink:href="#DejaVuSans-48"/>
      </g>
     </g>
    </g>
    <g id="text_19">
     <!-- Similarity -->
     <g transform="translate(49.677187 198.167844)rotate(-90)scale(0.1 -0.1)">
      <defs>
       <path d="M 53.515625 70.515625 
L 53.515625 60.890625 
Q 47.90625 63.578125 42.921875 64.890625 
Q 37.9375 66.21875 33.296875 66.21875 
Q 25.25 66.21875 20.875 63.09375 
Q 16.5 59.96875 16.5 54.203125 
Q 16.5 49.359375 19.40625 46.890625 
Q 22.3125 44.4375 30.421875 42.921875 
L 36.375 41.703125 
Q 47.40625 39.59375 52.65625 34.296875 
Q 57.90625 29 57.90625 20.125 
Q 57.90625 9.515625 50.796875 4.046875 
Q 43.703125 -1.421875 29.984375 -1.421875 
Q 24.8125 -1.421875 18.96875 -0.25 
Q 13.140625 0.921875 6.890625 3.21875 
L 6.890625 13.375 
Q 12.890625 10.015625 18.65625 8.296875 
Q 24.421875 6.59375 29.984375 6.59375 
Q 38.421875 6.59375 43.015625 9.90625 
Q 47.609375 13.234375 47.609375 19.390625 
Q 47.609375 24.75 44.3125 27.78125 
Q 41.015625 30.8125 33.5 32.328125 
L 27.484375 33.5 
Q 16.453125 35.6875 11.515625 40.375 
Q 6.59375 45.0625 6.59375 53.421875 
Q 6.59375 63.09375 13.40625 68.65625 
Q 20.21875 74.21875 32.171875 74.21875 
Q 37.3125 74.21875 42.625 73.28125 
Q 47.953125 72.359375 53.515625 70.515625 
z
" id="DejaVuSans-83"/>
       <path d="M 52 44.1875 
Q 55.375 50.25 60.0625 53.125 
Q 64.75 56 71.09375 56 
Q 79.640625 56 84.28125 50.015625 
Q 88.921875 44.046875 88.921875 33.015625 
L 88.921875 0 
L 79.890625 0 
L 79.890625 32.71875 
Q 79.890625 40.578125 77.09375 44.375 
Q 74.3125 48.1875 68.609375 48.1875 
Q 61.625 48.1875 57.5625 43.546875 
Q 53.515625 38.921875 53.515625 30.90625 
L 53.515625 0 
L 44.484375 0 
L 44.484375 32.71875 
Q 44.484375 40.625 41.703125 44.40625 
Q 38.921875 48.1875 33.109375 48.1875 
Q 26.21875 48.1875 22.15625 43.53125 
Q 18.109375 38.875 18.109375 30.90625 
L 18.109375 0 
L 9.078125 0 
L 9.078125 54.6875 
L 18.109375 54.6875 
L 18.109375 46.1875 
Q 21.1875 51.21875 25.484375 53.609375 
Q 29.78125 56 35.6875 56 
Q 41.65625 56 45.828125 52.96875 
Q 50 49.953125 52 44.1875 
z
" id="DejaVuSans-109"/>
       <path d="M 9.421875 75.984375 
L 18.40625 75.984375 
L 18.40625 0 
L 9.421875 0 
z
" id="DejaVuSans-108"/>
       <path d="M 34.28125 27.484375 
Q 23.390625 27.484375 19.1875 25 
Q 14.984375 22.515625 14.984375 16.5 
Q 14.984375 11.71875 18.140625 8.90625 
Q 21.296875 6.109375 26.703125 6.109375 
Q 34.1875 6.109375 38.703125 11.40625 
Q 43.21875 16.703125 43.21875 25.484375 
L 43.21875 27.484375 
z
M 52.203125 31.203125 
L 52.203125 0 
L 43.21875 0 
L 43.21875 8.296875 
Q 40.140625 3.328125 35.546875 0.953125 
Q 30.953125 -1.421875 24.3125 -1.421875 
Q 15.921875 -1.421875 10.953125 3.296875 
Q 6 8.015625 6 15.921875 
Q 6 25.140625 12.171875 29.828125 
Q 18.359375 34.515625 30.609375 34.515625 
L 43.21875 34.515625 
L 43.21875 35.40625 
Q 43.21875 41.609375 39.140625 45 
Q 35.0625 48.390625 27.6875 48.390625 
Q 23 48.390625 18.546875 47.265625 
Q 14.109375 46.140625 10.015625 43.890625 
L 10.015625 52.203125 
Q 14.9375 54.109375 19.578125 55.046875 
Q 24.21875 56 28.609375 56 
Q 40.484375 56 46.34375 49.84375 
Q 52.203125 43.703125 52.203125 31.203125 
z
" id="DejaVuSans-97"/>
       <path d="M 41.109375 46.296875 
Q 39.59375 47.171875 37.8125 47.578125 
Q 36.03125 48 33.890625 48 
Q 26.265625 48 22.1875 43.046875 
Q 18.109375 38.09375 18.109375 28.8125 
L 18.109375 0 
L 9.078125 0 
L 9.078125 54.6875 
L 18.109375 54.6875 
L 18.109375 46.1875 
Q 20.953125 51.171875 25.484375 53.578125 
Q 30.03125 56 36.53125 56 
Q 37.453125 56 38.578125 55.875 
Q 39.703125 55.765625 41.0625 55.515625 
z
" id="DejaVuSans-114"/>
       <path d="M 32.171875 -5.078125 
Q 28.375 -14.84375 24.75 -17.8125 
Q 21.140625 -20.796875 15.09375 -20.796875 
L 7.90625 -20.796875 
L 7.90625 -13.28125 
L 13.1875 -13.28125 
Q 16.890625 -13.28125 18.9375 -11.515625 
Q 21 -9.765625 23.484375 -3.21875 
L 25.09375 0.875 
L 2.984375 54.6875 
L 12.5 54.6875 
L 29.59375 11.921875 
L 46.6875 54.6875 
L 56.203125 54.6875 
z
" id="DejaVuSans-121"/>
      </defs>
      <use xlink:href="#DejaVuSans-83"/>
      <use x="63.476562" xlink:href="#DejaVuSans-105"/>
      <use x="91.259766" xlink:href="#DejaVuSans-109"/>
      <use x="188.671875" xlink:href="#DejaVuSans-105"/>
      <use x="216.455078" xlink:href="#DejaVuSans-108"/>
      <use x="244.238281" xlink:href="#DejaVuSans-97"/>
      <use x="305.517578" xlink:href="#DejaVuSans-114"/>
      <use x="346.630859" xlink:href="#DejaVuSans-105"/>
      <use x="374.414062" xlink:href="#DejaVuSans-116"/>
      <use x="413.623047" xlink:href="#DejaVuSans-121"/>
     </g>
    </g>
   </g>
   <g id="line2d_18">
    <path clip-path="url(#p0cfdd7ad18)" d="M 100.827818 141.817231 
L 103.318584 146.529373 
L 105.80935 146.529373 
L 108.300116 134.718471 
L 113.281649 125.678392 
L 115.772415 134.718471 
L 118.263181 137.033754 
L 120.753947 137.033754 
L 123.244713 141.733723 
L 125.735479 129.671337 
L 128.226245 127.79421 
L 133.207777 132.197669 
L 135.698543 127.79421 
L 138.189309 129.985651 
L 140.680076 112.99969 
L 143.170842 106.932965 
L 145.661608 106.932965 
L 148.152374 104.944952 
L 150.64314 108.937897 
L 153.133906 106.932965 
L 155.624672 108.937897 
L 158.115438 115.057154 
L 160.606204 119.226788 
L 163.09697 119.226788 
L 165.587736 121.339611 
L 170.569269 121.339611 
L 173.060035 125.622968 
L 175.550801 125.622968 
L 178.041567 119.226788 
L 183.023099 110.96004 
L 185.513865 112.99969 
L 188.004631 108.937897 
L 190.495397 110.96004 
L 192.986163 115.057154 
L 195.47693 108.937897 
L 197.967696 110.96004 
L 200.458462 106.932965 
L 202.949228 108.937897 
L 205.439994 104.944952 
L 207.93076 104.944952 
L 210.421526 97.156535 
L 212.912292 93.356805 
L 215.403058 99.079633 
L 217.893824 97.156535 
L 220.38459 102.973575 
L 222.875356 101.018558 
L 225.366123 102.973575 
L 227.856889 108.937897 
L 230.347655 112.99969 
L 232.838421 115.057154 
L 235.329187 127.79421 
L 237.819953 136.685007 
L 240.310719 136.685007 
L 245.292251 127.79421 
L 247.783017 127.79421 
L 250.273783 125.622968 
L 252.76455 132.197669 
L 255.255316 141.259484 
L 257.746082 143.58047 
L 260.236848 138.961142 
L 265.21838 143.58047 
L 267.709146 143.58047 
L 270.199912 155.54132 
L 272.690678 148.29219 
L 275.181444 148.29219 
L 277.67221 141.259484 
L 280.162977 127.79421 
L 282.653743 121.339611 
L 285.144509 112.99969 
L 287.635275 102.973575 
L 290.126041 97.156535 
L 292.616807 101.018558 
L 295.107573 93.356805 
L 297.598339 99.079633 
L 302.579871 99.079633 
L 307.561403 102.973575 
L 310.05217 108.937897 
L 312.542936 112.99969 
L 315.033702 112.99969 
L 317.524468 108.937897 
L 320.015234 115.057154 
L 322.506 117.132746 
L 324.996766 136.685007 
L 327.487532 150.683867 
L 329.978298 153.100074 
L 332.469064 145.92455 
L 334.95983 141.259484 
L 337.450597 141.259484 
L 339.941363 136.685007 
L 342.432129 134.430654 
L 344.922895 129.985651 
L 347.413661 123.471554 
L 349.904427 110.96004 
L 352.395193 95.249009 
L 354.885959 89.617391 
L 357.376725 95.249009 
L 359.867491 91.479678 
L 367.33979 91.479678 
L 369.830556 87.769709 
L 372.321322 85.936407 
L 374.812088 76.977984 
L 379.79362 76.977984 
L 382.284386 71.762018 
L 387.265918 68.347782 
L 389.756684 75.226465 
L 392.24745 76.977984 
L 394.738217 75.226465 
L 397.228983 80.520579 
L 399.719749 84.117262 
L 402.210515 82.312056 
L 404.701281 85.936407 
L 407.192047 87.769709 
L 409.682813 93.356805 
L 412.173579 93.356805 
L 414.664345 89.617391 
L 417.155111 89.617391 
L 419.645877 97.156535 
L 422.136644 95.249009 
L 427.118176 99.079633 
L 429.608942 97.156535 
L 432.099708 101.018558 
L 434.590474 102.973575 
L 437.08124 101.018558 
L 439.572006 95.249009 
L 442.062772 93.356805 
L 444.553538 95.249009 
L 447.044304 93.356805 
L 452.025837 85.936407 
L 454.516603 89.617391 
L 457.007369 87.769709 
L 459.498135 82.312056 
L 461.988901 87.769709 
L 464.479667 91.479678 
L 466.970433 93.356805 
L 469.461199 85.936407 
L 474.442731 85.936407 
L 476.933497 87.769709 
L 479.424264 82.312056 
L 481.91503 85.936407 
L 484.405796 85.936407 
L 486.896562 84.117262 
L 489.387328 85.936407 
L 494.36886 82.312056 
L 496.859626 85.936407 
L 499.350392 84.117262 
L 501.841158 91.479678 
L 506.822691 91.479678 
L 509.313457 97.156535 
L 511.804223 91.479678 
L 514.294989 87.769709 
L 516.785755 91.479678 
L 519.276521 97.156535 
L 521.767287 95.249009 
L 524.258053 97.156535 
L 526.748819 93.356805 
L 529.239585 102.973575 
L 531.730351 101.018558 
L 534.221117 95.249009 
L 536.711884 102.973575 
L 539.20265 101.018558 
L 541.693416 104.944952 
L 544.184182 99.079633 
L 544.184182 99.079633 
" style="fill:none;stroke:#5b113c;stroke-linecap:square;stroke-width:1.5;"/>
   </g>
   <g id="line2d_19">
    <path clip-path="url(#p0cfdd7ad18)" d="M 100.827818 243.81091 
L 103.318584 236.778205 
L 105.80935 247.407593 
L 108.300116 240.268315 
L 110.790883 236.778205 
L 113.281649 229.949374 
L 115.772415 247.407593 
L 118.263181 220.063526 
L 120.753947 204.456618 
L 123.244713 207.496378 
L 125.735479 178.731651 
L 128.226245 178.580502 
L 130.717011 175.849131 
L 133.207777 178.580502 
L 135.698543 184.140127 
L 138.189309 192.733596 
L 140.680076 189.834136 
L 143.170842 189.834136 
L 145.661608 195.669187 
L 148.152374 195.669187 
L 150.64314 207.791638 
L 153.133906 204.456618 
L 155.624672 210.575875 
L 158.115438 213.696161 
L 160.606204 213.696161 
L 163.09697 216.858331 
L 165.587736 216.858331 
L 168.078503 223.312931 
L 170.569269 223.312931 
L 173.060035 220.063526 
L 175.550801 210.575875 
L 178.041567 195.565821 
L 180.532333 176.0393 
L 183.023099 163.02062 
L 185.513865 155.54132 
L 188.004631 145.92455 
L 190.495397 134.430654 
L 192.986163 123.471554 
L 195.47693 119.226788 
L 197.967696 123.471554 
L 200.458462 123.471554 
L 202.949228 129.985651 
L 205.439994 153.100074 
L 207.93076 160.501043 
L 210.421526 160.501043 
L 212.912292 155.54132 
L 215.403058 160.501043 
L 217.893824 158.00813 
L 220.38459 160.501043 
L 227.856889 160.501043 
L 230.347655 134.430654 
L 232.838421 127.79421 
L 235.329187 132.197669 
L 237.819953 145.288711 
L 240.310719 153.034444 
L 242.801485 172.164336 
L 245.292251 169.334534 
L 247.783017 177.381629 
L 250.273783 176.338785 
L 252.76455 177.381629 
L 255.255316 219.815418 
L 257.746082 258.96486 
L 260.236848 269.860589 
L 262.727614 251.33977 
L 265.21838 224.892046 
L 267.709146 193.695707 
L 270.199912 216.697197 
L 272.690678 196.910638 
L 275.181444 202.737062 
L 277.67221 199.530413 
L 280.162977 186.998399 
L 282.653743 168.142086 
L 285.144509 165.567436 
L 287.635275 155.54132 
L 290.126041 153.100074 
L 292.616807 148.29219 
L 295.107573 127.79421 
L 297.598339 129.985651 
L 300.089105 119.226788 
L 302.579871 121.339611 
L 305.070637 112.99969 
L 307.561403 112.99969 
L 310.05217 104.944952 
L 312.542936 106.932965 
L 315.033702 110.96004 
L 320.015234 123.471554 
L 322.506 121.339611 
L 324.996766 141.259484 
L 327.487532 158.00813 
L 329.978298 160.501043 
L 332.469064 165.567436 
L 334.95983 168.142086 
L 339.941363 163.02062 
L 342.432129 168.142086 
L 344.922895 170.745186 
L 347.413661 165.567436 
L 349.904427 158.00813 
L 352.395193 129.985651 
L 354.885959 127.79421 
L 357.376725 123.471554 
L 359.867491 117.132746 
L 362.358257 117.132746 
L 364.849023 119.226788 
L 367.33979 108.937897 
L 369.830556 104.944952 
L 372.321322 106.932965 
L 374.812088 93.356805 
L 377.302854 99.079633 
L 379.79362 102.973575 
L 382.284386 101.018558 
L 384.775152 106.932965 
L 387.265918 108.937897 
L 389.756684 108.937897 
L 392.24745 110.96004 
L 394.738217 115.057154 
L 397.228983 127.79421 
L 399.719749 138.961142 
L 402.210515 132.197669 
L 404.701281 129.985651 
L 409.682813 117.132746 
L 412.173579 110.96004 
L 414.664345 112.99969 
L 417.155111 110.96004 
L 419.645877 117.132746 
L 422.136644 101.018558 
L 427.118176 97.156535 
L 429.608942 89.617391 
L 432.099708 91.479678 
L 434.590474 95.249009 
L 437.08124 97.156535 
L 439.572006 97.156535 
L 442.062772 95.249009 
L 444.553538 85.936407 
L 447.044304 84.117262 
L 449.53507 76.977984 
L 452.025837 76.977984 
L 454.516603 80.520579 
L 457.007369 82.312056 
L 459.498135 76.977984 
L 461.988901 82.312056 
L 464.479667 78.742622 
L 466.970433 80.520579 
L 469.461199 85.936407 
L 471.951965 85.936407 
L 476.933497 93.356805 
L 479.424264 95.249009 
L 481.91503 91.479678 
L 484.405796 95.249009 
L 486.896562 95.249009 
L 489.387328 93.356805 
L 491.878094 93.356805 
L 494.36886 84.117262 
L 496.859626 89.617391 
L 501.841158 85.936407 
L 504.331924 85.936407 
L 506.822691 91.479678 
L 509.313457 91.479678 
L 511.804223 84.117262 
L 514.294989 85.936407 
L 516.785755 85.936407 
L 519.276521 87.769709 
L 521.767287 84.117262 
L 524.258053 87.769709 
L 526.748819 95.249009 
L 529.239585 99.079633 
L 531.730351 99.079633 
L 534.221117 97.156535 
L 536.711884 99.079633 
L 544.184182 93.356805 
L 544.184182 93.356805 
" style="fill:none;stroke:#ff34ff;stroke-linecap:square;stroke-width:1.5;"/>
   </g>
   <g id="line2d_20">
    <path clip-path="url(#p0cfdd7ad18)" d="M 100.827818 286.100459 
L 103.318584 265.46398 
L 105.80935 265.46398 
L 108.300116 235.508999 
L 113.281649 221.848468 
L 115.772415 218.553615 
L 118.263181 212.099015 
L 120.753947 199.697302 
L 123.244713 196.696265 
L 125.735479 181.455128 
L 128.226245 194.656875 
L 130.717011 200.047273 
L 133.207777 212.834814 
L 135.698543 196.237942 
L 138.189309 220.370209 
L 140.680076 231.458287 
L 143.170842 220.370209 
L 145.661608 220.370209 
L 148.152374 224.008554 
L 150.64314 247.104078 
L 153.133906 247.70814 
L 155.624672 231.378207 
L 158.115438 234.085454 
L 160.606204 252.146261 
L 163.09697 247.407593 
L 165.587736 242.051215 
L 168.078503 245.732198 
L 170.569269 242.051215 
L 173.060035 245.732198 
L 175.550801 242.051215 
L 178.041567 217.779074 
L 180.532333 221.09713 
L 183.023099 211.279954 
L 185.513865 224.46259 
L 188.004631 192.793756 
L 190.495397 186.998399 
L 192.986163 189.819728 
L 195.47693 186.998399 
L 197.967696 178.731651 
L 200.458462 178.731651 
L 202.949228 184.210459 
L 205.439994 184.210459 
L 207.93076 186.998399 
L 210.421526 170.745186 
L 212.912292 176.0393 
L 215.403058 176.0393 
L 217.893824 168.142086 
L 222.875356 178.731651 
L 225.366123 170.745186 
L 227.856889 168.142086 
L 230.347655 155.54132 
L 232.838421 150.683867 
L 235.329187 155.54132 
L 237.819953 175.243235 
L 240.310719 186.879089 
L 242.801485 199.119668 
L 245.292251 199.119668 
L 247.783017 212.031291 
L 250.273783 236.483548 
L 252.76455 233.616034 
L 257.746082 287.341414 
L 260.236848 278.235811 
L 262.727614 241.144503 
L 265.21838 227.231788 
L 267.709146 207.791638 
L 270.199912 204.702044 
L 275.181444 157.567973 
L 277.67221 160.501043 
L 280.162977 148.29219 
L 282.653743 138.961142 
L 287.635275 158.00813 
L 290.126041 143.58047 
L 292.616807 145.92455 
L 295.107573 141.259484 
L 297.598339 150.683867 
L 300.089105 143.58047 
L 305.070637 153.100074 
L 307.561403 150.683867 
L 310.05217 150.683867 
L 312.542936 148.29219 
L 315.033702 160.501043 
L 317.524468 160.501043 
L 320.015234 168.142086 
L 322.506 168.142086 
L 324.996766 192.675256 
L 327.487532 204.456618 
L 329.978298 195.565821 
L 332.469064 213.696161 
L 334.95983 198.492296 
L 337.450597 198.492296 
L 339.941363 195.565821 
L 342.432129 201.455582 
L 344.922895 192.675256 
L 347.413661 181.455128 
L 349.904427 165.567436 
L 352.395193 153.100074 
L 354.885959 155.54132 
L 357.376725 143.58047 
L 359.867491 143.58047 
L 362.358257 141.259484 
L 364.849023 150.683867 
L 367.33979 143.58047 
L 369.830556 141.259484 
L 372.321322 150.683867 
L 374.812088 155.54132 
L 377.302854 153.100074 
L 379.79362 155.54132 
L 382.284386 150.683867 
L 384.775152 158.00813 
L 387.265918 150.683867 
L 389.756684 141.259484 
L 394.738217 150.683867 
L 397.228983 153.100074 
L 399.719749 158.00813 
L 402.210515 153.100074 
L 404.701281 153.100074 
L 407.192047 148.29219 
L 409.682813 141.259484 
L 414.664345 145.92455 
L 419.645877 160.501043 
L 422.136644 158.00813 
L 424.62741 150.683867 
L 427.118176 160.501043 
L 429.608942 153.100074 
L 432.099708 150.683867 
L 434.590474 150.683867 
L 437.08124 153.100074 
L 439.572006 145.92455 
L 442.062772 136.685007 
L 447.044304 132.197669 
L 449.53507 125.622968 
L 452.025837 115.057154 
L 454.516603 112.99969 
L 457.007369 119.226788 
L 461.988901 115.057154 
L 464.479667 115.057154 
L 466.970433 110.96004 
L 469.461199 110.96004 
L 471.951965 104.944952 
L 474.442731 104.944952 
L 476.933497 102.973575 
L 479.424264 106.932965 
L 481.91503 104.944952 
L 484.405796 112.99969 
L 486.896562 117.132746 
L 494.36886 117.132746 
L 496.859626 121.339611 
L 499.350392 127.79421 
L 501.841158 136.685007 
L 504.331924 143.58047 
L 506.822691 165.567436 
L 509.313457 153.100074 
L 511.804223 153.100074 
L 514.294989 158.00813 
L 516.785755 155.54132 
L 521.767287 141.259484 
L 524.258053 141.259484 
L 526.748819 143.58047 
L 529.239585 136.685007 
L 531.730351 121.339611 
L 534.221117 123.471554 
L 536.711884 129.985651 
L 539.20265 123.471554 
L 541.693416 129.985651 
L 544.184182 129.985651 
L 544.184182 129.985651 
" style="fill:none;stroke:#0000a6;stroke-linecap:square;stroke-width:1.5;"/>
   </g>
   <g id="line2d_21">
    <path clip-path="url(#p0cfdd7ad18)" d="M 100.827818 274.250371 
L 103.318584 269.114498 
L 105.80935 286.100459 
L 110.790883 221.09713 
L 113.281649 204.955328 
L 115.772415 198.796071 
L 118.263181 195.775797 
L 120.753947 204.955328 
L 123.244713 198.796071 
L 125.735479 186.940581 
L 128.226245 186.969929 
L 130.717011 180.06784 
L 133.207777 202.505649 
L 135.698543 202.505649 
L 138.189309 241.125137 
L 140.680076 248.881497 
L 143.170842 248.881497 
L 145.661608 241.125137 
L 148.152374 215.828105 
L 150.64314 237.340668 
L 153.133906 247.793471 
L 155.624672 242.648277 
L 158.115438 240.268315 
L 160.606204 243.81091 
L 163.09697 233.339046 
L 165.587736 234.085454 
L 168.078503 248.421627 
L 170.569269 234.085454 
L 173.060035 259.776989 
L 175.550801 244.754967 
L 178.041567 217.311242 
L 180.532333 220.571891 
L 183.023099 214.095108 
L 185.513865 220.571891 
L 188.004631 201.652446 
L 190.495397 189.819728 
L 192.986163 184.210459 
L 195.47693 184.210459 
L 200.458462 168.142086 
L 202.949228 178.731651 
L 205.439994 184.210459 
L 210.421526 168.142086 
L 212.912292 163.02062 
L 215.403058 160.501043 
L 217.893824 148.29219 
L 220.38459 150.683867 
L 222.875356 150.683867 
L 227.856889 145.92455 
L 230.347655 127.79421 
L 232.838421 121.339611 
L 235.329187 123.471554 
L 237.819953 137.789569 
L 240.310719 145.288711 
L 242.801485 163.77491 
L 245.292251 158.343472 
L 247.783017 165.451072 
L 250.273783 167.105563 
L 252.76455 181.15096 
L 255.255316 218.099619 
L 257.746082 267.357078 
L 260.236848 272.900349 
L 262.727614 231.648773 
L 265.21838 207.361724 
L 267.709146 181.868967 
L 270.199912 203.546609 
L 272.690678 182.239082 
L 275.181444 181.924349 
L 277.67221 178.731651 
L 280.162977 170.745186 
L 282.653743 160.501043 
L 285.144509 163.02062 
L 290.126041 173.377371 
L 292.616807 170.745186 
L 295.107573 155.54132 
L 297.598339 163.02062 
L 300.089105 153.100074 
L 302.579871 148.29219 
L 307.561403 129.985651 
L 310.05217 121.339611 
L 312.542936 115.057154 
L 315.033702 112.99969 
L 317.524468 115.057154 
L 320.015234 119.226788 
L 322.506 119.226788 
L 324.996766 132.197669 
L 327.487532 138.961142 
L 329.978298 143.58047 
L 332.469064 143.58047 
L 334.95983 141.259484 
L 339.941363 150.683867 
L 342.432129 158.00813 
L 344.922895 158.00813 
L 347.413661 145.92455 
L 349.904427 148.29219 
L 354.885959 134.430654 
L 357.376725 141.259484 
L 359.867491 136.685007 
L 362.358257 134.430654 
L 364.849023 129.985651 
L 367.33979 119.226788 
L 369.830556 115.057154 
L 372.321322 123.471554 
L 374.812088 115.057154 
L 377.302854 108.937897 
L 379.79362 106.932965 
L 382.284386 102.973575 
L 384.775152 104.944952 
L 387.265918 102.973575 
L 389.756684 102.973575 
L 392.24745 104.944952 
L 394.738217 112.99969 
L 397.228983 119.226788 
L 399.719749 119.226788 
L 402.210515 117.132746 
L 404.701281 121.339611 
L 407.192047 115.057154 
L 412.173579 110.96004 
L 414.664345 112.99969 
L 417.155111 121.339611 
L 422.136644 117.132746 
L 424.62741 117.132746 
L 427.118176 119.226788 
L 429.608942 115.057154 
L 432.099708 115.057154 
L 434.590474 117.132746 
L 437.08124 117.132746 
L 439.572006 115.057154 
L 442.062772 104.944952 
L 444.553538 108.937897 
L 447.044304 102.973575 
L 449.53507 99.079633 
L 452.025837 93.356805 
L 454.516603 91.479678 
L 457.007369 91.479678 
L 459.498135 89.617391 
L 466.970433 101.018558 
L 469.461199 95.249009 
L 471.951965 97.156535 
L 474.442731 97.156535 
L 479.424264 104.944952 
L 481.91503 115.057154 
L 491.878094 123.471554 
L 496.859626 119.226788 
L 499.350392 123.471554 
L 501.841158 129.985651 
L 506.822691 121.339611 
L 509.313457 125.622968 
L 514.294989 108.937897 
L 516.785755 104.944952 
L 519.276521 104.944952 
L 521.767287 101.018558 
L 526.748819 101.018558 
L 529.239585 106.932965 
L 531.730351 106.932965 
L 534.221117 102.973575 
L 536.711884 117.132746 
L 539.20265 115.057154 
L 541.693416 108.937897 
L 544.184182 106.932965 
L 544.184182 106.932965 
" style="fill:none;stroke:#494b5a;stroke-linecap:square;stroke-width:1.5;"/>
   </g>
   <g id="line2d_22">
    <path clip-path="url(#p0cfdd7ad18)" d="M 100.827818 295.488 
L 103.318584 295.07595 
L 105.80935 286.100459 
L 108.300116 253.271343 
L 110.790883 217.779074 
L 113.281649 195.775797 
L 115.772415 192.793756 
L 118.263181 184.067641 
L 120.753947 186.940581 
L 123.244713 184.067641 
L 125.735479 170.206105 
L 128.226245 175.013989 
L 130.717011 173.516725 
L 133.207777 180.733786 
L 135.698543 189.913316 
L 138.189309 230.690187 
L 140.680076 242.091354 
L 145.661608 242.091354 
L 148.152374 234.429601 
L 150.64314 262.412407 
L 153.133906 250.580411 
L 155.624672 248.922571 
L 158.115438 254.77001 
L 160.606204 254.77001 
L 163.09697 247.407593 
L 165.587736 248.421627 
L 168.078503 263.68709 
L 170.569269 248.421627 
L 173.060035 255.93073 
L 175.550801 234.085454 
L 178.041567 220.571891 
L 180.532333 220.571891 
L 183.023099 214.095108 
L 185.513865 220.571891 
L 188.004631 195.669187 
L 190.495397 181.455128 
L 192.986163 173.377371 
L 195.47693 176.0393 
L 197.967696 170.745186 
L 200.458462 168.142086 
L 202.949228 170.745186 
L 205.439994 176.0393 
L 207.93076 170.745186 
L 215.403058 163.02062 
L 217.893824 155.54132 
L 220.38459 158.00813 
L 222.875356 158.00813 
L 225.366123 153.100074 
L 227.856889 155.54132 
L 230.347655 143.58047 
L 232.838421 143.58047 
L 235.329187 141.259484 
L 237.819953 153.034444 
L 240.310719 163.77491 
L 242.801485 172.164336 
L 245.292251 169.334534 
L 247.783017 175.275674 
L 250.273783 173.31282 
L 252.76455 170.389327 
L 255.255316 190.169914 
L 257.746082 219.137007 
L 260.236848 242.25143 
L 262.727614 224.168025 
L 265.21838 200.882106 
L 267.709146 183.094176 
L 270.199912 200.882106 
L 272.690678 182.353915 
L 275.181444 189.913316 
L 277.67221 190.777277 
L 280.162977 189.819728 
L 282.653743 168.142086 
L 285.144509 160.501043 
L 287.635275 160.501043 
L 290.126041 163.02062 
L 292.616807 163.02062 
L 295.107573 145.92455 
L 297.598339 163.02062 
L 300.089105 153.100074 
L 302.579871 150.683867 
L 305.070637 141.259484 
L 307.561403 141.259484 
L 310.05217 136.685007 
L 320.015234 136.685007 
L 322.506 125.622968 
L 324.996766 138.961142 
L 327.487532 155.54132 
L 329.978298 148.29219 
L 332.469064 145.92455 
L 334.95983 141.259484 
L 337.450597 138.961142 
L 339.941363 138.961142 
L 342.432129 150.683867 
L 344.922895 158.00813 
L 347.413661 150.683867 
L 349.904427 150.683867 
L 352.395193 132.197669 
L 354.885959 136.685007 
L 357.376725 145.92455 
L 359.867491 143.58047 
L 362.358257 145.92455 
L 364.849023 145.92455 
L 367.33979 138.961142 
L 369.830556 129.985651 
L 372.321322 136.685007 
L 374.812088 123.471554 
L 377.302854 125.622968 
L 379.79362 123.471554 
L 382.284386 115.057154 
L 384.775152 117.132746 
L 387.265918 115.057154 
L 389.756684 115.057154 
L 392.24745 117.132746 
L 394.738217 123.471554 
L 397.228983 132.197669 
L 399.719749 143.58047 
L 402.210515 136.685007 
L 404.701281 136.685007 
L 407.192047 129.985651 
L 412.173579 121.339611 
L 414.664345 121.339611 
L 417.155111 112.99969 
L 419.645877 112.99969 
L 422.136644 101.018558 
L 424.62741 91.479678 
L 427.118176 91.479678 
L 429.608942 85.936407 
L 432.099708 93.356805 
L 434.590474 93.356805 
L 437.08124 101.018558 
L 439.572006 97.156535 
L 442.062772 97.156535 
L 444.553538 101.018558 
L 447.044304 106.932965 
L 449.53507 104.944952 
L 452.025837 101.018558 
L 454.516603 104.944952 
L 457.007369 99.079633 
L 459.498135 99.079633 
L 461.988901 93.356805 
L 464.479667 93.356805 
L 466.970433 101.018558 
L 469.461199 99.079633 
L 471.951965 93.356805 
L 474.442731 97.156535 
L 476.933497 104.944952 
L 479.424264 104.944952 
L 481.91503 117.132746 
L 486.896562 129.985651 
L 489.387328 132.197669 
L 491.878094 132.197669 
L 494.36886 129.985651 
L 501.841158 136.685007 
L 504.331924 134.430654 
L 509.313457 121.339611 
L 511.804223 115.057154 
L 514.294989 115.057154 
L 516.785755 108.937897 
L 519.276521 104.944952 
L 524.258053 104.944952 
L 526.748819 102.973575 
L 529.239585 110.96004 
L 531.730351 108.937897 
L 534.221117 108.937897 
L 536.711884 119.226788 
L 539.20265 115.057154 
L 541.693416 108.937897 
L 544.184182 104.944952 
L 544.184182 104.944952 
" style="fill:none;stroke:#0086ed;stroke-linecap:square;stroke-width:1.5;"/>
   </g>
   <g id="line2d_23">
    <path clip-path="url(#p0cfdd7ad18)" d="M 100.827818 207.791638 
L 103.318584 201.652446 
L 105.80935 210.92229 
L 108.300116 192.733596 
L 110.790883 186.969929 
L 113.281649 184.140127 
L 115.772415 192.733596 
L 118.263181 192.675256 
L 120.753947 184.210459 
L 123.244713 186.998399 
L 125.735479 163.02062 
L 128.226245 162.648022 
L 133.207777 167.840037 
L 135.698543 181.343914 
L 138.189309 178.580502 
L 140.680076 178.580502 
L 143.170842 186.969929 
L 145.661608 204.702044 
L 148.152374 207.791638 
L 150.64314 214.095108 
L 153.133906 213.696161 
L 155.624672 207.496378 
L 158.115438 216.858331 
L 160.606204 216.858331 
L 163.09697 226.607784 
L 165.587736 220.063526 
L 168.078503 226.607784 
L 170.569269 213.696161 
L 173.060035 220.063526 
L 175.550801 207.496378 
L 178.041567 195.565821 
L 183.023099 189.819728 
L 185.513865 176.0393 
L 188.004631 160.501043 
L 190.495397 145.92455 
L 192.986163 123.471554 
L 195.47693 117.132746 
L 197.967696 101.018558 
L 200.458462 104.944952 
L 202.949228 101.018558 
L 205.439994 95.249009 
L 207.93076 87.769709 
L 210.421526 93.356805 
L 212.912292 97.156535 
L 215.403058 104.944952 
L 217.893824 102.973575 
L 220.38459 104.944952 
L 222.875356 102.973575 
L 225.366123 99.079633 
L 227.856889 102.973575 
L 232.838421 106.932965 
L 235.329187 95.249009 
L 240.310719 84.117262 
L 245.292251 87.769709 
L 247.783017 99.079633 
L 250.273783 99.079633 
L 255.255316 95.249009 
L 257.746082 91.479678 
L 260.236848 93.356805 
L 262.727614 99.079633 
L 265.21838 101.018558 
L 267.709146 99.079633 
L 270.199912 101.018558 
L 272.690678 91.479678 
L 275.181444 91.479678 
L 277.67221 89.617391 
L 280.162977 89.617391 
L 285.144509 85.936407 
L 287.635275 80.520579 
L 290.126041 80.520579 
L 292.616807 78.742622 
L 295.107573 71.762018 
L 297.598339 75.226465 
L 300.089105 70.048715 
L 302.579871 70.048715 
L 305.070637 68.347782 
L 307.561403 75.226465 
L 312.542936 78.742622 
L 315.033702 73.487873 
L 317.524468 76.977984 
L 320.015234 78.742622 
L 322.506 78.742622 
L 324.996766 99.079633 
L 327.487532 108.937897 
L 329.978298 106.932965 
L 332.469064 97.156535 
L 337.450597 97.156535 
L 339.941363 101.018558 
L 342.432129 97.156535 
L 344.922895 95.249009 
L 347.413661 91.479678 
L 349.904427 78.742622 
L 352.395193 73.487873 
L 354.885959 80.520579 
L 357.376725 82.312056 
L 362.358257 82.312056 
L 364.849023 80.520579 
L 367.33979 82.312056 
L 369.830556 87.769709 
L 372.321322 85.936407 
L 374.812088 78.742622 
L 377.302854 76.977984 
L 379.79362 71.762018 
L 384.775152 68.347782 
L 387.265918 70.048715 
L 389.756684 70.048715 
L 392.24745 68.347782 
L 394.738217 63.317453 
L 397.228983 71.762018 
L 399.719749 76.977984 
L 407.192047 76.977984 
L 409.682813 75.226465 
L 412.173579 75.226465 
L 419.645877 85.936407 
L 422.136644 80.520579 
L 424.62741 76.977984 
L 427.118176 75.226465 
L 429.608942 75.226465 
L 432.099708 82.312056 
L 434.590474 87.769709 
L 437.08124 85.936407 
L 439.572006 82.312056 
L 442.062772 80.520579 
L 447.044304 80.520579 
L 449.53507 82.312056 
L 452.025837 82.312056 
L 454.516603 87.769709 
L 457.007369 84.117262 
L 459.498135 84.117262 
L 461.988901 89.617391 
L 464.479667 89.617391 
L 466.970433 87.769709 
L 469.461199 91.479678 
L 471.951965 97.156535 
L 481.91503 89.617391 
L 484.405796 85.936407 
L 486.896562 85.936407 
L 489.387328 89.617391 
L 491.878094 91.479678 
L 494.36886 84.117262 
L 496.859626 80.520579 
L 499.350392 82.312056 
L 501.841158 85.936407 
L 504.331924 80.520579 
L 509.313457 84.117262 
L 511.804223 78.742622 
L 514.294989 78.742622 
L 516.785755 76.977984 
L 519.276521 76.977984 
L 521.767287 71.762018 
L 524.258053 71.762018 
L 526.748819 73.487873 
L 529.239585 82.312056 
L 531.730351 82.312056 
L 534.221117 80.520579 
L 536.711884 80.520579 
L 539.20265 76.977984 
L 544.184182 76.977984 
L 544.184182 76.977984 
" style="fill:none;stroke:#bc65e9;stroke-linecap:square;stroke-width:1.5;"/>
   </g>
   <g id="line2d_24">
    <path clip-path="url(#p0cfdd7ad18)" d="M 100.827818 217.135319 
L 103.318584 201.029966 
L 105.80935 178.34514 
L 108.300116 162.97817 
L 110.790883 161.812243 
L 113.281649 159.088765 
L 115.772415 170.176843 
L 120.753947 153.734486 
L 123.244713 159.088765 
L 125.735479 161.869617 
L 128.226245 168.142086 
L 130.717011 194.839848 
L 133.207777 232.8311 
L 135.698543 225.691822 
L 138.189309 232.8311 
L 140.680076 236.483548 
L 143.170842 232.8311 
L 145.661608 243.962847 
L 148.152374 240.193516 
L 150.64314 267.940626 
L 153.133906 259.673878 
L 155.624672 232.018888 
L 158.115438 220.063526 
L 163.09697 220.063526 
L 165.587736 221.09713 
L 168.078503 249.471613 
L 170.569269 242.051215 
L 173.060035 249.471613 
L 175.550801 221.09713 
L 178.041567 211.279954 
L 180.532333 217.779074 
L 183.023099 217.779074 
L 185.513865 245.732198 
L 188.004631 227.876826 
L 190.495397 220.063526 
L 192.986163 198.492296 
L 195.47693 189.819728 
L 197.967696 176.0393 
L 200.458462 178.731651 
L 202.949228 184.210459 
L 205.439994 178.731651 
L 207.93076 160.501043 
L 210.421526 143.58047 
L 212.912292 141.259484 
L 217.893824 127.79421 
L 220.38459 129.985651 
L 222.875356 136.685007 
L 225.366123 127.79421 
L 227.856889 125.622968 
L 230.347655 115.057154 
L 232.838421 125.622968 
L 235.329187 125.622968 
L 237.819953 136.685007 
L 240.310719 141.259484 
L 242.801485 155.54132 
L 245.292251 160.501043 
L 247.783017 181.455128 
L 250.273783 191.748465 
L 252.76455 207.791638 
L 255.255316 234.085454 
L 257.746082 223.878306 
L 260.236848 220.571891 
L 262.727614 198.641822 
L 265.21838 186.969929 
L 267.709146 170.479596 
L 270.199912 184.140127 
L 272.690678 155.068447 
L 275.181444 156.208156 
L 277.67221 150.683867 
L 282.653743 150.683867 
L 285.144509 158.00813 
L 287.635275 173.377371 
L 290.126041 178.731651 
L 292.616807 178.731651 
L 295.107573 163.02062 
L 297.598339 173.377371 
L 300.089105 160.501043 
L 302.579871 158.00813 
L 305.070637 148.29219 
L 307.561403 153.100074 
L 310.05217 148.29219 
L 315.033702 143.58047 
L 317.524468 143.58047 
L 320.015234 148.29219 
L 322.506 143.58047 
L 324.996766 160.501043 
L 327.487532 178.731651 
L 329.978298 181.455128 
L 334.95983 165.567436 
L 339.941363 165.567436 
L 342.432129 173.377371 
L 344.922895 173.377371 
L 347.413661 168.142086 
L 349.904427 165.567436 
L 352.395193 145.92455 
L 354.885959 141.259484 
L 357.376725 150.683867 
L 359.867491 165.567436 
L 362.358257 160.501043 
L 364.849023 158.00813 
L 367.33979 148.29219 
L 369.830556 136.685007 
L 372.321322 143.58047 
L 374.812088 134.430654 
L 377.302854 138.961142 
L 379.79362 134.430654 
L 382.284386 125.622968 
L 384.775152 115.057154 
L 387.265918 110.96004 
L 389.756684 115.057154 
L 392.24745 112.99969 
L 394.738217 123.471554 
L 397.228983 127.79421 
L 399.719749 129.985651 
L 402.210515 121.339611 
L 404.701281 125.622968 
L 407.192047 119.226788 
L 409.682813 119.226788 
L 414.664345 115.057154 
L 417.155111 125.622968 
L 422.136644 117.132746 
L 424.62741 119.226788 
L 427.118176 119.226788 
L 429.608942 112.99969 
L 432.099708 112.99969 
L 434.590474 110.96004 
L 437.08124 115.057154 
L 439.572006 115.057154 
L 442.062772 106.932965 
L 444.553538 108.937897 
L 449.53507 101.018558 
L 452.025837 95.249009 
L 459.498135 95.249009 
L 461.988901 93.356805 
L 466.970433 97.156535 
L 469.461199 102.973575 
L 471.951965 104.944952 
L 474.442731 102.973575 
L 476.933497 106.932965 
L 479.424264 112.99969 
L 481.91503 123.471554 
L 484.405796 134.430654 
L 486.896562 134.430654 
L 489.387328 132.197669 
L 491.878094 136.685007 
L 494.36886 123.471554 
L 496.859626 121.339611 
L 499.350392 123.471554 
L 501.841158 129.985651 
L 504.331924 123.471554 
L 506.822691 119.226788 
L 509.313457 112.99969 
L 514.294989 108.937897 
L 516.785755 101.018558 
L 519.276521 106.932965 
L 521.767287 102.973575 
L 524.258053 104.944952 
L 526.748819 104.944952 
L 529.239585 112.99969 
L 534.221117 108.937897 
L 536.711884 121.339611 
L 539.20265 121.339611 
L 541.693416 119.226788 
L 544.184182 115.057154 
L 544.184182 115.057154 
" style="fill:none;stroke:#00c2a0;stroke-linecap:square;stroke-width:1.5;"/>
   </g>
   <g id="line2d_25">
    <path clip-path="url(#p0cfdd7ad18)" d="M 100.827818 82.312056 
L 103.318584 85.936407 
L 105.80935 91.479678 
L 108.300116 91.479678 
L 110.790883 85.936407 
L 113.281649 82.312056 
L 115.772415 84.117262 
L 118.263181 82.312056 
L 120.753947 78.742622 
L 123.244713 73.487873 
L 125.735479 71.762018 
L 128.226245 68.347782 
L 130.717011 61.664266 
L 133.207777 58.392295 
L 135.698543 56.773194 
L 138.189309 56.773194 
L 143.170842 53.568 
L 145.661608 55.165146 
L 148.152374 55.165146 
L 150.64314 60.0226 
L 153.133906 60.0226 
L 155.624672 66.659043 
L 158.115438 66.659043 
L 160.606204 68.347782 
L 163.09697 66.659043 
L 165.587736 68.347782 
L 168.078503 68.347782 
L 170.569269 66.659043 
L 173.060035 68.347782 
L 175.550801 66.659043 
L 178.041567 66.659043 
L 180.532333 60.0226 
L 183.023099 60.0226 
L 188.004631 63.317453 
L 190.495397 63.317453 
L 192.986163 64.982323 
L 195.47693 68.347782 
L 197.967696 70.048715 
L 200.458462 70.048715 
L 202.949228 71.762018 
L 205.439994 75.226465 
L 207.93076 75.226465 
L 212.912292 78.742622 
L 215.403058 76.977984 
L 220.38459 76.977984 
L 222.875356 75.226465 
L 227.856889 78.742622 
L 230.347655 76.977984 
L 232.838421 80.520579 
L 235.329187 80.520579 
L 237.819953 87.769709 
L 240.310719 104.944952 
L 242.801485 110.96004 
L 245.292251 112.99969 
L 247.783017 119.226788 
L 250.273783 117.132746 
L 252.76455 132.197669 
L 255.255316 150.683867 
L 257.746082 158.00813 
L 260.236848 158.00813 
L 262.727614 145.92455 
L 265.21838 127.79421 
L 267.709146 121.339611 
L 270.199912 117.132746 
L 272.690678 110.96004 
L 275.181444 110.96004 
L 277.67221 99.079633 
L 280.162977 85.936407 
L 282.653743 76.977984 
L 292.616807 70.048715 
L 295.107573 70.048715 
L 297.598339 71.762018 
L 300.089105 68.347782 
L 302.579871 63.317453 
L 310.05217 63.317453 
L 312.542936 64.982323 
L 315.033702 64.982323 
L 317.524468 68.347782 
L 322.506 68.347782 
L 324.996766 69.024921 
L 327.487532 76.177748 
L 329.978298 72.574188 
L 334.95983 69.024921 
L 337.450597 69.024921 
L 339.941363 72.574188 
L 342.432129 72.574188 
L 344.922895 74.369078 
L 347.413661 72.574188 
L 349.904427 75.226465 
L 352.395193 70.048715 
L 354.885959 73.487873 
L 357.376725 73.487873 
L 359.867491 76.977984 
L 362.358257 78.742622 
L 364.849023 78.742622 
L 367.33979 75.226465 
L 374.812088 70.048715 
L 377.302854 71.762018 
L 379.79362 70.048715 
L 382.284386 70.048715 
L 384.775152 64.982323 
L 387.265918 68.347782 
L 389.756684 68.347782 
L 392.24745 70.048715 
L 394.738217 70.048715 
L 397.228983 73.487873 
L 402.210515 70.048715 
L 404.701281 71.762018 
L 409.682813 71.762018 
L 412.173579 64.982323 
L 414.664345 61.664266 
L 417.155111 61.664266 
L 422.136644 58.392295 
L 424.62741 60.0226 
L 427.118176 58.392295 
L 429.608942 55.165146 
L 432.099708 58.392295 
L 434.590474 63.317453 
L 439.572006 66.659043 
L 442.062772 66.659043 
L 444.553538 68.347782 
L 449.53507 64.982323 
L 452.025837 66.659043 
L 454.516603 66.659043 
L 457.007369 64.982323 
L 459.498135 61.664266 
L 461.988901 61.664266 
L 466.970433 58.392295 
L 476.933497 58.392295 
L 479.424264 61.664266 
L 481.91503 61.664266 
L 484.405796 60.0226 
L 486.896562 61.664266 
L 489.387328 64.982323 
L 491.878094 64.982323 
L 494.36886 63.317453 
L 496.859626 68.347782 
L 499.350392 71.762018 
L 501.841158 73.487873 
L 506.822691 73.487873 
L 509.313457 76.977984 
L 511.804223 75.226465 
L 519.276521 75.226465 
L 526.748819 64.982323 
L 529.239585 66.659043 
L 534.221117 63.317453 
L 536.711884 64.982323 
L 539.20265 61.664266 
L 544.184182 61.664266 
L 544.184182 61.664266 
" style="fill:none;stroke:#006c31;stroke-linecap:square;stroke-width:1.5;"/>
   </g>
   <g id="patch_3">
    <path d="M 78.66 307.584 
L 78.66 41.472 
" style="fill:none;stroke:#000000;stroke-linecap:square;stroke-linejoin:miter;stroke-width:0.8;"/>
   </g>
   <g id="patch_4">
    <path d="M 566.352 307.584 
L 566.352 41.472 
" style="fill:none;stroke:#000000;stroke-linecap:square;stroke-linejoin:miter;stroke-width:0.8;"/>
   </g>
   <g id="patch_5">
    <path d="M 78.66 307.584 
L 566.352 307.584 
" style="fill:none;stroke:#000000;stroke-linecap:square;stroke-linejoin:miter;stroke-width:0.8;"/>
   </g>
   <g id="patch_6">
    <path d="M 78.66 41.472 
L 566.352 41.472 
" style="fill:none;stroke:#000000;stroke-linecap:square;stroke-linejoin:miter;stroke-width:0.8;"/>
   </g>
   <g id="text_20">
    <!-- SimPlot++  query: SARS-CoV-2 -->
    <g transform="translate(229.430062 35.472)scale(0.12 -0.12)">
     <defs>
      <path d="M 46 62.703125 
L 46 35.5 
L 73.1875 35.5 
L 73.1875 27.203125 
L 46 27.203125 
L 46 0 
L 37.796875 0 
L 37.796875 27.203125 
L 10.59375 27.203125 
L 10.59375 35.5 
L 37.796875 35.5 
L 37.796875 62.703125 
z
" id="DejaVuSans-43"/>
      <path id="DejaVuSans-32"/>
      <path d="M 14.796875 27.296875 
Q 14.796875 17.390625 18.875 11.75 
Q 22.953125 6.109375 30.078125 6.109375 
Q 37.203125 6.109375 41.296875 11.75 
Q 45.40625 17.390625 45.40625 27.296875 
Q 45.40625 37.203125 41.296875 42.84375 
Q 37.203125 48.484375 30.078125 48.484375 
Q 22.953125 48.484375 18.875 42.84375 
Q 14.796875 37.203125 14.796875 27.296875 
z
M 45.40625 8.203125 
Q 42.578125 3.328125 38.25 0.953125 
Q 33.9375 -1.421875 27.875 -1.421875 
Q 17.96875 -1.421875 11.734375 6.484375 
Q 5.515625 14.40625 5.515625 27.296875 
Q 5.515625 40.1875 11.734375 48.09375 
Q 17.96875 56 27.875 56 
Q 33.9375 56 38.25 53.625 
Q 42.578125 51.265625 45.40625 46.390625 
L 45.40625 54.6875 
L 54.390625 54.6875 
L 54.390625 -20.796875 
L 45.40625 -20.796875 
z
" id="DejaVuSans-113"/>
      <path d="M 8.5 21.578125 
L 8.5 54.6875 
L 17.484375 54.6875 
L 17.484375 21.921875 
Q 17.484375 14.15625 20.5 10.265625 
Q 23.53125 6.390625 29.59375 6.390625 
Q 36.859375 6.390625 41.078125 11.03125 
Q 45.3125 15.671875 45.3125 23.6875 
L 45.3125 54.6875 
L 54.296875 54.6875 
L 54.296875 0 
L 45.3125 0 
L 45.3125 8.40625 
Q 42.046875 3.421875 37.71875 1 
Q 33.40625 -1.421875 27.6875 -1.421875 
Q 18.265625 -1.421875 13.375 4.4375 
Q 8.5 10.296875 8.5 21.578125 
z
M 31.109375 56 
z
" id="DejaVuSans-117"/>
      <path d="M 56.203125 29.59375 
L 56.203125 25.203125 
L 14.890625 25.203125 
Q 15.484375 15.921875 20.484375 11.0625 
Q 25.484375 6.203125 34.421875 6.203125 
Q 39.59375 6.203125 44.453125 7.46875 
Q 49.3125 8.734375 54.109375 11.28125 
L 54.109375 2.78125 
Q 49.265625 0.734375 44.1875 -0.34375 
Q 39.109375 -1.421875 33.890625 -1.421875 
Q 20.796875 -1.421875 13.15625 6.1875 
Q 5.515625 13.8125 5.515625 26.8125 
Q 5.515625 40.234375 12.765625 48.109375 
Q 20.015625 56 32.328125 56 
Q 43.359375 56 49.78125 48.890625 
Q 56.203125 41.796875 56.203125 29.59375 
z
M 47.21875 32.234375 
Q 47.125 39.59375 43.09375 43.984375 
Q 39.0625 48.390625 32.421875 48.390625 
Q 24.90625 48.390625 20.390625 44.140625 
Q 15.875 39.890625 15.1875 32.171875 
z
" id="DejaVuSans-101"/>
      <path d="M 11.71875 12.40625 
L 22.015625 12.40625 
L 22.015625 0 
L 11.71875 0 
z
M 11.71875 51.703125 
L 22.015625 51.703125 
L 22.015625 39.3125 
L 11.71875 39.3125 
z
" id="DejaVuSans-58"/>
      <path d="M 34.1875 63.1875 
L 20.796875 26.90625 
L 47.609375 26.90625 
z
M 28.609375 72.90625 
L 39.796875 72.90625 
L 67.578125 0 
L 57.328125 0 
L 50.6875 18.703125 
L 17.828125 18.703125 
L 11.1875 0 
L 0.78125 0 
z
" id="DejaVuSans-65"/>
      <path d="M 44.390625 34.1875 
Q 47.5625 33.109375 50.5625 29.59375 
Q 53.5625 26.078125 56.59375 19.921875 
L 66.609375 0 
L 56 0 
L 46.6875 18.703125 
Q 43.0625 26.03125 39.671875 28.421875 
Q 36.28125 30.8125 30.421875 30.8125 
L 19.671875 30.8125 
L 19.671875 0 
L 9.8125 0 
L 9.8125 72.90625 
L 32.078125 72.90625 
Q 44.578125 72.90625 50.734375 67.671875 
Q 56.890625 62.453125 56.890625 51.90625 
Q 56.890625 45.015625 53.6875 40.46875 
Q 50.484375 35.9375 44.390625 34.1875 
z
M 19.671875 64.796875 
L 19.671875 38.921875 
L 32.078125 38.921875 
Q 39.203125 38.921875 42.84375 42.21875 
Q 46.484375 45.515625 46.484375 51.90625 
Q 46.484375 58.296875 42.84375 61.546875 
Q 39.203125 64.796875 32.078125 64.796875 
z
" id="DejaVuSans-82"/>
      <path d="M 4.890625 31.390625 
L 31.203125 31.390625 
L 31.203125 23.390625 
L 4.890625 23.390625 
z
" id="DejaVuSans-45"/>
      <path d="M 64.40625 67.28125 
L 64.40625 56.890625 
Q 59.421875 61.53125 53.78125 63.8125 
Q 48.140625 66.109375 41.796875 66.109375 
Q 29.296875 66.109375 22.65625 58.46875 
Q 16.015625 50.828125 16.015625 36.375 
Q 16.015625 21.96875 22.65625 14.328125 
Q 29.296875 6.6875 41.796875 6.6875 
Q 48.140625 6.6875 53.78125 8.984375 
Q 59.421875 11.28125 64.40625 15.921875 
L 64.40625 5.609375 
Q 59.234375 2.09375 53.4375 0.328125 
Q 47.65625 -1.421875 41.21875 -1.421875 
Q 24.65625 -1.421875 15.125 8.703125 
Q 5.609375 18.84375 5.609375 36.375 
Q 5.609375 53.953125 15.125 64.078125 
Q 24.65625 74.21875 41.21875 74.21875 
Q 47.75 74.21875 53.53125 72.484375 
Q 59.328125 70.75 64.40625 67.28125 
z
" id="DejaVuSans-67"/>
      <path d="M 28.609375 0 
L 0.78125 72.90625 
L 11.078125 72.90625 
L 34.1875 11.53125 
L 57.328125 72.90625 
L 67.578125 72.90625 
L 39.796875 0 
z
" id="DejaVuSans-86"/>
     </defs>
     <use xlink:href="#DejaVuSans-83"/>
     <use x="63.476562" xlink:href="#DejaVuSans-105"/>
     <use x="91.259766" xlink:href="#DejaVuSans-109"/>
     <use x="188.671875" xlink:href="#DejaVuSans-80"/>
     <use x="248.974609" xlink:href="#DejaVuSans-108"/>
     <use x="276.757812" xlink:href="#DejaVuSans-111"/>
     <use x="337.939453" xlink:href="#DejaVuSans-116"/>
     <use x="377.148438" xlink:href="#DejaVuSans-43"/>
     <use x="460.9375" xlink:href="#DejaVuSans-43"/>
     <use x="544.726562" xlink:href="#DejaVuSans-32"/>
     <use x="576.513672" xlink:href="#DejaVuSans-32"/>
     <use x="608.300781" xlink:href="#DejaVuSans-113"/>
     <use x="671.777344" xlink:href="#DejaVuSans-117"/>
     <use x="735.15625" xlink:href="#DejaVuSans-101"/>
     <use x="796.679688" xlink:href="#DejaVuSans-114"/>
     <use x="837.792969" xlink:href="#DejaVuSans-121"/>
     <use x="889.722656" xlink:href="#DejaVuSans-58"/>
     <use x="923.414062" xlink:href="#DejaVuSans-32"/>
     <use x="955.201172" xlink:href="#DejaVuSans-83"/>
     <use x="1020.552734" xlink:href="#DejaVuSans-65"/>
     <use x="1088.960938" xlink:href="#DejaVuSans-82"/>
     <use x="1158.443359" xlink:href="#DejaVuSans-83"/>
     <use x="1221.919922" xlink:href="#DejaVuSans-45"/>
     <use x="1258.003906" xlink:href="#DejaVuSans-67"/>
     <use x="1327.828125" xlink:href="#DejaVuSans-111"/>
     <use x="1389.009766" xlink:href="#DejaVuSans-86"/>
     <use x="1451.542969" xlink:href="#DejaVuSans-45"/>
     <use x="1487.626953" xlink:href="#DejaVuSans-50"/>
    </g>
   </g>
   <g id="legend_1">
    <g id="patch_7">
     <path d="M 382.527 302.584 
L 559.352 302.584 
Q 561.352 302.584 561.352 300.584 
L 561.352 184.159 
Q 561.352 182.159 559.352 182.159 
L 382.527 182.159 
Q 380.527 182.159 380.527 184.159 
L 380.527 300.584 
Q 380.527 302.584 382.527 302.584 
z
" style="fill:#ffffff;opacity:0.8;stroke:#cccccc;stroke-linejoin:miter;"/>
    </g>
    <g id="line2d_26">
     <path d="M 384.527 190.257437 
L 404.527 190.257437 
" style="fill:none;stroke:#5b113c;stroke-linecap:square;stroke-width:1.5;"/>
    </g>
    <g id="line2d_27"/>
    <g id="text_21">
     <!-- Guangxi Pangolin CoV -->
     <g transform="translate(412.527 193.757437)scale(0.1 -0.1)">
      <defs>
       <path d="M 59.515625 10.40625 
L 59.515625 29.984375 
L 43.40625 29.984375 
L 43.40625 38.09375 
L 69.28125 38.09375 
L 69.28125 6.78125 
Q 63.578125 2.734375 56.6875 0.65625 
Q 49.8125 -1.421875 42 -1.421875 
Q 24.90625 -1.421875 15.25 8.5625 
Q 5.609375 18.5625 5.609375 36.375 
Q 5.609375 54.25 15.25 64.234375 
Q 24.90625 74.21875 42 74.21875 
Q 49.125 74.21875 55.546875 72.453125 
Q 61.96875 70.703125 67.390625 67.28125 
L 67.390625 56.78125 
Q 61.921875 61.421875 55.765625 63.765625 
Q 49.609375 66.109375 42.828125 66.109375 
Q 29.4375 66.109375 22.71875 58.640625 
Q 16.015625 51.171875 16.015625 36.375 
Q 16.015625 21.625 22.71875 14.15625 
Q 29.4375 6.6875 42.828125 6.6875 
Q 48.046875 6.6875 52.140625 7.59375 
Q 56.25 8.5 59.515625 10.40625 
z
" id="DejaVuSans-71"/>
       <path d="M 45.40625 27.984375 
Q 45.40625 37.75 41.375 43.109375 
Q 37.359375 48.484375 30.078125 48.484375 
Q 22.859375 48.484375 18.828125 43.109375 
Q 14.796875 37.75 14.796875 27.984375 
Q 14.796875 18.265625 18.828125 12.890625 
Q 22.859375 7.515625 30.078125 7.515625 
Q 37.359375 7.515625 41.375 12.890625 
Q 45.40625 18.265625 45.40625 27.984375 
z
M 54.390625 6.78125 
Q 54.390625 -7.171875 48.1875 -13.984375 
Q 42 -20.796875 29.203125 -20.796875 
Q 24.46875 -20.796875 20.265625 -20.09375 
Q 16.0625 -19.390625 12.109375 -17.921875 
L 12.109375 -9.1875 
Q 16.0625 -11.328125 19.921875 -12.34375 
Q 23.78125 -13.375 27.78125 -13.375 
Q 36.625 -13.375 41.015625 -8.765625 
Q 45.40625 -4.15625 45.40625 5.171875 
L 45.40625 9.625 
Q 42.625 4.78125 38.28125 2.390625 
Q 33.9375 0 27.875 0 
Q 17.828125 0 11.671875 7.65625 
Q 5.515625 15.328125 5.515625 27.984375 
Q 5.515625 40.671875 11.671875 48.328125 
Q 17.828125 56 27.875 56 
Q 33.9375 56 38.28125 53.609375 
Q 42.625 51.21875 45.40625 46.390625 
L 45.40625 54.6875 
L 54.390625 54.6875 
z
" id="DejaVuSans-103"/>
       <path d="M 54.890625 54.6875 
L 35.109375 28.078125 
L 55.90625 0 
L 45.3125 0 
L 29.390625 21.484375 
L 13.484375 0 
L 2.875 0 
L 24.125 28.609375 
L 4.6875 54.6875 
L 15.28125 54.6875 
L 29.78125 35.203125 
L 44.28125 54.6875 
z
" id="DejaVuSans-120"/>
      </defs>
      <use xlink:href="#DejaVuSans-71"/>
      <use x="77.490234" xlink:href="#DejaVuSans-117"/>
      <use x="140.869141" xlink:href="#DejaVuSans-97"/>
      <use x="202.148438" xlink:href="#DejaVuSans-110"/>
      <use x="265.527344" xlink:href="#DejaVuSans-103"/>
      <use x="329.003906" xlink:href="#DejaVuSans-120"/>
      <use x="388.183594" xlink:href="#DejaVuSans-105"/>
      <use x="415.966797" xlink:href="#DejaVuSans-32"/>
      <use x="447.753906" xlink:href="#DejaVuSans-80"/>
      <use x="503.556641" xlink:href="#DejaVuSans-97"/>
      <use x="564.835938" xlink:href="#DejaVuSans-110"/>
      <use x="628.214844" xlink:href="#DejaVuSans-103"/>
      <use x="691.691406" xlink:href="#DejaVuSans-111"/>
      <use x="752.873047" xlink:href="#DejaVuSans-108"/>
      <use x="780.65625" xlink:href="#DejaVuSans-105"/>
      <use x="808.439453" xlink:href="#DejaVuSans-110"/>
      <use x="871.818359" xlink:href="#DejaVuSans-32"/>
      <use x="903.605469" xlink:href="#DejaVuSans-67"/>
      <use x="973.429688" xlink:href="#DejaVuSans-111"/>
      <use x="1034.611328" xlink:href="#DejaVuSans-86"/>
     </g>
    </g>
    <g id="line2d_28">
     <path d="M 384.527 204.935563 
L 404.527 204.935563 
" style="fill:none;stroke:#ff34ff;stroke-linecap:square;stroke-width:1.5;"/>
    </g>
    <g id="line2d_29"/>
    <g id="text_22">
     <!-- Bat CoV (ZXC21, ZC45) -->
     <g transform="translate(412.527 208.435563)scale(0.1 -0.1)">
      <defs>
       <path d="M 19.671875 34.8125 
L 19.671875 8.109375 
L 35.5 8.109375 
Q 43.453125 8.109375 47.28125 11.40625 
Q 51.125 14.703125 51.125 21.484375 
Q 51.125 28.328125 47.28125 31.5625 
Q 43.453125 34.8125 35.5 34.8125 
z
M 19.671875 64.796875 
L 19.671875 42.828125 
L 34.28125 42.828125 
Q 41.5 42.828125 45.03125 45.53125 
Q 48.578125 48.25 48.578125 53.8125 
Q 48.578125 59.328125 45.03125 62.0625 
Q 41.5 64.796875 34.28125 64.796875 
z
M 9.8125 72.90625 
L 35.015625 72.90625 
Q 46.296875 72.90625 52.390625 68.21875 
Q 58.5 63.53125 58.5 54.890625 
Q 58.5 48.1875 55.375 44.234375 
Q 52.25 40.28125 46.1875 39.3125 
Q 53.46875 37.75 57.5 32.78125 
Q 61.53125 27.828125 61.53125 20.40625 
Q 61.53125 10.640625 54.890625 5.3125 
Q 48.25 0 35.984375 0 
L 9.8125 0 
z
" id="DejaVuSans-66"/>
       <path d="M 31 75.875 
Q 24.46875 64.65625 21.28125 53.65625 
Q 18.109375 42.671875 18.109375 31.390625 
Q 18.109375 20.125 21.3125 9.0625 
Q 24.515625 -2 31 -13.1875 
L 23.1875 -13.1875 
Q 15.875 -1.703125 12.234375 9.375 
Q 8.59375 20.453125 8.59375 31.390625 
Q 8.59375 42.28125 12.203125 53.3125 
Q 15.828125 64.359375 23.1875 75.875 
z
" id="DejaVuSans-40"/>
       <path d="M 5.609375 72.90625 
L 62.890625 72.90625 
L 62.890625 65.375 
L 16.796875 8.296875 
L 64.015625 8.296875 
L 64.015625 0 
L 4.5 0 
L 4.5 7.515625 
L 50.59375 64.59375 
L 5.609375 64.59375 
z
" id="DejaVuSans-90"/>
       <path d="M 6.296875 72.90625 
L 16.890625 72.90625 
L 35.015625 45.796875 
L 53.21875 72.90625 
L 63.8125 72.90625 
L 40.375 37.890625 
L 65.375 0 
L 54.78125 0 
L 34.28125 31 
L 13.625 0 
L 2.984375 0 
L 29 38.921875 
z
" id="DejaVuSans-88"/>
       <path d="M 11.71875 12.40625 
L 22.015625 12.40625 
L 22.015625 4 
L 14.015625 -11.625 
L 7.71875 -11.625 
L 11.71875 4 
z
" id="DejaVuSans-44"/>
       <path d="M 8.015625 75.875 
L 15.828125 75.875 
Q 23.140625 64.359375 26.78125 53.3125 
Q 30.421875 42.28125 30.421875 31.390625 
Q 30.421875 20.453125 26.78125 9.375 
Q 23.140625 -1.703125 15.828125 -13.1875 
L 8.015625 -13.1875 
Q 14.5 -2 17.703125 9.0625 
Q 20.90625 20.125 20.90625 31.390625 
Q 20.90625 42.671875 17.703125 53.65625 
Q 14.5 64.65625 8.015625 75.875 
z
" id="DejaVuSans-41"/>
      </defs>
      <use xlink:href="#DejaVuSans-66"/>
      <use x="68.603516" xlink:href="#DejaVuSans-97"/>
      <use x="129.882812" xlink:href="#DejaVuSans-116"/>
      <use x="169.091797" xlink:href="#DejaVuSans-32"/>
      <use x="200.878906" xlink:href="#DejaVuSans-67"/>
      <use x="270.703125" xlink:href="#DejaVuSans-111"/>
      <use x="331.884766" xlink:href="#DejaVuSans-86"/>
      <use x="400.292969" xlink:href="#DejaVuSans-32"/>
      <use x="432.080078" xlink:href="#DejaVuSans-40"/>
      <use x="471.09375" xlink:href="#DejaVuSans-90"/>
      <use x="539.599609" xlink:href="#DejaVuSans-88"/>
      <use x="600.855469" xlink:href="#DejaVuSans-67"/>
      <use x="670.679688" xlink:href="#DejaVuSans-50"/>
      <use x="734.302734" xlink:href="#DejaVuSans-49"/>
      <use x="797.925781" xlink:href="#DejaVuSans-44"/>
      <use x="829.712891" xlink:href="#DejaVuSans-32"/>
      <use x="861.5" xlink:href="#DejaVuSans-90"/>
      <use x="930.005859" xlink:href="#DejaVuSans-67"/>
      <use x="999.830078" xlink:href="#DejaVuSans-52"/>
      <use x="1063.453125" xlink:href="#DejaVuSans-53"/>
      <use x="1127.076172" xlink:href="#DejaVuSans-41"/>
     </g>
    </g>
    <g id="line2d_30">
     <path d="M 384.527 219.613687 
L 404.527 219.613687 
" style="fill:none;stroke:#0000a6;stroke-linecap:square;stroke-width:1.5;"/>
    </g>
    <g id="line2d_31"/>
    <g id="text_23">
     <!-- Bat CoV from kenya/BGR -->
     <g transform="translate(412.527 223.113687)scale(0.1 -0.1)">
      <defs>
       <path d="M 37.109375 75.984375 
L 37.109375 68.5 
L 28.515625 68.5 
Q 23.6875 68.5 21.796875 66.546875 
Q 19.921875 64.59375 19.921875 59.515625 
L 19.921875 54.6875 
L 34.71875 54.6875 
L 34.71875 47.703125 
L 19.921875 47.703125 
L 19.921875 0 
L 10.890625 0 
L 10.890625 47.703125 
L 2.296875 47.703125 
L 2.296875 54.6875 
L 10.890625 54.6875 
L 10.890625 58.5 
Q 10.890625 67.625 15.140625 71.796875 
Q 19.390625 75.984375 28.609375 75.984375 
z
" id="DejaVuSans-102"/>
       <path d="M 9.078125 75.984375 
L 18.109375 75.984375 
L 18.109375 31.109375 
L 44.921875 54.6875 
L 56.390625 54.6875 
L 27.390625 29.109375 
L 57.625 0 
L 45.90625 0 
L 18.109375 26.703125 
L 18.109375 0 
L 9.078125 0 
z
" id="DejaVuSans-107"/>
       <path d="M 25.390625 72.90625 
L 33.6875 72.90625 
L 8.296875 -9.28125 
L 0 -9.28125 
z
" id="DejaVuSans-47"/>
      </defs>
      <use xlink:href="#DejaVuSans-66"/>
      <use x="68.603516" xlink:href="#DejaVuSans-97"/>
      <use x="129.882812" xlink:href="#DejaVuSans-116"/>
      <use x="169.091797" xlink:href="#DejaVuSans-32"/>
      <use x="200.878906" xlink:href="#DejaVuSans-67"/>
      <use x="270.703125" xlink:href="#DejaVuSans-111"/>
      <use x="331.884766" xlink:href="#DejaVuSans-86"/>
      <use x="400.292969" xlink:href="#DejaVuSans-32"/>
      <use x="432.080078" xlink:href="#DejaVuSans-102"/>
      <use x="467.285156" xlink:href="#DejaVuSans-114"/>
      <use x="506.148438" xlink:href="#DejaVuSans-111"/>
      <use x="567.330078" xlink:href="#DejaVuSans-109"/>
      <use x="664.742188" xlink:href="#DejaVuSans-32"/>
      <use x="696.529297" xlink:href="#DejaVuSans-107"/>
      <use x="750.814453" xlink:href="#DejaVuSans-101"/>
      <use x="812.337891" xlink:href="#DejaVuSans-110"/>
      <use x="875.716797" xlink:href="#DejaVuSans-121"/>
      <use x="934.896484" xlink:href="#DejaVuSans-97"/>
      <use x="996.175781" xlink:href="#DejaVuSans-47"/>
      <use x="1029.867188" xlink:href="#DejaVuSans-66"/>
      <use x="1096.720703" xlink:href="#DejaVuSans-71"/>
      <use x="1174.210938" xlink:href="#DejaVuSans-82"/>
     </g>
    </g>
    <g id="line2d_32">
     <path d="M 384.527 234.291812 
L 404.527 234.291812 
" style="fill:none;stroke:#494b5a;stroke-linecap:square;stroke-width:1.5;"/>
    </g>
    <g id="line2d_33"/>
    <g id="text_24">
     <!-- Bas SL CoV (BTCoV, RS3367) -->
     <g transform="translate(412.527 237.791812)scale(0.1 -0.1)">
      <defs>
       <path d="M 9.8125 72.90625 
L 19.671875 72.90625 
L 19.671875 8.296875 
L 55.171875 8.296875 
L 55.171875 0 
L 9.8125 0 
z
" id="DejaVuSans-76"/>
       <path d="M -0.296875 72.90625 
L 61.375 72.90625 
L 61.375 64.59375 
L 35.5 64.59375 
L 35.5 0 
L 25.59375 0 
L 25.59375 64.59375 
L -0.296875 64.59375 
z
" id="DejaVuSans-84"/>
      </defs>
      <use xlink:href="#DejaVuSans-66"/>
      <use x="68.603516" xlink:href="#DejaVuSans-97"/>
      <use x="129.882812" xlink:href="#DejaVuSans-115"/>
      <use x="181.982422" xlink:href="#DejaVuSans-32"/>
      <use x="213.769531" xlink:href="#DejaVuSans-83"/>
      <use x="277.246094" xlink:href="#DejaVuSans-76"/>
      <use x="332.958984" xlink:href="#DejaVuSans-32"/>
      <use x="364.746094" xlink:href="#DejaVuSans-67"/>
      <use x="434.570312" xlink:href="#DejaVuSans-111"/>
      <use x="495.751953" xlink:href="#DejaVuSans-86"/>
      <use x="564.160156" xlink:href="#DejaVuSans-32"/>
      <use x="595.947266" xlink:href="#DejaVuSans-40"/>
      <use x="634.960938" xlink:href="#DejaVuSans-66"/>
      <use x="703.564453" xlink:href="#DejaVuSans-84"/>
      <use x="758.773438" xlink:href="#DejaVuSans-67"/>
      <use x="828.597656" xlink:href="#DejaVuSans-111"/>
      <use x="889.779297" xlink:href="#DejaVuSans-86"/>
      <use x="958.1875" xlink:href="#DejaVuSans-44"/>
      <use x="989.974609" xlink:href="#DejaVuSans-32"/>
      <use x="1021.761719" xlink:href="#DejaVuSans-82"/>
      <use x="1091.244141" xlink:href="#DejaVuSans-83"/>
      <use x="1154.720703" xlink:href="#DejaVuSans-51"/>
      <use x="1218.34375" xlink:href="#DejaVuSans-51"/>
      <use x="1281.966797" xlink:href="#DejaVuSans-54"/>
      <use x="1345.589844" xlink:href="#DejaVuSans-55"/>
      <use x="1409.212891" xlink:href="#DejaVuSans-41"/>
     </g>
    </g>
    <g id="line2d_34">
     <path d="M 384.527 248.969937 
L 404.527 248.969937 
" style="fill:none;stroke:#0086ed;stroke-linecap:square;stroke-width:1.5;"/>
    </g>
    <g id="line2d_35"/>
    <g id="text_25">
     <!-- Bat SL CoV (HKU3. RF1) -->
     <g transform="translate(412.527 252.469937)scale(0.1 -0.1)">
      <defs>
       <path d="M 9.8125 72.90625 
L 19.671875 72.90625 
L 19.671875 43.015625 
L 55.515625 43.015625 
L 55.515625 72.90625 
L 65.375 72.90625 
L 65.375 0 
L 55.515625 0 
L 55.515625 34.71875 
L 19.671875 34.71875 
L 19.671875 0 
L 9.8125 0 
z
" id="DejaVuSans-72"/>
       <path d="M 9.8125 72.90625 
L 19.671875 72.90625 
L 19.671875 42.09375 
L 52.390625 72.90625 
L 65.09375 72.90625 
L 28.90625 38.921875 
L 67.671875 0 
L 54.6875 0 
L 19.671875 35.109375 
L 19.671875 0 
L 9.8125 0 
z
" id="DejaVuSans-75"/>
       <path d="M 8.6875 72.90625 
L 18.609375 72.90625 
L 18.609375 28.609375 
Q 18.609375 16.890625 22.84375 11.734375 
Q 27.09375 6.59375 36.625 6.59375 
Q 46.09375 6.59375 50.34375 11.734375 
Q 54.59375 16.890625 54.59375 28.609375 
L 54.59375 72.90625 
L 64.5 72.90625 
L 64.5 27.390625 
Q 64.5 13.140625 57.4375 5.859375 
Q 50.390625 -1.421875 36.625 -1.421875 
Q 22.796875 -1.421875 15.734375 5.859375 
Q 8.6875 13.140625 8.6875 27.390625 
z
" id="DejaVuSans-85"/>
       <path d="M 9.8125 72.90625 
L 51.703125 72.90625 
L 51.703125 64.59375 
L 19.671875 64.59375 
L 19.671875 43.109375 
L 48.578125 43.109375 
L 48.578125 34.8125 
L 19.671875 34.8125 
L 19.671875 0 
L 9.8125 0 
z
" id="DejaVuSans-70"/>
      </defs>
      <use xlink:href="#DejaVuSans-66"/>
      <use x="68.603516" xlink:href="#DejaVuSans-97"/>
      <use x="129.882812" xlink:href="#DejaVuSans-116"/>
      <use x="169.091797" xlink:href="#DejaVuSans-32"/>
      <use x="200.878906" xlink:href="#DejaVuSans-83"/>
      <use x="264.355469" xlink:href="#DejaVuSans-76"/>
      <use x="320.068359" xlink:href="#DejaVuSans-32"/>
      <use x="351.855469" xlink:href="#DejaVuSans-67"/>
      <use x="421.679688" xlink:href="#DejaVuSans-111"/>
      <use x="482.861328" xlink:href="#DejaVuSans-86"/>
      <use x="551.269531" xlink:href="#DejaVuSans-32"/>
      <use x="583.056641" xlink:href="#DejaVuSans-40"/>
      <use x="622.070312" xlink:href="#DejaVuSans-72"/>
      <use x="697.265625" xlink:href="#DejaVuSans-75"/>
      <use x="760.216797" xlink:href="#DejaVuSans-85"/>
      <use x="833.410156" xlink:href="#DejaVuSans-51"/>
      <use x="897.033203" xlink:href="#DejaVuSans-46"/>
      <use x="928.820312" xlink:href="#DejaVuSans-32"/>
      <use x="960.607422" xlink:href="#DejaVuSans-82"/>
      <use x="1030.089844" xlink:href="#DejaVuSans-70"/>
      <use x="1087.609375" xlink:href="#DejaVuSans-49"/>
      <use x="1151.232422" xlink:href="#DejaVuSans-41"/>
     </g>
    </g>
    <g id="line2d_36">
     <path d="M 384.527 263.648062 
L 404.527 263.648062 
" style="fill:none;stroke:#bc65e9;stroke-linecap:square;stroke-width:1.5;"/>
    </g>
    <g id="line2d_37"/>
    <g id="text_26">
     <!-- Guangdong Pangolin CoV -->
     <g transform="translate(412.527 267.148062)scale(0.1 -0.1)">
      <defs>
       <path d="M 45.40625 46.390625 
L 45.40625 75.984375 
L 54.390625 75.984375 
L 54.390625 0 
L 45.40625 0 
L 45.40625 8.203125 
Q 42.578125 3.328125 38.25 0.953125 
Q 33.9375 -1.421875 27.875 -1.421875 
Q 17.96875 -1.421875 11.734375 6.484375 
Q 5.515625 14.40625 5.515625 27.296875 
Q 5.515625 40.1875 11.734375 48.09375 
Q 17.96875 56 27.875 56 
Q 33.9375 56 38.25 53.625 
Q 42.578125 51.265625 45.40625 46.390625 
z
M 14.796875 27.296875 
Q 14.796875 17.390625 18.875 11.75 
Q 22.953125 6.109375 30.078125 6.109375 
Q 37.203125 6.109375 41.296875 11.75 
Q 45.40625 17.390625 45.40625 27.296875 
Q 45.40625 37.203125 41.296875 42.84375 
Q 37.203125 48.484375 30.078125 48.484375 
Q 22.953125 48.484375 18.875 42.84375 
Q 14.796875 37.203125 14.796875 27.296875 
z
" id="DejaVuSans-100"/>
      </defs>
      <use xlink:href="#DejaVuSans-71"/>
      <use x="77.490234" xlink:href="#DejaVuSans-117"/>
      <use x="140.869141" xlink:href="#DejaVuSans-97"/>
      <use x="202.148438" xlink:href="#DejaVuSans-110"/>
      <use x="265.527344" xlink:href="#DejaVuSans-103"/>
      <use x="329.003906" xlink:href="#DejaVuSans-100"/>
      <use x="392.480469" xlink:href="#DejaVuSans-111"/>
      <use x="453.662109" xlink:href="#DejaVuSans-110"/>
      <use x="517.041016" xlink:href="#DejaVuSans-103"/>
      <use x="580.517578" xlink:href="#DejaVuSans-32"/>
      <use x="612.304688" xlink:href="#DejaVuSans-80"/>
      <use x="668.107422" xlink:href="#DejaVuSans-97"/>
      <use x="729.386719" xlink:href="#DejaVuSans-110"/>
      <use x="792.765625" xlink:href="#DejaVuSans-103"/>
      <use x="856.242188" xlink:href="#DejaVuSans-111"/>
      <use x="917.423828" xlink:href="#DejaVuSans-108"/>
      <use x="945.207031" xlink:href="#DejaVuSans-105"/>
      <use x="972.990234" xlink:href="#DejaVuSans-110"/>
      <use x="1036.369141" xlink:href="#DejaVuSans-32"/>
      <use x="1068.15625" xlink:href="#DejaVuSans-67"/>
      <use x="1137.980469" xlink:href="#DejaVuSans-111"/>
      <use x="1199.162109" xlink:href="#DejaVuSans-86"/>
     </g>
    </g>
    <g id="line2d_38">
     <path d="M 384.527 278.326187 
L 404.527 278.326187 
" style="fill:none;stroke:#00c2a0;stroke-linecap:square;stroke-width:1.5;"/>
    </g>
    <g id="line2d_39"/>
    <g id="text_27">
     <!-- SARS CoV -->
     <g transform="translate(412.527 281.826187)scale(0.1 -0.1)">
      <use xlink:href="#DejaVuSans-83"/>
      <use x="65.351562" xlink:href="#DejaVuSans-65"/>
      <use x="133.759766" xlink:href="#DejaVuSans-82"/>
      <use x="203.242188" xlink:href="#DejaVuSans-83"/>
      <use x="266.71875" xlink:href="#DejaVuSans-32"/>
      <use x="298.505859" xlink:href="#DejaVuSans-67"/>
      <use x="368.330078" xlink:href="#DejaVuSans-111"/>
      <use x="429.511719" xlink:href="#DejaVuSans-86"/>
     </g>
    </g>
    <g id="line2d_40">
     <path d="M 384.527 293.004312 
L 404.527 293.004312 
" style="fill:none;stroke:#006c31;stroke-linecap:square;stroke-width:1.5;"/>
    </g>
    <g id="line2d_41"/>
    <g id="text_28">
     <!-- Bat CoV (RatG13) -->
     <g transform="translate(412.527 296.504312)scale(0.1 -0.1)">
      <use xlink:href="#DejaVuSans-66"/>
      <use x="68.603516" xlink:href="#DejaVuSans-97"/>
      <use x="129.882812" xlink:href="#DejaVuSans-116"/>
      <use x="169.091797" xlink:href="#DejaVuSans-32"/>
      <use x="200.878906" xlink:href="#DejaVuSans-67"/>
      <use x="270.703125" xlink:href="#DejaVuSans-111"/>
      <use x="331.884766" xlink:href="#DejaVuSans-86"/>
      <use x="400.292969" xlink:href="#DejaVuSans-32"/>
      <use x="432.080078" xlink:href="#DejaVuSans-40"/>
      <use x="471.09375" xlink:href="#DejaVuSans-82"/>
      <use x="538.326172" xlink:href="#DejaVuSans-97"/>
      <use x="599.605469" xlink:href="#DejaVuSans-116"/>
      <use x="638.814453" xlink:href="#DejaVuSans-71"/>
      <use x="716.304688" xlink:href="#DejaVuSans-49"/>
      <use x="779.927734" xlink:href="#DejaVuSans-51"/>
      <use x="843.550781" xlink:href="#DejaVuSans-41"/>
     </g>
    </g>
   </g>
  </g>
 </g>
 <defs>
  <clipPath id="p0cfdd7ad18">
   <rect height="266.112" width="487.692" x="78.66" y="41.472"/>
  </clipPath>
 </defs>
</svg>
