<?xml version="1.0" encoding="UTF-8" standalone="no"?>
<!-- Created with matplotlib (https://matplotlib.org/) -->

<svg
   height="316.42801pt"
   version="1.1"
   viewBox="0 0 533.78458 316.428"
   width="533.78461pt"
   id="svg7657"
   sodipodi:docname="Simplot_ex_clipped.svg"
   inkscape:version="1.2.2 (732a01da63, 2022-12-09)"
   xmlns:inkscape="http://www.inkscape.org/namespaces/inkscape"
   xmlns:sodipodi="http://sodipodi.sourceforge.net/DTD/sodipodi-0.dtd"
   xmlns:xlink="http://www.w3.org/1999/xlink"
   xmlns="http://www.w3.org/2000/svg"
   xmlns:svg="http://www.w3.org/2000/svg"
   xmlns:rdf="http://www.w3.org/1999/02/22-rdf-syntax-ns#"
   xmlns:cc="http://creativecommons.org/ns#"
   xmlns:dc="http://purl.org/dc/elements/1.1/">
  <sodipodi:namedview
     id="namedview7659"
     pagecolor="#ffffff"
     bordercolor="#cccccc"
     borderopacity="1"
     inkscape:showpageshadow="0"
     inkscape:pageopacity="1"
     inkscape:pagecheckerboard="0"
     inkscape:deskcolor="#d1d1d1"
     inkscape:document-units="pt"
     showgrid="false"
     inkscape:zoom="1.2490992"
     inkscape:cx="324.23366"
     inkscape:cy="244.97654"
     inkscape:window-width="1920"
     inkscape:window-height="1017"
     inkscape:window-x="-8"
     inkscape:window-y="-8"
     inkscape:window-maximized="1"
     inkscape:current-layer="svg7657" />
  <metadata
     id="metadata6761">
    <rdf:RDF>
      <cc:Work>
        <dc:type
           rdf:resource="http://purl.org/dc/dcmitype/StillImage" />
        <dc:date>2023-03-07T16:46:18.792210</dc:date>
        <dc:format>image/svg+xml</dc:format>
        <dc:creator>
          <cc:Agent>
            <dc:title>Matplotlib v3.3.1, https://matplotlib.org/</dc:title>
          </cc:Agent>
        </dc:creator>
      </cc:Work>
    </rdf:RDF>
  </metadata>
  <defs
     id="defs6765">
    <style
       type="text/css"
       id="style6763">*{stroke-linecap:butt;stroke-linejoin:round;}</style>
    <clipPath
       clipPathUnits="userSpaceOnUse"
       id="clipPath7728">
      <rect
         style="opacity:0.5;fill:#0000ff;stroke-width:0.75"
         id="rect7730"
         width="533.78461"
         height="316.42801"
         x="38.427692"
         y="22.816444" />
    </clipPath>
  </defs>
  <g
     id="figure_1"
     style="opacity:1"
     transform="translate(-38.427692,-22.816444)">
    <g
       id="patch_1">
      <path
         d="M 0,345.6 H 629.28 V 0 H 0 Z"
         style="fill:#ffffff"
         id="path6767"
         clip-path="url(#clipPath7728)" />
    </g>
    <g
       id="axes_1">
      <g
         id="patch_2">
        <path
           d="M 78.66,307.584 H 566.352 V 41.472 H 78.66 Z"
           style="fill:#ffffff"
           id="path6770" />
      </g>
      <g
         id="matplotlib.axis_1">
        <g
           id="xtick_1">
          <g
             id="line2d_1">
            <defs
               id="defs6774">
              <path
                 d="M 0,0 V 3.5"
                 id="mfad36e634d"
                 style="stroke:#000000;stroke-width:0.8" />
            </defs>
            <g
               id="g6778">
              <use
                 style="stroke:#000000;stroke-width:0.8"
                 x="100.82782"
                 xlink:href="#mfad36e634d"
                 y="307.58401"
                 id="use6776" />
            </g>
          </g>
          <g
             id="text_1">
            <!-- 100 -->
            <g
               transform="matrix(0.1,0,0,-0.1,91.284068,322.18244)"
               id="g6791">
              <defs
                 id="defs6783">
                <path
                   d="m 12.40625,8.296875 h 16.109375 v 55.625 L 10.984375,60.40625 v 8.984375 l 17.4375,3.515625 H 38.28125 V 8.296875 H 54.390625 V 0 H 12.40625 Z"
                   id="DejaVuSans-49" />
                <path
                   d="m 31.78125,66.40625 q -7.609375,0 -11.453125,-7.5 Q 16.5,51.421875 16.5,36.375 q 0,-14.984375 3.828125,-22.484375 3.84375,-7.5 11.453125,-7.5 7.671875,0 11.5,7.5 3.84375,7.5 3.84375,22.484375 0,15.046875 -3.84375,22.53125 -3.828125,7.5 -11.5,7.5 z m 0,7.8125 q 12.265625,0 18.734375,-9.703125 6.46875,-9.6875 6.46875,-28.140625 0,-18.40625 -6.46875,-28.109375 -6.46875,-9.6875 -18.734375,-9.6875 -12.25,0 -18.71875,9.6875 Q 6.59375,17.96875 6.59375,36.375 q 0,18.453125 6.46875,28.140625 6.46875,9.703125 18.71875,9.703125 z"
                   id="DejaVuSans-48" />
              </defs>
              <use
                 xlink:href="#DejaVuSans-49"
                 id="use6785" />
              <use
                 x="63.623047"
                 xlink:href="#DejaVuSans-48"
                 id="use6787" />
              <use
                 x="127.24609"
                 xlink:href="#DejaVuSans-48"
                 id="use6789" />
            </g>
          </g>
        </g>
        <g
           id="xtick_2">
          <g
             id="line2d_2">
            <g
               id="g6797">
              <use
                 style="stroke:#000000;stroke-width:0.8"
                 x="163.09697"
                 xlink:href="#mfad36e634d"
                 y="307.58401"
                 id="use6795" />
            </g>
          </g>
          <g
             id="text_2">
            <!-- 600 -->
            <g
               transform="matrix(0.1,0,0,-0.1,153.55322,322.18244)"
               id="g6809">
              <defs
                 id="defs6801">
                <path
                   d="m 33.015625,40.375 q -6.640625,0 -10.53125,-4.546875 -3.875,-4.53125 -3.875,-12.4375 0,-7.859375 3.875,-12.4375 3.890625,-4.5625 10.53125,-4.5625 6.640625,0 10.515625,4.5625 3.875,4.578125 3.875,12.4375 0,7.90625 -3.875,12.4375 Q 39.65625,40.375 33.015625,40.375 Z M 52.59375,71.296875 V 62.3125 q -3.71875,1.75 -7.5,2.671875 -3.78125,0.9375 -7.5,0.9375 -9.765625,0 -14.921875,-6.59375 -5.140625,-6.59375 -5.875,-19.921875 2.875,4.25 7.21875,6.515625 4.359375,2.265625 9.578125,2.265625 10.984375,0 17.359375,-6.671875 6.375,-6.65625 6.375,-18.125 0,-11.234375 -6.640625,-18.03125 -6.640625,-6.78125 -17.671875,-6.78125 -12.65625,0 -19.34375,9.6875 -6.6875,9.703125 -6.6875,28.109375 0,17.28125 8.203125,27.5625 8.203125,10.28125 22.015625,10.28125 3.71875,0 7.5,-0.734375 3.78125,-0.734375 7.890625,-2.1875 z"
                   id="DejaVuSans-54" />
              </defs>
              <use
                 xlink:href="#DejaVuSans-54"
                 id="use6803" />
              <use
                 x="63.623047"
                 xlink:href="#DejaVuSans-48"
                 id="use6805" />
              <use
                 x="127.24609"
                 xlink:href="#DejaVuSans-48"
                 id="use6807" />
            </g>
          </g>
        </g>
        <g
           id="xtick_3">
          <g
             id="line2d_3">
            <g
               id="g6815">
              <use
                 style="stroke:#000000;stroke-width:0.8"
                 x="225.36612"
                 xlink:href="#mfad36e634d"
                 y="307.58401"
                 id="use6813" />
            </g>
          </g>
          <g
             id="text_3">
            <!-- 1100 -->
            <g
               transform="matrix(0.1,0,0,-0.1,212.64112,322.18244)"
               id="g6826">
              <use
                 xlink:href="#DejaVuSans-49"
                 id="use6818" />
              <use
                 x="63.623047"
                 xlink:href="#DejaVuSans-49"
                 id="use6820" />
              <use
                 x="127.24609"
                 xlink:href="#DejaVuSans-48"
                 id="use6822" />
              <use
                 x="190.86914"
                 xlink:href="#DejaVuSans-48"
                 id="use6824" />
            </g>
          </g>
        </g>
        <g
           id="xtick_4">
          <g
             id="line2d_4">
            <g
               id="g6832">
              <use
                 style="stroke:#000000;stroke-width:0.8"
                 x="287.63528"
                 xlink:href="#mfad36e634d"
                 y="307.58401"
                 id="use6830" />
            </g>
          </g>
          <g
             id="text_4">
            <!-- 1600 -->
            <g
               transform="matrix(0.1,0,0,-0.1,274.91028,322.18244)"
               id="g6843">
              <use
                 xlink:href="#DejaVuSans-49"
                 id="use6835" />
              <use
                 x="63.623047"
                 xlink:href="#DejaVuSans-54"
                 id="use6837" />
              <use
                 x="127.24609"
                 xlink:href="#DejaVuSans-48"
                 id="use6839" />
              <use
                 x="190.86914"
                 xlink:href="#DejaVuSans-48"
                 id="use6841" />
            </g>
          </g>
        </g>
        <g
           id="xtick_5">
          <g
             id="line2d_5">
            <g
               id="g6849">
              <use
                 style="stroke:#000000;stroke-width:0.8"
                 x="349.90442"
                 xlink:href="#mfad36e634d"
                 y="307.58401"
                 id="use6847" />
            </g>
          </g>
          <g
             id="text_5">
            <!-- 2100 -->
            <g
               transform="matrix(0.1,0,0,-0.1,337.17943,322.18244)"
               id="g6863">
              <defs
                 id="defs6853">
                <path
                   d="M 19.1875,8.296875 H 53.609375 V 0 H 7.328125 v 8.296875 q 5.609375,5.8125 15.296875,15.59375 9.703125,9.796875 12.1875,12.640625 4.734375,5.3125 6.609375,9 1.890625,3.6875 1.890625,7.25 0,5.8125 -4.078125,9.46875 -4.078125,3.671875 -10.625,3.671875 -4.640625,0 -9.796875,-1.609375 -5.140625,-1.609375 -11,-4.890625 v 9.96875 Q 13.765625,71.78125 18.9375,73 q 5.1875,1.21875 9.484375,1.21875 11.328125,0 18.0625,-5.671875 6.734375,-5.65625 6.734375,-15.125 0,-4.5 -1.6875,-8.53125 Q 49.859375,40.875 45.40625,35.40625 44.1875,33.984375 37.640625,27.21875 31.109375,20.453125 19.1875,8.296875 Z"
                   id="DejaVuSans-50" />
              </defs>
              <use
                 xlink:href="#DejaVuSans-50"
                 id="use6855" />
              <use
                 x="63.623047"
                 xlink:href="#DejaVuSans-49"
                 id="use6857" />
              <use
                 x="127.24609"
                 xlink:href="#DejaVuSans-48"
                 id="use6859" />
              <use
                 x="190.86914"
                 xlink:href="#DejaVuSans-48"
                 id="use6861" />
            </g>
          </g>
        </g>
        <g
           id="xtick_6">
          <g
             id="line2d_6">
            <g
               id="g6869">
              <use
                 style="stroke:#000000;stroke-width:0.8"
                 x="412.17358"
                 xlink:href="#mfad36e634d"
                 y="307.58401"
                 id="use6867" />
            </g>
          </g>
          <g
             id="text_6">
            <!-- 2600 -->
            <g
               transform="matrix(0.1,0,0,-0.1,399.44858,322.18244)"
               id="g6880">
              <use
                 xlink:href="#DejaVuSans-50"
                 id="use6872" />
              <use
                 x="63.623047"
                 xlink:href="#DejaVuSans-54"
                 id="use6874" />
              <use
                 x="127.24609"
                 xlink:href="#DejaVuSans-48"
                 id="use6876" />
              <use
                 x="190.86914"
                 xlink:href="#DejaVuSans-48"
                 id="use6878" />
            </g>
          </g>
        </g>
        <g
           id="xtick_7">
          <g
             id="line2d_7">
            <g
               id="g6886">
              <use
                 style="stroke:#000000;stroke-width:0.8"
                 x="474.44272"
                 xlink:href="#mfad36e634d"
                 y="307.58401"
                 id="use6884" />
            </g>
          </g>
          <g
             id="text_7">
            <!-- 3100 -->
            <g
               transform="matrix(0.1,0,0,-0.1,461.71773,322.18244)"
               id="g6900">
              <defs
                 id="defs6890">
                <path
                   d="M 40.578125,39.3125 Q 47.65625,37.796875 51.625,33 q 3.984375,-4.78125 3.984375,-11.8125 0,-10.78125 -7.421875,-16.703125 -7.421875,-5.90625 -21.09375,-5.90625 -4.578125,0 -9.4375,0.90625 -4.859375,0.90625 -10.03125,2.71875 v 9.515625 q 4.09375,-2.390625 8.96875,-3.609375 4.890625,-1.21875 10.21875,-1.21875 9.265625,0 14.125,3.65625 4.859375,3.65625 4.859375,10.640625 0,6.453125 -4.515625,10.078125 -4.515625,3.640625 -12.5625,3.640625 h -8.5 v 8.109375 h 8.890625 q 7.265625,0 11.125,2.90625 3.859375,2.90625 3.859375,8.375 0,5.609375 -3.984375,8.609375 -3.96875,3.015625 -11.390625,3.015625 -4.0625,0 -8.703125,-0.890625 Q 15.375,64.15625 9.8125,62.3125 v 8.78125 q 5.625,1.5625 10.53125,2.34375 4.90625,0.78125 9.25,0.78125 11.234375,0 17.765625,-5.109375 6.546875,-5.09375 6.546875,-13.78125 0,-6.0625 -3.46875,-10.234375 -3.46875,-4.171875 -9.859375,-5.78125 z"
                   id="DejaVuSans-51" />
              </defs>
              <use
                 xlink:href="#DejaVuSans-51"
                 id="use6892" />
              <use
                 x="63.623047"
                 xlink:href="#DejaVuSans-49"
                 id="use6894" />
              <use
                 x="127.24609"
                 xlink:href="#DejaVuSans-48"
                 id="use6896" />
              <use
                 x="190.86914"
                 xlink:href="#DejaVuSans-48"
                 id="use6898" />
            </g>
          </g>
        </g>
        <g
           id="xtick_8">
          <g
             id="line2d_8">
            <g
               id="g6906">
              <use
                 style="stroke:#000000;stroke-width:0.8"
                 x="536.71191"
                 xlink:href="#mfad36e634d"
                 y="307.58401"
                 id="use6904" />
            </g>
          </g>
          <g
             id="text_8">
            <!-- 3600 -->
            <g
               transform="matrix(0.1,0,0,-0.1,523.98688,322.18244)"
               id="g6917">
              <use
                 xlink:href="#DejaVuSans-51"
                 id="use6909" />
              <use
                 x="63.623047"
                 xlink:href="#DejaVuSans-54"
                 id="use6911" />
              <use
                 x="127.24609"
                 xlink:href="#DejaVuSans-48"
                 id="use6913" />
              <use
                 x="190.86914"
                 xlink:href="#DejaVuSans-48"
                 id="use6915" />
            </g>
          </g>
        </g>
        <g
           id="text_9">
          <!-- Position -->
          <g
             transform="matrix(0.1,0,0,-0.1,303.04194,335.86056)"
             id="g6945">
            <defs
               id="defs6927">
              <path
                 d="M 19.671875,64.796875 V 37.40625 h 12.40625 q 6.890625,0 10.640625,3.5625 3.765625,3.5625 3.765625,10.15625 0,6.546875 -3.765625,10.109375 -3.75,3.5625 -10.640625,3.5625 z M 9.8125,72.90625 h 22.265625 q 12.265625,0 18.53125,-5.546875 6.28125,-5.546875 6.28125,-16.234375 0,-10.796875 -6.28125,-16.3125 -6.265625,-5.515625 -18.53125,-5.515625 H 19.671875 V 0 H 9.8125 Z"
                 id="DejaVuSans-80" />
              <path
                 d="m 30.609375,48.390625 q -7.21875,0 -11.421875,-5.640625 -4.203125,-5.640625 -4.203125,-15.453125 0,-9.8125 4.171875,-15.453125 4.1875,-5.640625 11.453125,-5.640625 7.1875,0 11.375,5.65625 4.203125,5.671875 4.203125,15.4375 0,9.71875 -4.203125,15.40625 -4.1875,5.6875 -11.375,5.6875 z m 0,7.609375 q 11.71875,0 18.40625,-7.625 6.703125,-7.609375 6.703125,-21.078125 0,-13.421875 -6.703125,-21.078125 -6.6875,-7.640625 -18.40625,-7.640625 -11.765625,0 -18.4375,7.640625 -6.65625,7.65625 -6.65625,21.078125 0,13.46875 6.65625,21.078125 Q 18.84375,56 30.609375,56 Z"
                 id="DejaVuSans-111" />
              <path
                 d="m 44.28125,53.078125 v -8.5 Q 40.484375,46.53125 36.375,47.5 q -4.09375,0.984375 -8.5,0.984375 -6.6875,0 -10.03125,-2.046875 Q 14.5,44.390625 14.5,40.28125 q 0,-3.125 2.390625,-4.90625 2.390625,-1.78125 9.625,-3.390625 l 3.078125,-0.6875 Q 39.15625,29.25 43.1875,25.515625 47.21875,21.78125 47.21875,15.09375 q 0,-7.625 -6.03125,-12.078125 -6.03125,-4.4375 -16.578125,-4.4375 -4.390625,0 -9.15625,0.859375 Q 10.6875,0.296875 5.421875,2 v 9.28125 q 4.984375,-2.59375 9.8125,-3.890625 4.828125,-1.28125 9.578125,-1.28125 6.34375,0 9.75,2.171875 3.421875,2.171875 3.421875,6.125 0,3.65625 -2.46875,5.609375 -2.453125,1.953125 -10.8125,3.765625 l -3.125,0.734375 q -8.34375,1.75 -12.0625,5.390625 -3.703125,3.640625 -3.703125,9.984375 0,7.71875 5.46875,11.90625 Q 16.75,56 26.8125,56 q 4.96875,0 9.359375,-0.734375 4.40625,-0.71875 8.109375,-2.1875 z"
                 id="DejaVuSans-115" />
              <path
                 d="M 9.421875,54.6875 H 18.40625 V 0 H 9.421875 Z m 0,21.296875 H 18.40625 V 64.59375 H 9.421875 Z"
                 id="DejaVuSans-105" />
              <path
                 d="M 18.3125,70.21875 V 54.6875 h 18.5 v -6.984375 h -18.5 v -29.6875 q 0,-6.6875 1.828125,-8.59375 1.828125,-1.90625 7.453125,-1.90625 H 36.8125 V 0 H 27.59375 Q 17.1875,0 13.234375,3.875 9.28125,7.765625 9.28125,18.015625 v 29.6875 H 2.6875 V 54.6875 h 6.59375 v 15.53125 z"
                 id="DejaVuSans-116" />
              <path
                 d="M 54.890625,33.015625 V 0 H 45.90625 v 32.71875 q 0,7.765625 -3.03125,11.609375 -3.03125,3.859375 -9.078125,3.859375 -7.28125,0 -11.484375,-4.640625 -4.203125,-4.625 -4.203125,-12.640625 V 0 h -9.03125 v 54.6875 h 9.03125 v -8.5 q 3.234375,4.9375 7.59375,7.375 4.375,2.4375 10.09375,2.4375 9.421875,0 14.25,-5.828125 4.84375,-5.828125 4.84375,-17.15625 z"
                 id="DejaVuSans-110" />
            </defs>
            <use
               xlink:href="#DejaVuSans-80"
               id="use6929" />
            <use
               x="56.677734"
               xlink:href="#DejaVuSans-111"
               id="use6931" />
            <use
               x="117.85938"
               xlink:href="#DejaVuSans-115"
               id="use6933" />
            <use
               x="169.95898"
               xlink:href="#DejaVuSans-105"
               id="use6935" />
            <use
               x="197.74219"
               xlink:href="#DejaVuSans-116"
               id="use6937" />
            <use
               x="236.95117"
               xlink:href="#DejaVuSans-105"
               id="use6939" />
            <use
               x="264.73438"
               xlink:href="#DejaVuSans-111"
               id="use6941" />
            <use
               x="325.91602"
               xlink:href="#DejaVuSans-110"
               id="use6943" />
          </g>
        </g>
      </g>
      <g
         id="matplotlib.axis_2">
        <g
           id="ytick_1">
          <g
             id="line2d_9">
            <defs
               id="defs6950">
              <path
                 d="M 0,0 H -3.5"
                 id="m4b51e8b48a"
                 style="stroke:#000000;stroke-width:0.8" />
            </defs>
            <g
               id="g6954">
              <use
                 style="stroke:#000000;stroke-width:0.8"
                 x="78.660004"
                 xlink:href="#m4b51e8b48a"
                 y="301.68918"
                 id="use6952" />
            </g>
          </g>
          <g
             id="text_10">
            <!-- 0.2 -->
            <g
               transform="matrix(0.1,0,0,-0.1,55.756875,305.48841)"
               id="g6966">
              <defs
                 id="defs6958">
                <path
                   d="M 10.6875,12.40625 H 21 V 0 H 10.6875 Z"
                   id="DejaVuSans-46" />
              </defs>
              <use
                 xlink:href="#DejaVuSans-48"
                 id="use6960" />
              <use
                 x="63.623047"
                 xlink:href="#DejaVuSans-46"
                 id="use6962" />
              <use
                 x="95.410156"
                 xlink:href="#DejaVuSans-50"
                 id="use6964" />
            </g>
          </g>
        </g>
        <g
           id="ytick_2">
          <g
             id="line2d_10">
            <g
               id="g6972">
              <use
                 style="stroke:#000000;stroke-width:0.8"
                 x="78.660004"
                 xlink:href="#m4b51e8b48a"
                 y="270.27878"
                 id="use6970" />
            </g>
          </g>
          <g
             id="text_11">
            <!-- 0.3 -->
            <g
               transform="matrix(0.1,0,0,-0.1,55.756875,274.07799)"
               id="g6981">
              <use
                 xlink:href="#DejaVuSans-48"
                 id="use6975" />
              <use
                 x="63.623047"
                 xlink:href="#DejaVuSans-46"
                 id="use6977" />
              <use
                 x="95.410156"
                 xlink:href="#DejaVuSans-51"
                 id="use6979" />
            </g>
          </g>
        </g>
        <g
           id="ytick_3">
          <g
             id="line2d_11">
            <g
               id="g6987">
              <use
                 style="stroke:#000000;stroke-width:0.8"
                 x="78.660004"
                 xlink:href="#m4b51e8b48a"
                 y="238.86835"
                 id="use6985" />
            </g>
          </g>
          <g
             id="text_12">
            <!-- 0.4 -->
            <g
               transform="matrix(0.1,0,0,-0.1,55.756875,242.66757)"
               id="g6999">
              <defs
                 id="defs6991">
                <path
                   d="M 37.796875,64.3125 12.890625,25.390625 h 24.90625 z m -2.59375,8.59375 h 12.40625 V 25.390625 h 10.40625 V 17.1875 H 47.609375 V 0 h -9.8125 V 17.1875 H 4.890625 v 9.515625 z"
                   id="DejaVuSans-52" />
              </defs>
              <use
                 xlink:href="#DejaVuSans-48"
                 id="use6993" />
              <use
                 x="63.623047"
                 xlink:href="#DejaVuSans-46"
                 id="use6995" />
              <use
                 x="95.410156"
                 xlink:href="#DejaVuSans-52"
                 id="use6997" />
            </g>
          </g>
        </g>
        <g
           id="ytick_4">
          <g
             id="line2d_12">
            <g
               id="g7005">
              <use
                 style="stroke:#000000;stroke-width:0.8"
                 x="78.660004"
                 xlink:href="#m4b51e8b48a"
                 y="207.45793"
                 id="use7003" />
            </g>
          </g>
          <g
             id="text_13">
            <!-- 0.5 -->
            <g
               transform="matrix(0.1,0,0,-0.1,55.756875,211.25715)"
               id="g7017">
              <defs
                 id="defs7009">
                <path
                   d="m 10.796875,72.90625 h 38.71875 v -8.3125 h -29.6875 V 46.734375 q 2.140625,0.734375 4.28125,1.09375 2.15625,0.359375 4.3125,0.359375 Q 40.625,48.1875 47.75,41.5 54.890625,34.8125 54.890625,23.390625 54.890625,11.625 47.5625,5.09375 40.234375,-1.421875 26.90625,-1.421875 q -4.59375,0 -9.359375,0.78125 -4.75,0.78125 -9.828125,2.34375 V 11.625 q 4.390625,-2.390625 9.078125,-3.5625 4.6875,-1.171875 9.90625,-1.171875 8.453125,0 13.375,4.4375 4.9375,4.4375 4.9375,12.0625 0,7.609375 -4.9375,12.046875 -4.921875,4.453125 -13.375,4.453125 -3.953125,0 -7.890625,-0.875 -3.921875,-0.875 -8.015625,-2.734375 z"
                   id="DejaVuSans-53" />
              </defs>
              <use
                 xlink:href="#DejaVuSans-48"
                 id="use7011" />
              <use
                 x="63.623047"
                 xlink:href="#DejaVuSans-46"
                 id="use7013" />
              <use
                 x="95.410156"
                 xlink:href="#DejaVuSans-53"
                 id="use7015" />
            </g>
          </g>
        </g>
        <g
           id="ytick_5">
          <g
             id="line2d_13">
            <g
               id="g7023">
              <use
                 style="stroke:#000000;stroke-width:0.8"
                 x="78.660004"
                 xlink:href="#m4b51e8b48a"
                 y="176.04752"
                 id="use7021" />
            </g>
          </g>
          <g
             id="text_14">
            <!-- 0.6 -->
            <g
               transform="matrix(0.1,0,0,-0.1,55.756875,179.84673)"
               id="g7032">
              <use
                 xlink:href="#DejaVuSans-48"
                 id="use7026" />
              <use
                 x="63.623047"
                 xlink:href="#DejaVuSans-46"
                 id="use7028" />
              <use
                 x="95.410156"
                 xlink:href="#DejaVuSans-54"
                 id="use7030" />
            </g>
          </g>
        </g>
        <g
           id="ytick_6">
          <g
             id="line2d_14">
            <g
               id="g7038">
              <use
                 style="stroke:#000000;stroke-width:0.8"
                 x="78.660004"
                 xlink:href="#m4b51e8b48a"
                 y="144.63708"
                 id="use7036" />
            </g>
          </g>
          <g
             id="text_15">
            <!-- 0.7 -->
            <g
               transform="matrix(0.1,0,0,-0.1,55.756875,148.43631)"
               id="g7050">
              <defs
                 id="defs7042">
                <path
                   d="m 8.203125,72.90625 h 46.875 V 68.703125 L 28.609375,0 H 18.3125 L 43.21875,64.59375 H 8.203125 Z"
                   id="DejaVuSans-55" />
              </defs>
              <use
                 xlink:href="#DejaVuSans-48"
                 id="use7044" />
              <use
                 x="63.623047"
                 xlink:href="#DejaVuSans-46"
                 id="use7046" />
              <use
                 x="95.410156"
                 xlink:href="#DejaVuSans-55"
                 id="use7048" />
            </g>
          </g>
        </g>
        <g
           id="ytick_7">
          <g
             id="line2d_15">
            <g
               id="g7056">
              <use
                 style="stroke:#000000;stroke-width:0.8"
                 x="78.660004"
                 xlink:href="#m4b51e8b48a"
                 y="113.22667"
                 id="use7054" />
            </g>
          </g>
          <g
             id="text_16">
            <!-- 0.8 -->
            <g
               transform="matrix(0.1,0,0,-0.1,55.756875,117.02589)"
               id="g7068">
              <defs
                 id="defs7060">
                <path
                   d="m 31.78125,34.625 q -7.03125,0 -11.0625,-3.765625 -4.015625,-3.765625 -4.015625,-10.34375 0,-6.59375 4.015625,-10.359375 4.03125,-3.765625 11.0625,-3.765625 7.03125,0 11.078125,3.78125 4.0625,3.796875 4.0625,10.34375 0,6.578125 -4.03125,10.34375 Q 38.875,34.625 31.78125,34.625 Z m -9.859375,4.1875 Q 15.578125,40.375 12.03125,44.71875 8.5,49.078125 8.5,55.328125 q 0,8.734375 6.21875,13.8125 6.234375,5.078125 17.0625,5.078125 10.890625,0 17.09375,-5.078125 6.203125,-5.078125 6.203125,-13.8125 0,-6.25 -3.546875,-10.609375 Q 48,40.375 41.703125,38.8125 q 7.125,-1.65625 11.09375,-6.5 3.984375,-4.828125 3.984375,-11.796875 0,-10.609375 -6.46875,-16.28125 -6.46875,-5.65625 -18.53125,-5.65625 -12.046875,0 -18.53125,5.65625 -6.46875,5.671875 -6.46875,16.28125 0,6.96875 4,11.796875 4.015625,4.84375 11.140625,6.5 z M 18.3125,54.390625 q 0,-5.65625 3.53125,-8.828125 3.546875,-3.171875 9.9375,-3.171875 6.359375,0 9.9375,3.171875 3.59375,3.171875 3.59375,8.828125 0,5.671875 -3.59375,8.84375 -3.578125,3.171875 -9.9375,3.171875 -6.390625,0 -9.9375,-3.171875 Q 18.3125,60.0625 18.3125,54.390625 Z"
                   id="DejaVuSans-56" />
              </defs>
              <use
                 xlink:href="#DejaVuSans-48"
                 id="use7062" />
              <use
                 x="63.623047"
                 xlink:href="#DejaVuSans-46"
                 id="use7064" />
              <use
                 x="95.410156"
                 xlink:href="#DejaVuSans-56"
                 id="use7066" />
            </g>
          </g>
        </g>
        <g
           id="ytick_8">
          <g
             id="line2d_16">
            <g
               id="g7074">
              <use
                 style="stroke:#000000;stroke-width:0.8"
                 x="78.660004"
                 xlink:href="#m4b51e8b48a"
                 y="81.816254"
                 id="use7072" />
            </g>
          </g>
          <g
             id="text_17">
            <!-- 0.9 -->
            <g
               transform="matrix(0.1,0,0,-0.1,55.756875,85.615469)"
               id="g7086">
              <defs
                 id="defs7078">
                <path
                   d="M 10.984375,1.515625 V 10.5 Q 14.703125,8.734375 18.5,7.8125 q 3.8125,-0.921875 7.484375,-0.921875 9.765625,0 14.90625,6.5625 5.15625,6.5625 5.890625,19.953125 -2.828125,-4.203125 -7.1875,-6.453125 -4.34375,-2.25 -9.609375,-2.25 -10.9375,0 -17.3125,6.609375 -6.375,6.625 -6.375,18.109375 0,11.21875 6.640625,18 6.640625,6.796875 17.671875,6.796875 12.65625,0 19.3125,-9.703125 6.671875,-9.6875 6.671875,-28.140625 0,-17.234375 -8.1875,-27.515625 -8.171875,-10.28125 -21.984375,-10.28125 -3.71875,0 -7.53125,0.734375 -3.796875,0.734375 -7.90625,2.203125 z m 19.625,30.90625 q 6.640625,0 10.515625,4.53125 3.890625,4.546875 3.890625,12.46875 0,7.859375 -3.890625,12.421875 -3.875,4.5625 -10.515625,4.5625 -6.640625,0 -10.515625,-4.5625 -3.875,-4.5625 -3.875,-12.421875 0,-7.921875 3.875,-12.46875 3.875,-4.53125 10.515625,-4.53125 z"
                   id="DejaVuSans-57" />
              </defs>
              <use
                 xlink:href="#DejaVuSans-48"
                 id="use7080" />
              <use
                 x="63.623047"
                 xlink:href="#DejaVuSans-46"
                 id="use7082" />
              <use
                 x="95.410156"
                 xlink:href="#DejaVuSans-57"
                 id="use7084" />
            </g>
          </g>
        </g>
        <g
           id="ytick_9">
          <g
             id="line2d_17">
            <g
               id="g7092">
              <use
                 style="stroke:#000000;stroke-width:0.8"
                 x="78.660004"
                 xlink:href="#m4b51e8b48a"
                 y="50.40583"
                 id="use7090" />
            </g>
          </g>
          <g
             id="text_18">
            <!-- 1.0 -->
            <g
               transform="matrix(0.1,0,0,-0.1,55.756875,54.205048)"
               id="g7101">
              <use
                 xlink:href="#DejaVuSans-49"
                 id="use7095" />
              <use
                 x="63.623047"
                 xlink:href="#DejaVuSans-46"
                 id="use7097" />
              <use
                 x="95.410156"
                 xlink:href="#DejaVuSans-48"
                 id="use7099" />
            </g>
          </g>
        </g>
        <g
           id="text_19">
          <!-- Similarity -->
          <g
             transform="matrix(0,-0.1,-0.1,0,49.677187,198.16784)"
             id="g7133">
            <defs
               id="defs7111">
              <path
                 d="m 53.515625,70.515625 v -9.625 q -5.609375,2.6875 -10.59375,4 -4.984375,1.328125 -9.625,1.328125 -8.046875,0 -12.421875,-3.125 -4.375,-3.125 -4.375,-8.890625 0,-4.84375 2.90625,-7.3125 2.90625,-2.453125 11.015625,-3.96875 L 36.375,41.703125 Q 47.40625,39.59375 52.65625,34.296875 57.90625,29 57.90625,20.125 q 0,-10.609375 -7.109375,-16.078125 -7.09375,-5.46875 -20.8125,-5.46875 -5.171875,0 -11.015625,1.171875 Q 13.140625,0.921875 6.890625,3.21875 V 13.375 q 6,-3.359375 11.765625,-5.078125 5.765625,-1.703125 11.328125,-1.703125 8.4375,0 13.03125,3.3125 4.59375,3.328125 4.59375,9.484375 0,5.359375 -3.296875,8.390625 Q 41.015625,30.8125 33.5,32.328125 L 27.484375,33.5 q -11.03125,2.1875 -15.96875,6.875 -4.921875,4.6875 -4.921875,13.046875 0,9.671875 6.8125,15.234375 6.8125,5.5625 18.765625,5.5625 5.140625,0 10.453125,-0.9375 5.328125,-0.921875 10.890625,-2.765625 z"
                 id="DejaVuSans-83" />
              <path
                 d="M 52,44.1875 Q 55.375,50.25 60.0625,53.125 64.75,56 71.09375,56 q 8.546875,0 13.1875,-5.984375 4.640625,-5.96875 4.640625,-17 V 0 h -9.03125 v 32.71875 q 0,7.859375 -2.796875,11.65625 -2.78125,3.8125 -8.484375,3.8125 -6.984375,0 -11.046875,-4.640625 -4.046875,-4.625 -4.046875,-12.640625 V 0 h -9.03125 v 32.71875 q 0,7.90625 -2.78125,11.6875 -2.78125,3.78125 -8.59375,3.78125 -6.890625,0 -10.953125,-4.65625 -4.046875,-4.65625 -4.046875,-12.625 V 0 h -9.03125 v 54.6875 h 9.03125 v -8.5 q 3.078125,5.03125 7.375,7.421875 Q 29.78125,56 35.6875,56 41.65625,56 45.828125,52.96875 50,49.953125 52,44.1875 Z"
                 id="DejaVuSans-109" />
              <path
                 d="M 9.421875,75.984375 H 18.40625 V 0 H 9.421875 Z"
                 id="DejaVuSans-108" />
              <path
                 d="m 34.28125,27.484375 q -10.890625,0 -15.09375,-2.484375 -4.203125,-2.484375 -4.203125,-8.5 0,-4.78125 3.15625,-7.59375 3.15625,-2.796875 8.5625,-2.796875 7.484375,0 12,5.296875 4.515625,5.296875 4.515625,14.078125 v 2 z m 17.921875,3.71875 V 0 H 43.21875 v 8.296875 q -3.078125,-4.96875 -7.671875,-7.34375 -4.59375,-2.375 -11.234375,-2.375 -8.390625,0 -13.359375,4.71875 Q 6,8.015625 6,15.921875 q 0,9.21875 6.171875,13.90625 6.1875,4.6875 18.4375,4.6875 H 43.21875 v 0.890625 q 0,6.203125 -4.078125,9.59375 -4.078125,3.390625 -11.453125,3.390625 -4.6875,0 -9.140625,-1.125 -4.4375,-1.125 -8.53125,-3.375 v 8.3125 q 4.921875,1.90625 9.5625,2.84375 Q 24.21875,56 28.609375,56 q 11.875,0 17.734375,-6.15625 5.859375,-6.140625 5.859375,-18.640625 z"
                 id="DejaVuSans-97" />
              <path
                 d="m 41.109375,46.296875 q -1.515625,0.875 -3.296875,1.28125 Q 36.03125,48 33.890625,48 26.265625,48 22.1875,43.046875 18.109375,38.09375 18.109375,28.8125 V 0 h -9.03125 v 54.6875 h 9.03125 v -8.5 q 2.84375,4.984375 7.375,7.390625 Q 30.03125,56 36.53125,56 q 0.921875,0 2.046875,-0.125 1.125,-0.109375 2.484375,-0.359375 z"
                 id="DejaVuSans-114" />
              <path
                 d="M 32.171875,-5.078125 Q 28.375,-14.84375 24.75,-17.8125 q -3.609375,-2.984375 -9.65625,-2.984375 h -7.1875 v 7.515625 h 5.28125 q 3.703125,0 5.75,1.765625 2.0625,1.75 4.546875,8.296875 L 25.09375,0.875 2.984375,54.6875 H 12.5 L 29.59375,11.921875 46.6875,54.6875 h 9.515625 z"
                 id="DejaVuSans-121" />
            </defs>
            <use
               xlink:href="#DejaVuSans-83"
               id="use7113" />
            <use
               x="63.476562"
               xlink:href="#DejaVuSans-105"
               id="use7115" />
            <use
               x="91.259766"
               xlink:href="#DejaVuSans-109"
               id="use7117" />
            <use
               x="188.67188"
               xlink:href="#DejaVuSans-105"
               id="use7119" />
            <use
               x="216.45508"
               xlink:href="#DejaVuSans-108"
               id="use7121" />
            <use
               x="244.23828"
               xlink:href="#DejaVuSans-97"
               id="use7123" />
            <use
               x="305.51758"
               xlink:href="#DejaVuSans-114"
               id="use7125" />
            <use
               x="346.63086"
               xlink:href="#DejaVuSans-105"
               id="use7127" />
            <use
               x="374.41406"
               xlink:href="#DejaVuSans-116"
               id="use7129" />
            <use
               x="413.62305"
               xlink:href="#DejaVuSans-121"
               id="use7131" />
          </g>
        </g>
      </g>
      <g
         id="line2d_18">
        <path
           clip-path="url(#p0cfdd7ad18)"
           d="m 100.82782,141.81723 2.49076,4.71214 h 2.49077 l 2.49077,-11.8109 4.98153,-9.04008 2.49076,9.04008 2.49077,2.31528 h 2.49077 l 2.49076,4.69997 2.49077,-12.06238 2.49076,-1.87713 4.98154,4.40346 2.49076,-4.40346 2.49077,2.19144 2.49077,-16.98596 2.49076,-6.06673 h 2.49077 l 2.49076,-1.98801 2.49077,3.99295 2.49077,-2.00494 2.49076,2.00494 2.49077,6.11925 2.49076,4.16964 h 2.49077 l 2.49077,2.11282 h 4.98153 l 2.49076,4.28336 h 2.49077 l 2.49077,-6.39618 4.98153,-8.26675 2.49076,2.03965 2.49077,-4.06179 2.49077,2.02214 2.49076,4.09711 2.49077,-6.11925 2.49077,2.02214 2.49076,-4.02708 2.49077,2.00494 2.49076,-3.99295 h 2.49077 l 2.49077,-7.788415 2.49076,-3.79973 2.49077,5.722828 2.49076,-1.923098 2.49077,5.817035 2.49077,-1.95501 2.49076,1.95501 2.49077,5.96433 2.49076,4.06179 2.49077,2.05746 2.49077,12.73706 2.49076,8.8908 h 2.49077 l 4.98153,-8.8908 h 2.49077 l 2.49076,-2.17124 2.49077,6.5747 2.49077,9.06181 2.49076,2.32099 2.49077,-4.61933 4.98153,4.61933 h 2.49077 l 2.49076,11.96085 2.49077,-7.24913 h 2.49076 l 2.49077,-7.03271 2.49077,-13.46527 2.49076,-6.4546 2.49077,-8.33992 2.49076,-10.02612 2.49077,-5.817035 2.49077,3.862025 2.49076,-7.661755 2.49077,5.722828 h 4.98153 l 4.98153,3.893937 2.49077,5.96433 2.49077,4.06179 h 2.49076 l 2.49077,-4.06179 2.49076,6.11925 2.49077,2.0756 2.49077,19.55226 2.49076,13.99886 2.49077,2.4162 2.49076,-7.17552 2.49077,-4.66507 h 2.49077 l 2.49076,-4.57447 2.49077,-2.25436 2.49076,-4.445 2.49077,-6.5141 2.49077,-12.51151 2.49076,-15.711031 2.49077,-5.631618 2.49077,5.631618 2.49076,-3.769331 h 7.4723 l 2.49077,-3.709969 2.49076,-1.833302 2.49077,-8.958423 h 4.98153 l 2.49077,-5.215966 4.98153,-3.414236 2.49076,6.878683 2.49077,1.751519 2.49077,-1.751519 2.49076,5.294114 2.49077,3.596683 2.49076,-1.805206 2.49077,3.624351 2.49077,1.833302 2.49076,5.587096 h 2.49077 l 2.49077,-3.739414 h 2.49076 l 2.49077,7.539144 2.49076,-1.907526 4.98154,3.830624 2.49076,-1.923098 2.49077,3.862025 2.49076,1.95501 2.49077,-1.95501 2.49077,-5.769551 2.49076,-1.892204 2.49077,1.892204 2.49076,-1.892204 4.98154,-7.420398 2.49076,3.680984 2.49077,-1.847682 2.49076,-5.457653 2.49077,5.457653 2.49077,3.709969 2.49076,1.877127 2.49077,-7.420398 h 4.98153 l 2.49077,1.833302 2.49076,-5.457653 2.49077,3.624351 h 2.49077 l 2.49076,-1.819145 2.49077,1.819145 4.98153,-3.624351 2.49077,3.624351 2.49076,-1.819145 2.49077,7.362416 h 4.98153 l 2.49077,5.676857 2.49076,-5.676857 2.49077,-3.709969 2.49076,3.709969 2.49077,5.676857 2.49077,-1.907526 2.49076,1.907526 2.49077,-3.79973 2.49077,9.616765 2.49076,-1.95501 2.49077,-5.769551 2.49076,7.724561 2.49077,-1.95501 2.49077,3.92639 2.49076,-5.865317 v 0"
           style="fill:none;stroke:#5b113c;stroke-width:1.5;stroke-linecap:square"
           id="path7137" />
      </g>
      <g
         id="line2d_19">
        <path
           clip-path="url(#p0cfdd7ad18)"
           d="m 100.82782,243.81091 2.49076,-7.0327 2.49077,10.62938 2.49077,-7.13928 2.49076,-3.4901 2.49077,-6.82884 2.49076,17.45822 2.49077,-27.34406 2.49077,-15.60691 2.49076,3.03976 2.49077,-28.76473 2.49076,-0.15115 2.49077,-2.73137 2.49077,2.73137 2.49076,5.55963 2.49077,8.59347 2.49077,-2.89946 h 2.49076 l 2.49077,5.83505 h 2.49076 l 2.49077,12.12245 2.49077,-3.33502 2.49076,6.11925 2.49077,3.12029 h 2.49076 l 2.49077,3.16217 h 2.49077 l 2.49076,6.4546 h 2.49077 l 2.49076,-3.2494 2.49077,-9.48766 2.49077,-15.01005 2.49076,-19.52652 2.49077,-13.01868 2.49076,-7.4793 2.49077,-9.61677 2.49077,-11.4939 2.49076,-10.9591 2.49077,-4.24476 2.49077,4.24476 h 2.49076 l 2.49077,6.5141 2.49076,23.11442 2.49077,7.40097 h 2.49077 l 2.49076,-4.95972 2.49077,4.95972 2.49076,-2.49291 2.49077,2.49291 h 7.4723 l 2.49076,-26.07039 2.49077,-6.63644 2.49077,4.40346 2.49076,13.09104 2.49077,7.74573 2.49077,19.1299 2.49076,-2.82981 2.49077,8.0471 2.49076,-1.04285 2.49077,1.04285 2.49077,42.43379 2.49076,39.14944 2.49077,10.89573 2.49076,-18.52082 2.49077,-26.44772 2.49077,-31.19634 2.49076,23.00149 2.49077,-19.78656 2.49076,5.82642 2.49077,-3.20665 2.49077,-12.53201 2.49076,-18.85631 2.49077,-2.57465 2.49076,-10.02612 2.49077,-2.44125 2.49077,-4.80788 2.49076,-20.49798 2.49077,2.19144 2.49077,-10.75886 2.49076,2.11282 2.49077,-8.33992 h 2.49076 l 2.49077,-8.05474 2.49077,1.98801 2.49076,4.02708 4.98153,12.51151 2.49077,-2.13194 2.49077,19.91987 2.49076,16.74865 2.49077,2.49291 2.49076,5.0664 2.49077,2.57465 4.98153,-5.12147 2.49077,5.12147 2.49076,2.6031 2.49077,-5.17775 2.49077,-7.55931 2.49076,-28.02248 2.49077,-2.19144 2.49077,-4.32266 2.49076,-6.3388 h 2.49077 l 2.49076,2.09404 2.49077,-10.28889 2.49077,-3.99295 2.49076,1.98801 2.49077,-13.576155 2.49076,5.722828 2.49077,3.893937 2.49077,-1.95501 2.49076,5.9144 2.49077,2.00494 h 2.49076 l 2.49077,2.02214 2.49077,4.09711 2.49076,12.73706 2.49077,11.16693 2.49076,-6.76347 2.49077,-2.21202 4.98153,-12.8529 2.49077,-6.17271 2.49077,2.03965 2.49076,-2.03965 2.49077,6.17271 2.49076,-16.11419 4.98154,-3.862025 2.49076,-7.539144 2.49077,1.862287 2.49076,3.769331 2.49077,1.907526 h 2.49077 l 2.49076,-1.907526 2.49077,-9.312602 2.49076,-1.819145 2.49077,-7.139278 h 2.49077 l 2.49076,3.542595 2.49077,1.791477 2.49076,-5.334072 2.49077,5.334072 2.49077,-3.569434 2.49076,1.777957 2.49077,5.415828 h 2.49076 l 4.98154,7.420398 2.49076,1.892204 2.49077,-3.769331 2.49077,3.769331 h 2.49076 l 2.49077,-1.892204 h 2.49076 l 2.49077,-9.239543 2.49077,5.500129 4.98153,-3.680984 h 2.49076 l 2.49077,5.543271 h 2.49077 l 2.49076,-7.362416 2.49077,1.819145 h 2.49076 l 2.49077,1.833302 2.49077,-3.652447 2.49076,3.652447 2.49077,7.4793 2.49077,3.830624 h 2.49076 l 2.49077,-1.923098 2.49076,1.923098 7.4723,-5.722828 v 0"
           style="fill:none;stroke:#ff34ff;stroke-width:1.5;stroke-linecap:square"
           id="path7140" />
      </g>
      <g
         id="line2d_20">
        <path
           clip-path="url(#p0cfdd7ad18)"
           d="m 100.82782,286.10046 2.49076,-20.63648 h 2.49077 l 2.49077,-29.95498 4.98153,-13.66053 2.49076,-3.29486 2.49077,-6.4546 2.49077,-12.40171 2.49076,-3.00104 2.49077,-15.24113 2.49076,13.20175 2.49077,5.39039 2.49077,12.78754 2.49076,-16.59687 2.49077,24.13227 2.49077,11.08808 2.49076,-11.08808 h 2.49077 l 2.49076,3.63834 2.49077,23.09553 2.49077,0.60406 2.49076,-16.32993 2.49077,2.70724 2.49076,18.06081 2.49077,-4.73867 2.49077,-5.35637 2.49076,3.68098 2.49077,-3.68098 2.49076,3.68098 2.49077,-3.68098 2.49077,-24.27215 2.49076,3.31806 2.49077,-9.81718 2.49076,13.18264 2.49077,-31.66883 2.49077,-5.79536 2.49076,2.82133 2.49077,-2.82133 2.49077,-8.26675 h 2.49076 l 2.49077,5.47881 h 2.49076 l 2.49077,2.78794 2.49077,-16.25321 2.49076,5.29411 h 2.49077 l 2.49076,-7.89721 4.98154,10.58956 2.49076,-7.98646 2.49077,-2.6031 2.49076,-12.60077 2.49077,-4.85745 2.49077,4.85745 2.49076,19.70191 2.49077,11.63586 2.49077,12.24058 h 2.49076 l 2.49077,12.91162 2.49076,24.45226 2.49077,-2.86752 4.98153,53.72538 2.49077,-9.1056 2.49076,-37.09131 2.49077,-13.91271 2.49077,-19.44015 2.49076,-3.0896 4.98153,-47.13407 2.49077,2.93307 2.49077,-12.20885 2.49076,-9.33105 4.98153,19.04699 2.49077,-14.42766 2.49077,2.34408 2.49076,-4.66507 2.49077,9.42439 2.49077,-7.1034 4.98153,9.5196 2.49076,-2.4162 h 2.49077 l 2.49077,-2.39168 2.49076,12.20885 h 2.49077 l 2.49076,7.64105 h 2.49077 l 2.49077,24.53317 2.49076,11.78136 2.49077,-8.8908 2.49076,18.13034 2.49077,-15.20386 h 2.49077 l 2.49076,-2.92648 2.49077,5.88976 2.49076,-8.78032 2.49077,-11.22013 2.49077,-15.88769 2.49076,-12.46737 2.49077,2.44125 2.49077,-11.96085 h 2.49076 l 2.49077,-2.32099 2.49076,9.42439 2.49077,-7.1034 2.49077,-2.32099 2.49076,9.42439 2.49077,4.85745 2.49076,-2.44125 2.49077,2.44125 2.49077,-4.85745 2.49076,7.32426 2.49077,-7.32426 2.49076,-9.42439 4.98154,9.42439 2.49076,2.4162 2.49077,4.90806 2.49076,-4.90806 h 2.49077 l 2.49077,-4.80788 2.49076,-7.03271 4.98154,4.66507 4.98153,14.57649 2.49076,-2.49291 2.49077,-7.32426 2.49077,9.81717 2.49076,-7.40097 2.49077,-2.4162 h 2.49076 l 2.49077,2.4162 2.49077,-7.17552 2.49076,-9.23954 4.98153,-4.48734 2.49077,-6.5747 2.49077,-10.56582 2.49076,-2.05746 2.49077,6.2271 4.98153,-4.16964 h 2.49077 l 2.49076,-4.09711 h 2.49077 l 2.49076,-6.01509 h 2.49077 l 2.49077,-1.97138 2.49076,3.95939 2.49077,-1.98801 2.49077,8.05474 2.49076,4.13306 h 7.4723 l 2.49077,4.20686 2.49076,6.4546 2.49077,8.8908 2.49076,6.89546 2.49077,21.98697 2.49077,-12.46737 h 2.49076 l 2.49077,4.90806 2.49076,-2.46681 4.98154,-14.28184 h 2.49076 l 2.49077,2.32099 2.49077,-6.89546 2.49076,-15.3454 2.49077,2.13194 2.49076,6.5141 2.49077,-6.5141 2.49077,6.5141 h 2.49076 v 0"
           style="fill:none;stroke:#0000a6;stroke-width:1.5;stroke-linecap:square"
           id="path7143" />
      </g>
      <g
         id="line2d_21">
        <path
           clip-path="url(#p0cfdd7ad18)"
           d="m 100.82782,274.25037 2.49076,-5.13587 2.49077,16.98596 4.98153,-65.00333 2.49077,-16.1418 2.49076,-6.15926 2.49077,-3.02027 2.49077,9.17953 2.49076,-6.15926 2.49077,-11.85549 2.49076,0.0293 2.49077,-6.90209 2.49077,22.43781 h 2.49076 l 2.49077,38.61949 2.49077,7.75636 h 2.49076 l 2.49077,-7.75636 2.49076,-25.29704 2.49077,21.51257 2.49077,10.4528 2.49076,-5.14519 2.49077,-2.37997 2.49076,3.5426 2.49077,-10.47186 2.49077,0.7464 2.49076,14.33618 2.49077,-14.33618 2.49076,25.69154 2.49077,-15.02202 2.49077,-27.44373 2.49076,3.26065 2.49077,-6.47678 2.49076,6.47678 2.49077,-18.91944 2.49077,-11.83272 2.49076,-5.60927 h 2.49077 l 4.98153,-16.06837 2.49077,10.58956 2.49076,5.47881 4.98154,-16.06837 2.49076,-5.12147 2.49077,-2.51958 2.49076,-12.20885 2.49077,2.39168 h 2.49077 l 4.98153,-4.75932 2.49076,-18.13034 2.49077,-6.4546 2.49077,2.13194 2.49076,14.31802 2.49077,7.49914 2.49077,18.4862 2.49076,-5.43144 2.49077,7.1076 2.49076,1.65449 2.49077,14.0454 2.49077,36.94866 2.49076,49.25746 2.49077,5.54327 2.49076,-41.25158 2.49077,-24.28705 2.49077,-25.49275 2.49076,21.67764 2.49077,-21.30753 2.49076,-0.31473 2.49077,-3.1927 2.49077,-7.98646 2.49076,-10.24415 2.49077,2.51958 4.98153,10.35675 2.49077,-2.63218 2.49076,-15.20387 2.49077,7.4793 2.49077,-9.92055 2.49076,-4.80788 4.98153,-18.30654 2.49077,-8.64604 2.49077,-6.28246 2.49076,-2.05746 2.49077,2.05746 2.49076,4.16964 h 2.49077 l 2.49077,12.97088 2.49076,6.76347 2.49077,4.61933 h 2.49076 l 2.49077,-2.32099 4.98153,9.42439 2.49077,7.32426 h 2.49076 l 2.49077,-12.08358 2.49077,2.36764 4.98153,-13.86154 2.49077,6.82883 2.49076,-4.57447 2.49077,-2.25436 2.49076,-4.445 2.49077,-10.75886 2.49077,-4.16964 2.49076,8.4144 2.49077,-8.4144 2.49076,-6.11925 2.49077,-2.00494 2.49077,-3.95939 2.49076,1.97138 2.49077,-1.97138 h 2.49076 l 2.49077,1.97138 2.49077,8.05474 2.49076,6.2271 h 2.49077 l 2.49076,-2.09404 2.49077,4.20686 2.49077,-6.28246 4.98153,-4.09711 2.49077,2.03965 2.49076,8.33992 4.98153,-4.20686 h 2.49077 l 2.49077,2.09404 2.49076,-4.16964 h 2.49077 l 2.49076,2.0756 h 2.49077 l 2.49077,-2.0756 2.49076,-10.1122 2.49077,3.99295 2.49076,-5.96433 2.49077,-3.893937 2.49077,-5.722828 2.49076,-1.877127 h 2.49077 l 2.49076,-1.862287 7.4723,11.401169 2.49077,-5.769551 2.49076,1.907526 h 2.49077 l 4.98153,7.788415 2.49077,10.1122 9.96306,8.4144 4.98154,-4.24476 2.49076,4.24476 2.49077,6.5141 4.98153,-8.64604 2.49077,4.28336 4.98153,-16.68507 2.49076,-3.99295 h 2.49077 l 2.49077,-3.92639 h 4.98153 l 2.49077,5.9144 h 2.49076 l 2.49077,-3.95939 2.49076,14.15918 2.49077,-2.0756 2.49077,-6.11925 2.49076,-2.00494 v 0"
           style="fill:none;stroke:#494b5a;stroke-width:1.5;stroke-linecap:square"
           id="path7146" />
      </g>
      <g
         id="line2d_22">
        <path
           clip-path="url(#p0cfdd7ad18)"
           d="m 100.82782,295.488 2.49076,-0.41205 2.49077,-8.97549 2.49077,-32.82912 2.49076,-35.49227 2.49077,-22.00327 2.49076,-2.98204 2.49077,-8.72612 2.49077,2.87294 2.49076,-2.87294 2.49077,-13.86154 2.49076,4.80789 2.49077,-1.49727 2.49077,7.21707 2.49076,9.17953 2.49077,40.77687 2.49077,11.40116 h 4.98153 l 2.49076,-7.66175 2.49077,27.98281 2.49077,-11.832 2.49076,-1.65784 2.49077,5.84744 h 2.49076 l 2.49077,-7.36242 2.49077,1.01404 2.49076,15.26546 2.49077,-15.26546 2.49076,7.5091 2.49077,-21.84528 2.49077,-13.51356 h 2.49076 l 2.49077,-6.47678 2.49076,6.47678 2.49077,-24.9027 2.49077,-14.21406 2.49076,-8.07776 2.49077,2.66193 2.49077,-5.29411 2.49076,-2.6031 2.49077,2.6031 2.49076,5.29411 2.49077,-5.29411 7.4723,-7.72457 2.49076,-7.4793 2.49077,2.46681 h 2.49077 l 2.49076,-4.90806 2.49077,2.44125 2.49076,-11.96085 h 2.49077 l 2.49077,-2.32099 2.49076,11.77496 2.49077,10.74047 2.49077,8.38943 2.49076,-2.82981 2.49077,5.94114 2.49076,-1.96285 2.49077,-2.92349 2.49077,19.78058 2.49076,28.9671 2.49077,23.11442 2.49076,-18.08341 2.49077,-23.28591 2.49077,-17.78793 2.49076,17.78793 2.49077,-18.5282 2.49076,7.55941 2.49077,0.86396 2.49077,-0.95755 2.49076,-21.67764 2.49077,-7.64105 h 2.49076 l 2.49077,2.51958 h 2.49077 l 2.49076,-17.09607 2.49077,17.09607 2.49077,-9.92055 2.49076,-2.4162 2.49077,-9.42439 h 2.49076 l 2.49077,-4.57447 h 9.96306 l 2.49077,-11.06204 2.49077,13.33817 2.49076,16.58018 2.49077,-7.24913 2.49076,-2.36764 2.49077,-4.66507 2.49077,-2.29834 h 2.49076 l 2.49077,11.72273 2.49076,7.32426 2.49077,-7.32426 h 2.49077 l 2.49076,-18.4862 2.49077,4.48734 2.49077,9.23954 2.49076,-2.34408 2.49077,2.34408 h 2.49076 l 2.49077,-6.96341 2.49077,-8.97549 2.49076,6.69936 2.49077,-13.21346 2.49076,2.15142 2.49077,-2.15142 2.49077,-8.4144 2.49076,2.0756 2.49077,-2.0756 h 2.49076 l 2.49077,2.0756 2.49077,6.3388 2.49076,8.72612 2.49077,11.3828 2.49076,-6.89546 h 2.49077 l 2.49077,-6.69936 4.98153,-8.64604 h 2.49077 l 2.49076,-8.33992 h 2.49077 l 2.49076,-11.98113 2.49077,-9.538882 h 2.49077 l 2.49076,-5.543271 2.49077,7.420398 h 2.49076 l 2.49077,7.661755 2.49077,-3.862025 h 2.49076 l 2.49077,3.862025 2.49076,5.9144 2.49077,-1.98801 2.49077,-3.92639 2.49076,3.92639 2.49077,-5.865317 h 2.49076 l 2.49077,-5.722828 h 2.49077 l 2.49076,7.661755 2.49077,-1.938927 2.49076,-5.722828 2.49077,3.79973 2.49077,7.788415 h 2.49076 l 2.49077,12.1878 4.98153,12.8529 2.49077,2.21202 h 2.49076 l 2.49077,-2.21202 7.4723,6.69936 2.49076,-2.25436 4.98154,-13.09104 2.49076,-6.28246 h 2.49077 l 2.49076,-6.11925 2.49077,-3.99295 h 4.98153 l 2.49077,-1.97138 2.49077,7.98647 2.49076,-2.02214 h 2.49077 l 2.49076,10.28889 2.49077,-4.16964 2.49077,-6.11925 2.49076,-3.99295 v 0"
           style="fill:none;stroke:#0086ed;stroke-width:1.5;stroke-linecap:square"
           id="path7149" />
      </g>
      <g
         id="line2d_23">
        <path
           clip-path="url(#p0cfdd7ad18)"
           d="m 100.82782,207.79164 2.49076,-6.13919 2.49077,9.26984 2.49077,-18.18869 2.49076,-5.76367 2.49077,-2.8298 2.49076,8.59347 2.49077,-0.0583 2.49077,-8.4648 2.49076,2.78794 2.49077,-23.97778 2.49076,-0.3726 4.98154,5.19202 2.49076,13.50387 2.49077,-2.76341 h 2.49077 l 2.49076,8.38943 2.49077,17.73211 2.49076,3.0896 2.49077,6.30347 2.49077,-0.39895 2.49076,-6.19978 2.49077,9.36195 h 2.49076 l 2.49077,9.74945 2.49077,-6.54425 2.49076,6.54425 2.49077,-12.91162 2.49076,6.36737 2.49077,-12.56715 2.49077,-11.93056 4.98153,-5.74609 2.49076,-13.78043 2.49077,-15.53826 2.49077,-14.57649 2.49076,-22.453 2.49077,-6.3388 2.49077,-16.11419 2.49076,3.92639 2.49077,-3.92639 2.49076,-5.769551 2.49077,-7.4793 2.49077,5.587096 2.49076,3.79973 2.49077,7.788415 2.49076,-1.97138 2.49077,1.97138 2.49077,-1.97138 2.49076,-3.893937 2.49077,3.893937 4.98153,3.95939 2.49077,-11.683951 4.98153,-11.131747 4.98153,3.652447 2.49077,11.309924 h 2.49076 l 4.98154,-3.830624 2.49076,-3.769331 2.49077,1.877127 2.49076,5.722828 2.49077,1.938927 2.49077,-1.938927 2.49076,1.938927 2.49077,-9.538882 h 2.49076 l 2.49077,-1.862287 h 2.49077 l 4.98153,-3.680984 2.49076,-5.415828 h 2.49077 l 2.49077,-1.777957 2.49076,-6.980604 2.49077,3.464447 2.49077,-5.17775 h 2.49076 l 2.49077,-1.700933 2.49076,6.878683 4.98154,3.516157 2.49076,-5.254749 2.49077,3.490111 2.49076,1.764638 h 2.49077 l 2.49077,20.337011 2.49076,9.858267 2.49077,-2.00494 2.49076,-9.776425 h 4.98154 l 2.49076,3.862025 2.49077,-3.862025 2.49076,-1.907526 2.49077,-3.769331 2.49077,-12.737056 2.49076,-5.254749 2.49077,7.032706 2.49077,1.791477 h 4.98153 l 2.49076,-1.791477 2.49077,1.791477 2.49077,5.457653 2.49076,-1.833302 2.49077,-7.193785 2.49076,-1.764638 2.49077,-5.215966 4.98153,-3.414236 2.49077,1.700933 h 2.49076 l 2.49077,-1.700933 2.49077,-5.030329 2.49076,8.444565 2.49077,5.215966 h 7.4723 l 2.49076,-1.751519 h 2.49077 l 7.4723,10.709942 2.49076,-5.415828 2.49077,-3.542595 2.49077,-1.751519 h 2.49076 l 2.49077,7.085591 2.49076,5.457653 2.49077,-1.833302 2.49077,-3.624351 2.49076,-1.791477 h 4.98153 l 2.49077,1.791477 h 2.49077 l 2.49076,5.457653 2.49077,-3.652447 h 2.49076 l 2.49077,5.500129 h 2.49077 l 2.49076,-1.847682 2.49077,3.709969 2.49076,5.676857 9.96307,-7.539144 2.49077,-3.680984 h 2.49076 l 2.49077,3.680984 2.49076,1.862287 2.49077,-7.362416 2.49077,-3.596683 2.49076,1.791477 2.49077,3.624351 2.49076,-5.415828 4.98154,3.596683 2.49076,-5.37464 h 2.49077 l 2.49076,-1.764638 h 2.49077 l 2.49077,-5.215966 h 2.49076 l 2.49077,1.725855 2.49077,8.824183 h 2.49076 l 2.49077,-1.791477 h 2.49076 l 2.49077,-3.542595 h 4.98153 v 0"
           style="fill:none;stroke:#bc65e9;stroke-width:1.5;stroke-linecap:square"
           id="path7152" />
      </g>
      <g
         id="line2d_24">
        <path
           clip-path="url(#p0cfdd7ad18)"
           d="m 100.82782,217.13532 2.49076,-16.10535 2.49077,-22.68483 2.49077,-15.36697 2.49076,-1.16593 2.49077,-2.72348 2.49076,11.08808 4.98154,-16.44235 2.49076,5.35427 2.49077,2.78086 2.49076,6.27247 2.49077,26.69776 2.49077,37.99125 2.49076,-7.13928 2.49077,7.13928 2.49077,3.65245 2.49076,-3.65245 2.49077,11.13175 2.49076,-3.76933 2.49077,27.74711 2.49077,-8.26675 2.49076,-27.65499 2.49077,-11.95536 h 4.98153 l 2.49077,1.0336 2.49076,28.37448 2.49077,-7.42039 2.49076,7.42039 2.49077,-28.37448 2.49077,-9.81718 2.49076,6.49912 h 2.49077 l 2.49076,27.95313 2.49077,-17.85537 2.49077,-7.8133 2.49076,-21.57123 2.49077,-8.67257 2.49077,-13.78043 2.49076,2.69235 2.49077,5.47881 2.49076,-5.47881 2.49077,-18.23061 2.49077,-16.92057 2.49076,-2.32099 4.98153,-13.46527 2.49077,2.19144 2.49077,6.69936 2.49076,-8.8908 2.49077,-2.17124 2.49076,-10.56582 2.49077,10.56582 h 2.49077 l 2.49076,11.06204 2.49077,4.57447 2.49077,14.28184 2.49076,4.95972 2.49077,20.95409 2.49076,10.29333 2.49077,16.04318 2.49077,26.29381 2.49076,-10.20714 2.49077,-3.30642 2.49076,-21.93007 2.49077,-11.67189 2.49077,-16.49033 2.49076,13.66053 2.49077,-29.07168 2.49076,1.13971 2.49077,-5.52429 h 4.98153 l 2.49077,7.32426 2.49076,15.36924 2.49077,5.35428 h 2.49077 l 2.49076,-15.71103 2.49077,10.35675 2.49077,-12.87633 2.49076,-2.49291 2.49077,-9.71594 2.49076,4.80788 2.49077,-4.80788 4.98153,-4.71172 h 2.49077 l 2.49076,4.71172 2.49077,-4.71172 2.49077,16.92057 2.49076,18.23061 2.49077,2.72348 4.98153,-15.88769 h 4.98153 l 2.49077,7.80993 h 2.49076 l 2.49077,-5.23528 2.49077,-2.57465 2.49076,-19.64289 2.49077,-4.66507 2.49077,9.42439 2.49076,14.88357 2.49077,-5.0664 2.49076,-2.49291 2.49077,-9.71594 2.49077,-11.60718 2.49076,6.89546 2.49077,-9.14982 2.49076,4.53049 2.49077,-4.53049 2.49077,-8.80768 2.49076,-10.56582 2.49077,-4.09711 2.49076,4.09711 2.49077,-2.05746 2.49077,10.47186 2.49076,4.32266 2.49077,2.19144 2.49076,-8.64604 2.49077,4.28336 2.49077,-6.39618 h 2.49076 l 4.98154,-4.16964 2.49076,10.56582 4.98153,-8.49022 2.49077,2.09404 h 2.49077 l 2.49076,-6.2271 h 2.49077 l 2.49076,-2.03965 2.49077,4.09711 h 2.49077 l 2.49076,-8.12419 2.49077,2.00494 4.98153,-7.91934 2.49077,-5.769551 h 7.47229 l 2.49077,-1.892204 4.98153,3.79973 2.49077,5.817035 2.49076,1.97138 2.49077,-1.97138 2.49077,3.95939 2.49076,6.06673 2.49077,10.47186 2.49077,10.9591 h 2.49076 l 2.49077,-2.23298 2.49076,4.48734 2.49077,-13.21346 2.49077,-2.13194 2.49076,2.13194 2.49077,6.5141 2.49076,-6.5141 2.49077,-4.24476 2.49077,-6.2271 4.98153,-4.06179 2.49076,-7.91934 2.49077,5.9144 2.49077,-3.95939 2.49076,1.97138 h 2.49077 l 2.49077,8.05474 4.98153,-4.06179 2.49076,12.40171 h 2.49077 l 2.49077,-2.11282 2.49076,-4.16964 v 0"
           style="fill:none;stroke:#00c2a0;stroke-width:1.5;stroke-linecap:square"
           id="path7155" />
      </g>
      <g
         id="line2d_25">
        <path
           clip-path="url(#p0cfdd7ad18)"
           d="m 100.82782,82.312056 2.49076,3.624351 2.49077,5.543271 h 2.49077 l 2.49076,-5.543271 2.49077,-3.624351 2.49076,1.805206 2.49077,-1.805206 2.49077,-3.569434 2.49076,-5.254749 2.49077,-1.725855 2.49076,-3.414236 2.49077,-6.683516 2.49077,-3.271971 2.49076,-1.619101 h 2.49077 l 4.98153,-3.205194 2.49077,1.597146 h 2.49076 l 2.49077,4.857454 h 2.49077 l 2.49076,6.636443 h 2.49077 l 2.49076,1.688739 2.49077,-1.688739 2.49077,1.688739 h 2.49076 l 2.49077,-1.688739 2.49076,1.688739 2.49077,-1.688739 h 2.49077 l 2.49076,-6.636443 h 2.49077 l 4.98153,3.294853 h 2.49077 l 2.49076,1.66487 2.49077,3.365459 2.49077,1.700933 h 2.49076 l 2.49077,1.713303 2.49076,3.464447 h 2.49077 l 4.98153,3.516157 2.49077,-1.764638 h 4.98153 l 2.49077,-1.751519 4.98153,3.516157 2.49076,-1.764638 2.49077,3.542595 h 2.49077 l 2.49076,7.24913 2.49077,17.175241 2.49077,6.01509 2.49076,2.03965 2.49077,6.2271 2.49076,-2.09404 2.49077,15.06492 2.49077,18.4862 2.49076,7.32426 h 2.49077 l 2.49076,-12.08358 2.49077,-18.13034 2.49077,-6.4546 2.49076,-4.20686 2.49077,-6.17271 h 2.49076 l 2.49077,-11.880407 2.49077,-13.143226 2.49076,-8.958423 9.96307,-6.929269 h 2.49076 l 2.49077,1.713303 2.49077,-3.414236 2.49076,-5.030329 h 7.4723 l 2.49077,1.66487 h 2.49076 l 2.49077,3.365459 h 4.98153 l 2.49077,0.677139 2.49076,7.152827 2.49077,-3.60356 4.98153,-3.549267 h 2.49077 l 2.49076,3.549267 h 2.49077 l 2.49076,1.79489 2.49077,-1.79489 2.49077,2.652277 2.49076,-5.17775 2.49077,3.439158 h 2.49077 l 2.49076,3.490111 2.49077,1.764638 h 2.49076 l 2.49077,-3.516157 7.4723,-5.17775 2.49076,1.713303 2.49077,-1.713303 h 2.49077 l 2.49076,-5.066392 2.49077,3.365459 h 2.49076 l 2.49077,1.700933 h 2.49077 l 2.49076,3.439158 4.98153,-3.439158 2.49077,1.713303 h 4.98153 l 2.49077,-6.779695 2.49077,-3.318057 h 2.49076 l 4.98153,-3.271971 2.49077,1.630305 2.49077,-1.630305 2.49076,-3.227149 2.49077,3.227149 2.49076,4.925158 4.98154,3.34159 h 2.49076 l 2.49077,1.688739 4.98153,-3.365459 2.49077,1.67672 h 2.49076 l 2.49077,-1.67672 2.49076,-3.318057 h 2.49077 l 4.98153,-3.271971 h 9.96307 l 2.49076,3.271971 h 2.49077 l 2.49077,-1.641666 2.49076,1.641666 2.49077,3.318057 h 2.49076 l 2.49077,-1.66487 2.49077,5.030329 2.49076,3.414236 2.49077,1.725855 h 4.98153 l 2.49077,3.490111 2.49076,-1.751519 h 7.4723 l 7.4723,-10.244142 2.49077,1.67672 4.98153,-3.34159 2.49076,1.66487 2.49077,-3.318057 h 4.98153 v 0"
           style="fill:none;stroke:#006c31;stroke-width:1.5;stroke-linecap:square"
           id="path7158" />
      </g>
      <g
         id="patch_3">
        <path
           d="M 78.66,307.584 V 41.472"
           style="fill:none;stroke:#000000;stroke-width:0.8;stroke-linecap:square;stroke-linejoin:miter"
           id="path7161" />
      </g>
      <g
         id="patch_4">
        <path
           d="M 566.352,307.584 V 41.472"
           style="fill:none;stroke:#000000;stroke-width:0.8;stroke-linecap:square;stroke-linejoin:miter"
           id="path7164" />
      </g>
      <g
         id="patch_5">
        <path
           d="M 78.66,307.584 H 566.352"
           style="fill:none;stroke:#000000;stroke-width:0.8;stroke-linecap:square;stroke-linejoin:miter"
           id="path7167" />
      </g>
      <g
         id="patch_6">
        <path
           d="M 78.66,41.472 H 566.352"
           style="fill:none;stroke:#000000;stroke-width:0.8;stroke-linecap:square;stroke-linejoin:miter"
           id="path7170" />
      </g>
      <g
         id="text_20">
        <!-- SimPlot++  query: SARS-CoV-2 -->
        <g
           transform="matrix(0.12,0,0,-0.12,229.43006,35.472)"
           id="g7242">
          <defs
             id="defs7184">
            <path
               d="M 46,62.703125 V 35.5 H 73.1875 V 27.203125 H 46 V 0 H 37.796875 V 27.203125 H 10.59375 V 35.5 h 27.203125 v 27.203125 z"
               id="DejaVuSans-43" />
            <path
               id="DejaVuSans-32" />
            <path
               d="m 14.796875,27.296875 q 0,-9.90625 4.078125,-15.546875 4.078125,-5.640625 11.203125,-5.640625 7.125,0 11.21875,5.640625 4.109375,5.640625 4.109375,15.546875 0,9.90625 -4.109375,15.546875 -4.09375,5.640625 -11.21875,5.640625 -7.125,0 -11.203125,-5.640625 -4.078125,-5.640625 -4.078125,-15.546875 z M 45.40625,8.203125 q -2.828125,-4.875 -7.15625,-7.25 -4.3125,-2.375 -10.375,-2.375 -9.90625,0 -16.140625,7.90625 -6.21875,7.921875 -6.21875,20.8125 0,12.890625 6.21875,20.796875 Q 17.96875,56 27.875,56 q 6.0625,0 10.375,-2.375 4.328125,-2.359375 7.15625,-7.234375 V 54.6875 h 8.984375 V -20.796875 H 45.40625 Z"
               id="DejaVuSans-113" />
            <path
               d="M 8.5,21.578125 V 54.6875 h 8.984375 V 21.921875 q 0,-7.765625 3.015625,-11.65625 3.03125,-3.875 9.09375,-3.875 7.265625,0 11.484375,4.640625 4.234375,4.640625 4.234375,12.65625 v 31 h 8.984375 V 0 H 45.3125 V 8.40625 Q 42.046875,3.421875 37.71875,1 33.40625,-1.421875 27.6875,-1.421875 18.265625,-1.421875 13.375,4.4375 8.5,10.296875 8.5,21.578125 Z M 31.109375,56 Z"
               id="DejaVuSans-117" />
            <path
               d="m 56.203125,29.59375 v -4.390625 h -41.3125 q 0.59375,-9.28125 5.59375,-14.140625 5,-4.859375 13.9375,-4.859375 5.171875,0 10.03125,1.265625 4.859375,1.265625 9.65625,3.8125 v -8.5 q -4.84375,-2.046875 -9.921875,-3.125 -5.078125,-1.078125 -10.296875,-1.078125 -13.09375,0 -20.734375,7.609375 -7.640625,7.625 -7.640625,20.625 0,13.421875 7.25,21.296875 Q 20.015625,56 32.328125,56 q 11.03125,0 17.453125,-7.109375 6.421875,-7.09375 6.421875,-19.296875 z m -8.984375,2.640625 q -0.09375,7.359375 -4.125,11.75 -4.03125,4.40625 -10.671875,4.40625 -7.515625,0 -12.03125,-4.25 -4.515625,-4.25 -5.203125,-11.96875 z"
               id="DejaVuSans-101" />
            <path
               d="M 11.71875,12.40625 H 22.015625 V 0 H 11.71875 Z m 0,39.296875 H 22.015625 V 39.3125 H 11.71875 Z"
               id="DejaVuSans-58" />
            <path
               d="M 34.1875,63.1875 20.796875,26.90625 h 26.8125 z m -5.578125,9.71875 h 11.1875 L 67.578125,0 h -10.25 L 50.6875,18.703125 H 17.828125 L 11.1875,0 H 0.78125 Z"
               id="DejaVuSans-65" />
            <path
               d="m 44.390625,34.1875 q 3.171875,-1.078125 6.171875,-4.59375 3,-3.515625 6.03125,-9.671875 L 66.609375,0 H 56 l -9.3125,18.703125 q -3.625,7.328125 -7.015625,9.71875 -3.390625,2.390625 -9.25,2.390625 h -10.75 V 0 H 9.8125 v 72.90625 h 22.265625 q 12.5,0 18.65625,-5.234375 6.15625,-5.21875 6.15625,-15.765625 0,-6.890625 -3.203125,-11.4375 -3.203125,-4.53125 -9.296875,-6.28125 z m -24.71875,30.609375 v -25.875 h 12.40625 q 7.125,0 10.765625,3.296875 3.640625,3.296875 3.640625,9.6875 0,6.390625 -3.640625,9.640625 -3.640625,3.25 -10.765625,3.25 z"
               id="DejaVuSans-82" />
            <path
               d="m 4.890625,31.390625 h 26.3125 v -8 h -26.3125 z"
               id="DejaVuSans-45" />
            <path
               d="M 64.40625,67.28125 V 56.890625 q -4.984375,4.640625 -10.625,6.921875 -5.640625,2.296875 -11.984375,2.296875 -12.5,0 -19.140625,-7.640625 -6.640625,-7.640625 -6.640625,-22.09375 0,-14.40625 6.640625,-22.046875 Q 29.296875,6.6875 41.796875,6.6875 q 6.34375,0 11.984375,2.296875 5.640625,2.296875 10.625,6.9375 V 5.609375 Q 59.234375,2.09375 53.4375,0.328125 q -5.78125,-1.75 -12.21875,-1.75 -16.5625,0 -26.09375,10.125 Q 5.609375,18.84375 5.609375,36.375 q 0,17.578125 9.515625,27.703125 9.53125,10.140625 26.09375,10.140625 6.53125,0 12.3125,-1.734375 5.796875,-1.734375 10.875,-5.203125 z"
               id="DejaVuSans-67" />
            <path
               d="M 28.609375,0 0.78125,72.90625 h 10.296875 l 23.109375,-61.375 23.140625,61.375 h 10.25 L 39.796875,0 Z"
               id="DejaVuSans-86" />
          </defs>
          <use
             xlink:href="#DejaVuSans-83"
             id="use7186" />
          <use
             x="63.476562"
             xlink:href="#DejaVuSans-105"
             id="use7188" />
          <use
             x="91.259766"
             xlink:href="#DejaVuSans-109"
             id="use7190" />
          <use
             x="188.67188"
             xlink:href="#DejaVuSans-80"
             id="use7192" />
          <use
             x="248.97461"
             xlink:href="#DejaVuSans-108"
             id="use7194" />
          <use
             x="276.75781"
             xlink:href="#DejaVuSans-111"
             id="use7196" />
          <use
             x="337.93945"
             xlink:href="#DejaVuSans-116"
             id="use7198" />
          <use
             x="377.14844"
             xlink:href="#DejaVuSans-43"
             id="use7200" />
          <use
             x="460.9375"
             xlink:href="#DejaVuSans-43"
             id="use7202" />
          <use
             x="544.72656"
             xlink:href="#DejaVuSans-32"
             id="use7204" />
          <use
             x="576.51367"
             xlink:href="#DejaVuSans-32"
             id="use7206" />
          <use
             x="608.30078"
             xlink:href="#DejaVuSans-113"
             id="use7208" />
          <use
             x="671.77734"
             xlink:href="#DejaVuSans-117"
             id="use7210" />
          <use
             x="735.15625"
             xlink:href="#DejaVuSans-101"
             id="use7212" />
          <use
             x="796.67969"
             xlink:href="#DejaVuSans-114"
             id="use7214" />
          <use
             x="837.79297"
             xlink:href="#DejaVuSans-121"
             id="use7216" />
          <use
             x="889.72266"
             xlink:href="#DejaVuSans-58"
             id="use7218" />
          <use
             x="923.41406"
             xlink:href="#DejaVuSans-32"
             id="use7220" />
          <use
             x="955.20117"
             xlink:href="#DejaVuSans-83"
             id="use7222" />
          <use
             x="1020.5527"
             xlink:href="#DejaVuSans-65"
             id="use7224" />
          <use
             x="1088.9609"
             xlink:href="#DejaVuSans-82"
             id="use7226" />
          <use
             x="1158.4434"
             xlink:href="#DejaVuSans-83"
             id="use7228" />
          <use
             x="1221.9199"
             xlink:href="#DejaVuSans-45"
             id="use7230" />
          <use
             x="1258.0039"
             xlink:href="#DejaVuSans-67"
             id="use7232" />
          <use
             x="1327.8281"
             xlink:href="#DejaVuSans-111"
             id="use7234" />
          <use
             x="1389.0098"
             xlink:href="#DejaVuSans-86"
             id="use7236" />
          <use
             x="1451.543"
             xlink:href="#DejaVuSans-45"
             id="use7238" />
          <use
             x="1487.627"
             xlink:href="#DejaVuSans-50"
             id="use7240" />
        </g>
      </g>
      <g
         id="legend_1">
        <g
           id="patch_7">
          <path
             d="m 382.527,302.584 h 176.825 q 2,0 2,-2 V 184.159 q 0,-2 -2,-2 H 382.527 q -2,0 -2,2 v 116.425 q 0,2 2,2 z"
             style="opacity:0.8;fill:#ffffff;stroke:#cccccc;stroke-linejoin:miter"
             id="path7245" />
        </g>
        <g
           id="line2d_26">
          <path
             d="m 384.527,190.25744 h 20"
             style="fill:none;stroke:#5b113c;stroke-width:1.5;stroke-linecap:square"
             id="path7248" />
        </g>
        <g
           id="line2d_27" />
        <g
           id="text_21">
          <!-- Guangxi Pangolin CoV -->
          <g
             transform="matrix(0.1,0,0,-0.1,412.527,193.75744)"
             id="g7297">
            <defs
               id="defs7255">
              <path
                 d="M 59.515625,10.40625 V 29.984375 H 43.40625 v 8.109375 h 25.875 V 6.78125 Q 63.578125,2.734375 56.6875,0.65625 49.8125,-1.421875 42,-1.421875 q -17.09375,0 -26.75,9.984375 -9.640625,10 -9.640625,27.8125 0,17.875 9.640625,27.859375 9.65625,9.984375 26.75,9.984375 7.125,0 13.546875,-1.765625 6.421875,-1.75 11.84375,-5.171875 v -10.5 q -5.46875,4.640625 -11.625,6.984375 -6.15625,2.34375 -12.9375,2.34375 -13.390625,0 -20.109375,-7.46875 -6.703125,-7.46875 -6.703125,-22.265625 0,-14.75 6.703125,-22.21875 6.71875,-7.46875 20.109375,-7.46875 5.21875,0 9.3125,0.90625 4.109375,0.90625 7.375,2.8125 z"
                 id="DejaVuSans-71" />
              <path
                 d="m 45.40625,27.984375 q 0,9.765625 -4.03125,15.125 -4.015625,5.375 -11.296875,5.375 -7.21875,0 -11.25,-5.375 -4.03125,-5.359375 -4.03125,-15.125 0,-9.71875 4.03125,-15.09375 4.03125,-5.375 11.25,-5.375 7.28125,0 11.296875,5.375 4.03125,5.375 4.03125,15.09375 z M 54.390625,6.78125 q 0,-13.953125 -6.203125,-20.765625 -6.1875,-6.8125 -18.984375,-6.8125 -4.734375,0 -8.9375,0.703125 -4.203125,0.703125 -8.15625,2.171875 V -9.1875 q 3.953125,-2.140625 7.8125,-3.15625 3.859375,-1.03125 7.859375,-1.03125 8.84375,0 13.234375,4.609375 4.390625,4.609375 4.390625,13.9375 V 9.625 Q 42.625,4.78125 38.28125,2.390625 33.9375,0 27.875,0 17.828125,0 11.671875,7.65625 q -6.15625,7.671875 -6.15625,20.328125 0,12.6875 6.15625,20.34375 Q 17.828125,56 27.875,56 q 6.0625,0 10.40625,-2.390625 4.34375,-2.390625 7.125,-7.21875 V 54.6875 h 8.984375 z"
                 id="DejaVuSans-103" />
              <path
                 d="M 54.890625,54.6875 35.109375,28.078125 55.90625,0 H 45.3125 L 29.390625,21.484375 13.484375,0 H 2.875 L 24.125,28.609375 4.6875,54.6875 h 10.59375 l 14.5,-19.484375 14.5,19.484375 z"
                 id="DejaVuSans-120" />
            </defs>
            <use
               xlink:href="#DejaVuSans-71"
               id="use7257" />
            <use
               x="77.490234"
               xlink:href="#DejaVuSans-117"
               id="use7259" />
            <use
               x="140.86914"
               xlink:href="#DejaVuSans-97"
               id="use7261" />
            <use
               x="202.14844"
               xlink:href="#DejaVuSans-110"
               id="use7263" />
            <use
               x="265.52734"
               xlink:href="#DejaVuSans-103"
               id="use7265" />
            <use
               x="329.00391"
               xlink:href="#DejaVuSans-120"
               id="use7267" />
            <use
               x="388.18359"
               xlink:href="#DejaVuSans-105"
               id="use7269" />
            <use
               x="415.9668"
               xlink:href="#DejaVuSans-32"
               id="use7271" />
            <use
               x="447.75391"
               xlink:href="#DejaVuSans-80"
               id="use7273" />
            <use
               x="503.55664"
               xlink:href="#DejaVuSans-97"
               id="use7275" />
            <use
               x="564.83594"
               xlink:href="#DejaVuSans-110"
               id="use7277" />
            <use
               x="628.21484"
               xlink:href="#DejaVuSans-103"
               id="use7279" />
            <use
               x="691.69141"
               xlink:href="#DejaVuSans-111"
               id="use7281" />
            <use
               x="752.87305"
               xlink:href="#DejaVuSans-108"
               id="use7283" />
            <use
               x="780.65625"
               xlink:href="#DejaVuSans-105"
               id="use7285" />
            <use
               x="808.43945"
               xlink:href="#DejaVuSans-110"
               id="use7287" />
            <use
               x="871.81836"
               xlink:href="#DejaVuSans-32"
               id="use7289" />
            <use
               x="903.60547"
               xlink:href="#DejaVuSans-67"
               id="use7291" />
            <use
               x="973.42969"
               xlink:href="#DejaVuSans-111"
               id="use7293" />
            <use
               x="1034.6113"
               xlink:href="#DejaVuSans-86"
               id="use7295" />
          </g>
        </g>
        <g
           id="line2d_28">
          <path
             d="m 384.527,204.93556 h 20"
             style="fill:none;stroke:#ff34ff;stroke-width:1.5;stroke-linecap:square"
             id="path7300" />
        </g>
        <g
           id="line2d_29" />
        <g
           id="text_22">
          <!-- Bat CoV (ZXC21, ZC45) -->
          <g
             transform="matrix(0.1,0,0,-0.1,412.527,208.43556)"
             id="g7354">
            <defs
               id="defs7310">
              <path
                 d="M 19.671875,34.8125 V 8.109375 H 35.5 q 7.953125,0 11.78125,3.296875 3.84375,3.296875 3.84375,10.078125 0,6.84375 -3.84375,10.078125 -3.828125,3.25 -11.78125,3.25 z m 0,29.984375 V 42.828125 H 34.28125 q 7.21875,0 10.75,2.703125 3.546875,2.71875 3.546875,8.28125 0,5.515625 -3.546875,8.25 -3.53125,2.734375 -10.75,2.734375 z M 9.8125,72.90625 h 25.203125 q 11.28125,0 17.375,-4.6875 Q 58.5,63.53125 58.5,54.890625 58.5,48.1875 55.375,44.234375 52.25,40.28125 46.1875,39.3125 53.46875,37.75 57.5,32.78125 q 4.03125,-4.953125 4.03125,-12.375 0,-9.765625 -6.640625,-15.09375 Q 48.25,0 35.984375,0 H 9.8125 Z"
                 id="DejaVuSans-66" />
              <path
                 d="M 31,75.875 Q 24.46875,64.65625 21.28125,53.65625 18.109375,42.671875 18.109375,31.390625 18.109375,20.125 21.3125,9.0625 24.515625,-2 31,-13.1875 H 23.1875 Q 15.875,-1.703125 12.234375,9.375 8.59375,20.453125 8.59375,31.390625 q 0,10.890625 3.609375,21.921875 3.625,11.046875 10.984375,22.5625 z"
                 id="DejaVuSans-40" />
              <path
                 d="m 5.609375,72.90625 h 57.28125 V 65.375 L 16.796875,8.296875 h 47.21875 V 0 H 4.5 V 7.515625 L 50.59375,64.59375 H 5.609375 Z"
                 id="DejaVuSans-90" />
              <path
                 d="m 6.296875,72.90625 h 10.59375 L 35.015625,45.796875 53.21875,72.90625 H 63.8125 L 40.375,37.890625 65.375,0 H 54.78125 l -20.5,31 L 13.625,0 H 2.984375 L 29,38.921875 Z"
                 id="DejaVuSans-88" />
              <path
                 d="M 11.71875,12.40625 H 22.015625 V 4 l -8,-15.625 H 7.71875 l 4,15.625 z"
                 id="DejaVuSans-44" />
              <path
                 d="m 8.015625,75.875 h 7.8125 q 7.3125,-11.515625 10.953125,-22.5625 3.640625,-11.03125 3.640625,-21.921875 0,-10.9375 -3.640625,-22.015625 -3.640625,-11.078125 -10.953125,-22.5625 h -7.8125 Q 14.5,-2 17.703125,9.0625 20.90625,20.125 20.90625,31.390625 q 0,11.28125 -3.203125,22.265625 -3.203125,11 -9.6875,22.21875 z"
                 id="DejaVuSans-41" />
            </defs>
            <use
               xlink:href="#DejaVuSans-66"
               id="use7312" />
            <use
               x="68.603516"
               xlink:href="#DejaVuSans-97"
               id="use7314" />
            <use
               x="129.88281"
               xlink:href="#DejaVuSans-116"
               id="use7316" />
            <use
               x="169.0918"
               xlink:href="#DejaVuSans-32"
               id="use7318" />
            <use
               x="200.87891"
               xlink:href="#DejaVuSans-67"
               id="use7320" />
            <use
               x="270.70312"
               xlink:href="#DejaVuSans-111"
               id="use7322" />
            <use
               x="331.88477"
               xlink:href="#DejaVuSans-86"
               id="use7324" />
            <use
               x="400.29297"
               xlink:href="#DejaVuSans-32"
               id="use7326" />
            <use
               x="432.08008"
               xlink:href="#DejaVuSans-40"
               id="use7328" />
            <use
               x="471.09375"
               xlink:href="#DejaVuSans-90"
               id="use7330" />
            <use
               x="539.59961"
               xlink:href="#DejaVuSans-88"
               id="use7332" />
            <use
               x="600.85547"
               xlink:href="#DejaVuSans-67"
               id="use7334" />
            <use
               x="670.67969"
               xlink:href="#DejaVuSans-50"
               id="use7336" />
            <use
               x="734.30273"
               xlink:href="#DejaVuSans-49"
               id="use7338" />
            <use
               x="797.92578"
               xlink:href="#DejaVuSans-44"
               id="use7340" />
            <use
               x="829.71289"
               xlink:href="#DejaVuSans-32"
               id="use7342" />
            <use
               x="861.5"
               xlink:href="#DejaVuSans-90"
               id="use7344" />
            <use
               x="930.00586"
               xlink:href="#DejaVuSans-67"
               id="use7346" />
            <use
               x="999.83008"
               xlink:href="#DejaVuSans-52"
               id="use7348" />
            <use
               x="1063.4531"
               xlink:href="#DejaVuSans-53"
               id="use7350" />
            <use
               x="1127.0762"
               xlink:href="#DejaVuSans-41"
               id="use7352" />
          </g>
        </g>
        <g
           id="line2d_30">
          <path
             d="m 384.527,219.61369 h 20"
             style="fill:none;stroke:#0000a6;stroke-width:1.5;stroke-linecap:square"
             id="path7357" />
        </g>
        <g
           id="line2d_31" />
        <g
           id="text_23">
          <!-- Bat CoV from kenya/BGR -->
          <g
             transform="matrix(0.1,0,0,-0.1,412.527,223.11369)"
             id="g7410">
            <defs
               id="defs7364">
              <path
                 d="M 37.109375,75.984375 V 68.5 h -8.59375 q -4.828125,0 -6.71875,-1.953125 -1.875,-1.953125 -1.875,-7.03125 V 54.6875 H 34.71875 V 47.703125 H 19.921875 V 0 h -9.03125 V 47.703125 H 2.296875 V 54.6875 h 8.59375 V 58.5 q 0,9.125 4.25,13.296875 4.25,4.1875 13.46875,4.1875 z"
                 id="DejaVuSans-102" />
              <path
                 d="m 9.078125,75.984375 h 9.03125 v -44.875 l 26.8125,23.578125 h 11.46875 l -29,-25.578125 L 57.625,0 H 45.90625 L 18.109375,26.703125 V 0 h -9.03125 z"
                 id="DejaVuSans-107" />
              <path
                 d="M 25.390625,72.90625 H 33.6875 L 8.296875,-9.28125 H 0 Z"
                 id="DejaVuSans-47" />
            </defs>
            <use
               xlink:href="#DejaVuSans-66"
               id="use7366" />
            <use
               x="68.603516"
               xlink:href="#DejaVuSans-97"
               id="use7368" />
            <use
               x="129.88281"
               xlink:href="#DejaVuSans-116"
               id="use7370" />
            <use
               x="169.0918"
               xlink:href="#DejaVuSans-32"
               id="use7372" />
            <use
               x="200.87891"
               xlink:href="#DejaVuSans-67"
               id="use7374" />
            <use
               x="270.70312"
               xlink:href="#DejaVuSans-111"
               id="use7376" />
            <use
               x="331.88477"
               xlink:href="#DejaVuSans-86"
               id="use7378" />
            <use
               x="400.29297"
               xlink:href="#DejaVuSans-32"
               id="use7380" />
            <use
               x="432.08008"
               xlink:href="#DejaVuSans-102"
               id="use7382" />
            <use
               x="467.28516"
               xlink:href="#DejaVuSans-114"
               id="use7384" />
            <use
               x="506.14844"
               xlink:href="#DejaVuSans-111"
               id="use7386" />
            <use
               x="567.33008"
               xlink:href="#DejaVuSans-109"
               id="use7388" />
            <use
               x="664.74219"
               xlink:href="#DejaVuSans-32"
               id="use7390" />
            <use
               x="696.5293"
               xlink:href="#DejaVuSans-107"
               id="use7392" />
            <use
               x="750.81445"
               xlink:href="#DejaVuSans-101"
               id="use7394" />
            <use
               x="812.33789"
               xlink:href="#DejaVuSans-110"
               id="use7396" />
            <use
               x="875.7168"
               xlink:href="#DejaVuSans-121"
               id="use7398" />
            <use
               x="934.89648"
               xlink:href="#DejaVuSans-97"
               id="use7400" />
            <use
               x="996.17578"
               xlink:href="#DejaVuSans-47"
               id="use7402" />
            <use
               x="1029.8672"
               xlink:href="#DejaVuSans-66"
               id="use7404" />
            <use
               x="1096.7207"
               xlink:href="#DejaVuSans-71"
               id="use7406" />
            <use
               x="1174.2109"
               xlink:href="#DejaVuSans-82"
               id="use7408" />
          </g>
        </g>
        <g
           id="line2d_32">
          <path
             d="m 384.527,234.29181 h 20"
             style="fill:none;stroke:#494b5a;stroke-width:1.5;stroke-linecap:square"
             id="path7413" />
        </g>
        <g
           id="line2d_33" />
        <g
           id="text_24">
          <!-- Bas SL CoV (BTCoV, RS3367) -->
          <g
             transform="matrix(0.1,0,0,-0.1,412.527,237.79181)"
             id="g7473">
            <defs
               id="defs7419">
              <path
                 d="m 9.8125,72.90625 h 9.859375 V 8.296875 h 35.5 V 0 H 9.8125 Z"
                 id="DejaVuSans-76" />
              <path
                 d="M -0.296875,72.90625 H 61.375 v -8.3125 H 35.5 V 0 H 25.59375 V 64.59375 H -0.296875 Z"
                 id="DejaVuSans-84" />
            </defs>
            <use
               xlink:href="#DejaVuSans-66"
               id="use7421" />
            <use
               x="68.603516"
               xlink:href="#DejaVuSans-97"
               id="use7423" />
            <use
               x="129.88281"
               xlink:href="#DejaVuSans-115"
               id="use7425" />
            <use
               x="181.98242"
               xlink:href="#DejaVuSans-32"
               id="use7427" />
            <use
               x="213.76953"
               xlink:href="#DejaVuSans-83"
               id="use7429" />
            <use
               x="277.24609"
               xlink:href="#DejaVuSans-76"
               id="use7431" />
            <use
               x="332.95898"
               xlink:href="#DejaVuSans-32"
               id="use7433" />
            <use
               x="364.74609"
               xlink:href="#DejaVuSans-67"
               id="use7435" />
            <use
               x="434.57031"
               xlink:href="#DejaVuSans-111"
               id="use7437" />
            <use
               x="495.75195"
               xlink:href="#DejaVuSans-86"
               id="use7439" />
            <use
               x="564.16016"
               xlink:href="#DejaVuSans-32"
               id="use7441" />
            <use
               x="595.94727"
               xlink:href="#DejaVuSans-40"
               id="use7443" />
            <use
               x="634.96094"
               xlink:href="#DejaVuSans-66"
               id="use7445" />
            <use
               x="703.56445"
               xlink:href="#DejaVuSans-84"
               id="use7447" />
            <use
               x="758.77344"
               xlink:href="#DejaVuSans-67"
               id="use7449" />
            <use
               x="828.59766"
               xlink:href="#DejaVuSans-111"
               id="use7451" />
            <use
               x="889.7793"
               xlink:href="#DejaVuSans-86"
               id="use7453" />
            <use
               x="958.1875"
               xlink:href="#DejaVuSans-44"
               id="use7455" />
            <use
               x="989.97461"
               xlink:href="#DejaVuSans-32"
               id="use7457" />
            <use
               x="1021.7617"
               xlink:href="#DejaVuSans-82"
               id="use7459" />
            <use
               x="1091.2441"
               xlink:href="#DejaVuSans-83"
               id="use7461" />
            <use
               x="1154.7207"
               xlink:href="#DejaVuSans-51"
               id="use7463" />
            <use
               x="1218.3438"
               xlink:href="#DejaVuSans-51"
               id="use7465" />
            <use
               x="1281.9668"
               xlink:href="#DejaVuSans-54"
               id="use7467" />
            <use
               x="1345.5898"
               xlink:href="#DejaVuSans-55"
               id="use7469" />
            <use
               x="1409.2129"
               xlink:href="#DejaVuSans-41"
               id="use7471" />
          </g>
        </g>
        <g
           id="line2d_34">
          <path
             d="m 384.527,248.96994 h 20"
             style="fill:none;stroke:#0086ed;stroke-width:1.5;stroke-linecap:square"
             id="path7476" />
        </g>
        <g
           id="line2d_35" />
        <g
           id="text_25">
          <!-- Bat SL CoV (HKU3. RF1) -->
          <g
             transform="matrix(0.1,0,0,-0.1,412.527,252.46994)"
             id="g7530">
            <defs
               id="defs7484">
              <path
                 d="m 9.8125,72.90625 h 9.859375 V 43.015625 h 35.84375 V 72.90625 H 65.375 V 0 H 55.515625 V 34.71875 H 19.671875 V 0 H 9.8125 Z"
                 id="DejaVuSans-72" />
              <path
                 d="m 9.8125,72.90625 h 9.859375 v -30.8125 l 32.71875,30.8125 H 65.09375 L 28.90625,38.921875 67.671875,0 H 54.6875 L 19.671875,35.109375 V 0 H 9.8125 Z"
                 id="DejaVuSans-75" />
              <path
                 d="m 8.6875,72.90625 h 9.921875 V 28.609375 q 0,-11.71875 4.234375,-16.875 4.25,-5.140625 13.78125,-5.140625 9.46875,0 13.71875,5.140625 4.25,5.15625 4.25,16.875 V 72.90625 H 64.5 V 27.390625 q 0,-14.25 -7.0625,-21.53125 -7.046875,-7.28125 -20.8125,-7.28125 -13.828125,0 -20.890625,7.28125 Q 8.6875,13.140625 8.6875,27.390625 Z"
                 id="DejaVuSans-85" />
              <path
                 d="m 9.8125,72.90625 h 41.890625 v -8.3125 H 19.671875 V 43.109375 h 28.90625 V 34.8125 H 19.671875 V 0 H 9.8125 Z"
                 id="DejaVuSans-70" />
            </defs>
            <use
               xlink:href="#DejaVuSans-66"
               id="use7486" />
            <use
               x="68.603516"
               xlink:href="#DejaVuSans-97"
               id="use7488" />
            <use
               x="129.88281"
               xlink:href="#DejaVuSans-116"
               id="use7490" />
            <use
               x="169.0918"
               xlink:href="#DejaVuSans-32"
               id="use7492" />
            <use
               x="200.87891"
               xlink:href="#DejaVuSans-83"
               id="use7494" />
            <use
               x="264.35547"
               xlink:href="#DejaVuSans-76"
               id="use7496" />
            <use
               x="320.06836"
               xlink:href="#DejaVuSans-32"
               id="use7498" />
            <use
               x="351.85547"
               xlink:href="#DejaVuSans-67"
               id="use7500" />
            <use
               x="421.67969"
               xlink:href="#DejaVuSans-111"
               id="use7502" />
            <use
               x="482.86133"
               xlink:href="#DejaVuSans-86"
               id="use7504" />
            <use
               x="551.26953"
               xlink:href="#DejaVuSans-32"
               id="use7506" />
            <use
               x="583.05664"
               xlink:href="#DejaVuSans-40"
               id="use7508" />
            <use
               x="622.07031"
               xlink:href="#DejaVuSans-72"
               id="use7510" />
            <use
               x="697.26562"
               xlink:href="#DejaVuSans-75"
               id="use7512" />
            <use
               x="760.2168"
               xlink:href="#DejaVuSans-85"
               id="use7514" />
            <use
               x="833.41016"
               xlink:href="#DejaVuSans-51"
               id="use7516" />
            <use
               x="897.0332"
               xlink:href="#DejaVuSans-46"
               id="use7518" />
            <use
               x="928.82031"
               xlink:href="#DejaVuSans-32"
               id="use7520" />
            <use
               x="960.60742"
               xlink:href="#DejaVuSans-82"
               id="use7522" />
            <use
               x="1030.0898"
               xlink:href="#DejaVuSans-70"
               id="use7524" />
            <use
               x="1087.6094"
               xlink:href="#DejaVuSans-49"
               id="use7526" />
            <use
               x="1151.2324"
               xlink:href="#DejaVuSans-41"
               id="use7528" />
          </g>
        </g>
        <g
           id="line2d_36">
          <path
             d="m 384.527,263.64806 h 20"
             style="fill:none;stroke:#bc65e9;stroke-width:1.5;stroke-linecap:square"
             id="path7533" />
        </g>
        <g
           id="line2d_37" />
        <g
           id="text_26">
          <!-- Guangdong Pangolin CoV -->
          <g
             transform="matrix(0.1,0,0,-0.1,412.527,267.14806)"
             id="g7584">
            <defs
               id="defs7538">
              <path
                 d="m 45.40625,46.390625 v 29.59375 h 8.984375 V 0 H 45.40625 v 8.203125 q -2.828125,-4.875 -7.15625,-7.25 -4.3125,-2.375 -10.375,-2.375 -9.90625,0 -16.140625,7.90625 -6.21875,7.921875 -6.21875,20.8125 0,12.890625 6.21875,20.796875 Q 17.96875,56 27.875,56 q 6.0625,0 10.375,-2.375 4.328125,-2.359375 7.15625,-7.234375 z M 14.796875,27.296875 q 0,-9.90625 4.078125,-15.546875 4.078125,-5.640625 11.203125,-5.640625 7.125,0 11.21875,5.640625 4.109375,5.640625 4.109375,15.546875 0,9.90625 -4.109375,15.546875 -4.09375,5.640625 -11.21875,5.640625 -7.125,0 -11.203125,-5.640625 -4.078125,-5.640625 -4.078125,-15.546875 z"
                 id="DejaVuSans-100" />
            </defs>
            <use
               xlink:href="#DejaVuSans-71"
               id="use7540" />
            <use
               x="77.490234"
               xlink:href="#DejaVuSans-117"
               id="use7542" />
            <use
               x="140.86914"
               xlink:href="#DejaVuSans-97"
               id="use7544" />
            <use
               x="202.14844"
               xlink:href="#DejaVuSans-110"
               id="use7546" />
            <use
               x="265.52734"
               xlink:href="#DejaVuSans-103"
               id="use7548" />
            <use
               x="329.00391"
               xlink:href="#DejaVuSans-100"
               id="use7550" />
            <use
               x="392.48047"
               xlink:href="#DejaVuSans-111"
               id="use7552" />
            <use
               x="453.66211"
               xlink:href="#DejaVuSans-110"
               id="use7554" />
            <use
               x="517.04102"
               xlink:href="#DejaVuSans-103"
               id="use7556" />
            <use
               x="580.51758"
               xlink:href="#DejaVuSans-32"
               id="use7558" />
            <use
               x="612.30469"
               xlink:href="#DejaVuSans-80"
               id="use7560" />
            <use
               x="668.10742"
               xlink:href="#DejaVuSans-97"
               id="use7562" />
            <use
               x="729.38672"
               xlink:href="#DejaVuSans-110"
               id="use7564" />
            <use
               x="792.76562"
               xlink:href="#DejaVuSans-103"
               id="use7566" />
            <use
               x="856.24219"
               xlink:href="#DejaVuSans-111"
               id="use7568" />
            <use
               x="917.42383"
               xlink:href="#DejaVuSans-108"
               id="use7570" />
            <use
               x="945.20703"
               xlink:href="#DejaVuSans-105"
               id="use7572" />
            <use
               x="972.99023"
               xlink:href="#DejaVuSans-110"
               id="use7574" />
            <use
               x="1036.3691"
               xlink:href="#DejaVuSans-32"
               id="use7576" />
            <use
               x="1068.1562"
               xlink:href="#DejaVuSans-67"
               id="use7578" />
            <use
               x="1137.9805"
               xlink:href="#DejaVuSans-111"
               id="use7580" />
            <use
               x="1199.1621"
               xlink:href="#DejaVuSans-86"
               id="use7582" />
          </g>
        </g>
        <g
           id="line2d_38">
          <path
             d="m 384.527,278.32619 h 20"
             style="fill:none;stroke:#00c2a0;stroke-width:1.5;stroke-linecap:square"
             id="path7587" />
        </g>
        <g
           id="line2d_39" />
        <g
           id="text_27">
          <!-- SARS CoV -->
          <g
             transform="matrix(0.1,0,0,-0.1,412.527,281.82619)"
             id="g7607">
            <use
               xlink:href="#DejaVuSans-83"
               id="use7591" />
            <use
               x="65.351562"
               xlink:href="#DejaVuSans-65"
               id="use7593" />
            <use
               x="133.75977"
               xlink:href="#DejaVuSans-82"
               id="use7595" />
            <use
               x="203.24219"
               xlink:href="#DejaVuSans-83"
               id="use7597" />
            <use
               x="266.71875"
               xlink:href="#DejaVuSans-32"
               id="use7599" />
            <use
               x="298.50586"
               xlink:href="#DejaVuSans-67"
               id="use7601" />
            <use
               x="368.33008"
               xlink:href="#DejaVuSans-111"
               id="use7603" />
            <use
               x="429.51172"
               xlink:href="#DejaVuSans-86"
               id="use7605" />
          </g>
        </g>
        <g
           id="line2d_40">
          <path
             d="m 384.527,293.00431 h 20"
             style="fill:none;stroke:#006c31;stroke-width:1.5;stroke-linecap:square"
             id="path7610" />
        </g>
        <g
           id="line2d_41" />
        <g
           id="text_28">
          <!-- Bat CoV (RatG13) -->
          <g
             transform="matrix(0.1,0,0,-0.1,412.527,296.50431)"
             id="g7646">
            <use
               xlink:href="#DejaVuSans-66"
               id="use7614" />
            <use
               x="68.603516"
               xlink:href="#DejaVuSans-97"
               id="use7616" />
            <use
               x="129.88281"
               xlink:href="#DejaVuSans-116"
               id="use7618" />
            <use
               x="169.0918"
               xlink:href="#DejaVuSans-32"
               id="use7620" />
            <use
               x="200.87891"
               xlink:href="#DejaVuSans-67"
               id="use7622" />
            <use
               x="270.70312"
               xlink:href="#DejaVuSans-111"
               id="use7624" />
            <use
               x="331.88477"
               xlink:href="#DejaVuSans-86"
               id="use7626" />
            <use
               x="400.29297"
               xlink:href="#DejaVuSans-32"
               id="use7628" />
            <use
               x="432.08008"
               xlink:href="#DejaVuSans-40"
               id="use7630" />
            <use
               x="471.09375"
               xlink:href="#DejaVuSans-82"
               id="use7632" />
            <use
               x="538.32617"
               xlink:href="#DejaVuSans-97"
               id="use7634" />
            <use
               x="599.60547"
               xlink:href="#DejaVuSans-116"
               id="use7636" />
            <use
               x="638.81445"
               xlink:href="#DejaVuSans-71"
               id="use7638" />
            <use
               x="716.30469"
               xlink:href="#DejaVuSans-49"
               id="use7640" />
            <use
               x="779.92773"
               xlink:href="#DejaVuSans-51"
               id="use7642" />
            <use
               x="843.55078"
               xlink:href="#DejaVuSans-41"
               id="use7644" />
          </g>
        </g>
      </g>
    </g>
  </g>
  <defs
     id="defs7655">
    <clipPath
       id="p0cfdd7ad18">
      <rect
         height="266.112"
         width="487.69199"
         x="78.660004"
         y="41.472"
         id="rect7652" />
    </clipPath>
  </defs>
</svg>
